<?xml version="1.0" standalone="no"?>
<!DOCTYPE svg PUBLIC "-//W3C//DTD SVG 20010904//EN"
 "http://www.w3.org/TR/2001/REC-SVG-20010904/DTD/svg10.dtd">
<svg version="1.0" xmlns="http://www.w3.org/2000/svg"
 width="1250.000000pt" height="1250.000000pt" viewBox="0 0 1250.000000 1250.000000"
 preserveAspectRatio="xMidYMid meet">
<metadata>
Created by potrace 1.16, written by Peter Selinger 2001-2019
</metadata>
<g transform="translate(0.000000,1250.000000) scale(0.100000,-0.100000)"
fill="#000000" stroke="none">
<path d="M5358 11193 c-25 -3 -38 -9 -38 -19 0 -8 -5 -14 -11 -14 -5 0 -7 -4
-4 -10 3 -5 -1 -10 -9 -10 -9 0 -16 -5 -16 -11 0 -8 -4 -8 -14 0 -8 7 -17 8
-20 3 -3 -5 -20 -12 -37 -16 -22 -4 -30 -10 -25 -21 3 -8 1 -15 -3 -15 -5 0
-12 6 -14 13 -4 9 -6 9 -6 0 -1 -15 -51 -66 -51 -53 0 18 -19 10 -25 -10 -10
-32 -30 -23 -50 20 -20 43 -31 50 -38 23 -4 -16 -5 -16 -6 1 -1 14 -6 17 -23
12 -13 -3 -27 -6 -31 -6 -5 0 -5 -9 -2 -20 4 -14 2 -20 -9 -20 -11 0 -18 -13
-22 -41 -5 -29 -13 -43 -26 -47 -10 -2 -17 -9 -15 -15 3 -11 -20 -44 -60 -83
-13 -12 -23 -26 -23 -33 0 -6 -6 -11 -13 -11 -7 0 -19 -9 -27 -20 -8 -12 -26
-20 -42 -20 -31 0 -50 -36 -27 -51 12 -8 12 -11 -1 -18 -9 -6 -17 -6 -20 0 -4
5 -13 -2 -20 -16 -8 -14 -20 -23 -27 -21 -7 3 -13 -1 -13 -9 0 -8 -7 -15 -15
-15 -8 0 -15 -6 -15 -14 0 -11 -10 -13 -40 -9 -26 4 -40 2 -40 -6 0 -6 -13
-11 -30 -11 -23 0 -31 5 -36 24 -3 13 -16 28 -30 35 -13 6 -24 15 -24 20 0 21
13 41 27 41 8 0 11 5 7 11 -3 6 0 15 7 20 11 7 11 9 -2 9 -9 0 -20 8 -23 17
-5 13 -9 14 -15 5 -9 -15 -51 12 -51 33 0 9 -6 12 -15 9 -11 -5 -15 1 -15 21
0 21 -4 25 -19 20 -12 -4 -21 0 -25 12 -4 10 -3 19 2 21 5 1 7 13 5 27 -3 14
-10 22 -18 19 -19 -8 -55 14 -55 31 0 8 -4 15 -10 15 -14 0 -12 -27 3 -33 10
-3 10 -9 0 -26 -16 -25 -18 -95 -3 -86 6 4 10 -5 10 -20 0 -15 4 -24 10 -20 6
3 10 -5 10 -19 0 -14 -4 -28 -10 -31 -20 -12 -9 -36 20 -46 17 -6 30 -17 30
-25 0 -7 12 -17 26 -20 14 -4 30 -17 34 -30 5 -13 18 -24 28 -24 10 0 27 -8
38 -18 10 -10 27 -16 37 -14 15 3 18 0 12 -17 -4 -13 -2 -21 5 -21 8 0 9 -10
5 -30 -5 -23 -3 -30 9 -30 9 0 16 5 16 10 0 15 30 12 36 -4 3 -8 12 -12 20 -9
9 3 14 -2 14 -16 0 -16 6 -21 26 -21 20 0 24 4 19 19 -8 26 4 71 20 71 7 0 15
7 19 15 3 8 14 15 25 15 15 0 23 10 31 38 5 22 19 47 30 57 11 10 20 24 20 32
0 7 9 13 19 13 11 0 21 4 23 9 2 6 24 6 56 0 41 -8 55 -7 66 4 14 14 11 63 -5
73 -15 9 -10 44 6 44 8 0 20 9 27 20 8 12 24 20 41 20 23 0 28 4 23 16 -4 9
-2 22 3 28 5 6 9 13 8 16 -1 3 6 16 15 29 22 31 43 22 52 -21 4 -20 9 -28 14
-21 5 8 13 9 22 3 13 -8 12 -12 -4 -27 -13 -13 -20 -15 -23 -6 -5 15 -54 6
-65 -11 -16 -23 -7 -28 37 -24 26 3 45 1 45 -4 0 -6 7 -8 15 -4 11 4 15 -2 15
-20 0 -14 4 -22 10 -19 6 3 10 -1 10 -9 0 -9 9 -16 20 -16 15 0 20 7 20 26 0
14 -4 23 -9 20 -12 -8 -33 43 -26 65 4 11 10 19 15 19 5 0 7 14 4 30 -7 31 -1
34 52 33 7 0 18 10 25 23 7 13 18 24 26 24 7 0 13 6 13 13 0 9 3 8 9 -2 5 -7
13 -11 19 -7 15 9 23 -22 16 -60 -6 -32 -5 -34 22 -34 16 0 42 -7 58 -15 36
-19 44 -19 63 0 14 15 11 29 -5 30 -18 1 -52 32 -52 47 0 10 -4 18 -10 18 -5
0 -10 11 -10 25 0 14 -4 25 -10 25 -22 0 -8 18 23 30 17 6 40 16 49 21 25 13
48 11 48 -3 0 -26 16 -36 63 -43 39 -6 47 -5 47 9 0 9 5 16 11 16 8 0 7 5 -1
15 -9 11 -22 14 -40 10 -19 -4 -29 -2 -33 9 -3 8 -22 22 -41 31 -20 10 -36 24
-36 31 0 14 -7 15 -82 7z"/>
<path d="M7684 11145 c4 -16 2 -25 -5 -25 -6 0 -9 -7 -5 -15 3 -8 1 -15 -5
-15 -6 0 -9 -6 -6 -14 8 -20 -17 -27 -39 -11 -15 11 -16 17 -7 37 9 20 8 26
-8 36 -34 22 -40 15 -33 -40 4 -29 11 -54 15 -56 5 -2 9 -12 9 -23 0 -10 5
-19 10 -19 6 0 10 -9 10 -20 0 -11 5 -20 11 -20 7 0 9 -11 6 -27 -5 -29 16
-83 33 -83 16 0 12 -30 -4 -36 -8 -3 -12 -12 -9 -20 3 -8 0 -14 -6 -14 -6 0
-8 -7 -4 -16 3 -9 13 -14 24 -11 12 3 19 0 19 -9 0 -7 -11 -16 -25 -20 -39
-10 -26 -44 16 -44 17 0 40 72 33 106 -4 21 0 44 10 65 21 41 21 73 1 65 -9
-3 -15 0 -15 8 0 20 27 28 34 10 3 -8 12 -14 20 -14 19 0 30 -31 14 -42 -10
-6 -10 -8 0 -8 6 0 12 -7 12 -15 0 -8 7 -15 15 -15 8 0 15 -8 15 -18 0 -26 10
-33 31 -22 11 6 19 6 21 0 4 -14 48 0 48 15 0 8 -8 11 -20 8 -12 -3 -20 0 -20
6 0 7 -4 9 -10 6 -5 -3 -10 -2 -10 3 0 5 11 14 24 21 25 14 66 7 66 -10 0 -6
4 -8 10 -4 14 9 0 37 -38 73 -38 35 -69 44 -54 15 16 -31 4 -43 -29 -31 -16 5
-29 13 -29 16 1 25 15 52 27 52 8 0 11 5 8 10 -3 6 -1 10 4 10 6 0 11 7 11 16
0 9 -5 14 -12 12 -23 -8 -58 34 -58 68 0 18 -3 40 -6 48 -6 15 -7 15 -18 0
-16 -22 -56 -10 -56 17 0 11 -7 19 -16 19 -12 0 -15 -6 -10 -25z"/>
<path d="M3817 10969 c-29 -17 -19 -38 23 -50 46 -14 55 -45 16 -55 -31 -8
-42 -44 -15 -51 25 -7 24 -20 -2 -28 -11 -4 -18 -12 -16 -18 13 -40 87 6 79
49 -4 23 -3 24 21 13 21 -10 29 -9 41 4 9 9 15 26 15 39 -1 17 -3 18 -6 6 -6
-24 -33 -23 -33 1 0 12 -9 22 -22 26 -13 4 -37 22 -53 40 -24 26 -34 31 -48
24z"/>
<path d="M3738 10855 c-8 -19 -14 -22 -20 -13 -6 10 -13 8 -27 -9 -11 -13 -24
-23 -30 -23 -6 0 -11 -11 -11 -25 0 -14 5 -25 10 -25 6 0 10 9 10 21 0 15 4
19 16 15 9 -3 18 -6 20 -6 2 0 4 -6 4 -14 0 -8 5 -16 11 -18 17 -6 1 -68 -17
-68 -8 0 -14 -4 -14 -9 0 -5 -9 -12 -20 -16 -14 -5 -17 -11 -11 -23 27 -54 32
-72 26 -91 -8 -26 22 -30 32 -3 8 20 70 82 84 82 5 0 9 5 9 10 0 6 9 10 20 10
11 0 20 5 20 10 0 6 9 10 20 10 28 0 15 26 -23 45 -16 8 -40 15 -51 15 -12 0
-30 8 -41 16 -18 14 -18 16 -4 27 9 7 14 18 12 25 -3 6 -1 12 4 12 5 0 7 16 5
35 -5 41 -18 45 -34 10z"/>
<path d="M3995 10708 c-4 -13 -17 -31 -29 -40 -18 -15 -19 -19 -6 -28 13 -8
11 -13 -12 -33 -33 -29 -37 -57 -8 -57 11 0 20 4 20 8 0 5 12 14 26 21 22 10
28 9 39 -5 7 -11 20 -15 33 -12 12 3 23 1 25 -6 2 -6 8 -8 12 -4 10 9 -4 50
-16 43 -5 -4 -9 1 -9 9 0 9 -11 18 -25 22 -27 7 -35 34 -10 34 8 0 15 5 15 10
0 6 9 10 20 10 12 0 20 7 20 16 0 12 -7 15 -24 12 -15 -3 -27 0 -30 8 -8 22
-34 16 -41 -8z"/>
<path d="M7643 10525 c-7 -8 -9 -16 -4 -19 12 -8 20 -56 10 -56 -5 0 -9 -6 -9
-12 -1 -17 -37 -64 -44 -57 -4 3 -1 20 5 37 6 17 9 41 7 53 -3 21 -6 20 -45
-19 -24 -22 -43 -45 -43 -51 0 -6 -17 -11 -37 -11 -50 0 -63 -9 -52 -37 5 -13
13 -23 18 -23 5 0 12 -23 16 -50 l7 -51 19 22 c10 12 19 28 19 36 0 7 5 13 10
13 6 0 10 -5 10 -12 0 -6 3 -9 6 -5 10 10 34 -19 34 -41 0 -15 -5 -18 -25 -14
-15 2 -25 0 -25 -7 0 -6 -11 -11 -25 -11 -14 0 -30 -9 -37 -20 -16 -25 -26
-25 -51 -2 -20 17 -20 16 -14 -15 4 -21 3 -33 -4 -33 -6 0 -9 -6 -6 -14 4 -9
-3 -16 -19 -19 -22 -4 -24 -1 -24 32 0 20 -5 43 -10 51 -8 12 -10 11 -10 -7 0
-13 -4 -23 -9 -23 -5 0 -16 -3 -25 -6 -11 -4 -16 -1 -16 10 0 23 -15 20 -29
-8 -7 -13 -24 -30 -37 -37 -21 -11 -26 -10 -38 6 -13 18 -15 18 -37 -7 -36
-40 -78 -44 -115 -13 -16 14 -31 25 -34 25 -3 0 -6 -20 -6 -45 -2 -49 -21
-105 -37 -105 -5 0 -20 11 -33 25 -25 27 -56 37 -35 11 9 -10 8 -15 -4 -20
-17 -6 -21 -36 -5 -36 6 0 10 -5 10 -11 0 -7 7 -17 15 -23 10 -7 18 -34 22
-68 5 -54 6 -56 44 -67 22 -7 39 -18 39 -25 0 -7 11 -19 25 -26 14 -7 25 -16
25 -20 0 -4 14 -5 30 -2 22 3 30 0 30 -11 0 -10 -11 -17 -32 -19 -47 -5 -44
-22 7 -37 36 -11 45 -18 45 -36 0 -26 14 -40 53 -49 18 -4 27 -13 27 -26 0
-11 5 -20 10 -20 6 0 10 -9 10 -20 0 -11 5 -20 10 -20 6 0 10 -9 10 -20 0 -24
25 -27 34 -4 4 10 13 13 25 9 13 -4 27 1 40 14 23 23 28 16 7 -11 -7 -10 -21
-18 -30 -18 -9 0 -16 -6 -16 -14 0 -11 -12 -14 -44 -13 -24 1 -47 -1 -50 -4
-11 -11 15 -68 28 -63 8 3 16 -2 19 -10 4 -9 2 -16 -4 -16 -7 0 -9 -10 -4 -27
9 -38 23 -53 42 -46 16 6 43 -20 43 -43 0 -6 -13 -17 -30 -24 -16 -7 -27 -16
-24 -21 3 -5 -1 -9 -8 -9 -9 0 -9 -3 2 -10 16 -10 77 -14 68 -4 -4 3 2 14 13
25 10 10 19 33 19 49 0 26 4 30 26 30 23 0 25 -3 19 -28 -7 -34 5 -46 61 -66
42 -14 56 -39 27 -50 -10 -4 -19 -3 -20 1 -2 5 -21 7 -42 5 -21 -2 -42 1 -45
7 -11 17 -43 13 -51 -6 -3 -10 -1 -19 4 -21 20 -7 12 -54 -10 -59 -16 -4 -19
-11 -15 -29 4 -14 2 -24 -4 -24 -5 0 -10 4 -10 10 0 5 -7 7 -15 4 -19 -8 -20
19 -2 38 8 7 12 19 9 26 -2 6 1 12 7 12 6 0 8 6 5 14 -12 32 -73 -19 -74 -61
0 -19 -6 -23 -31 -23 -17 0 -28 -4 -24 -10 3 -5 1 -10 -6 -10 -6 0 -9 -8 -6
-20 3 -11 1 -20 -4 -20 -5 0 -7 -11 -3 -24 4 -16 1 -25 -10 -29 -8 -3 -20 -24
-26 -46 -10 -37 -50 -78 -50 -51 0 20 -26 10 -53 -21 -23 -26 -26 -37 -19 -58
l9 -26 7 28 c6 27 9 28 51 21 39 -5 47 -3 64 17 18 22 19 22 36 5 14 -14 15
-20 6 -26 -11 -6 -11 -9 0 -16 7 -4 14 -3 17 4 9 27 31 10 37 -28 4 -22 11
-40 16 -40 5 0 9 -13 9 -28 0 -26 3 -28 29 -24 25 3 32 -1 45 -27 10 -18 14
-41 10 -56 -8 -32 3 -32 67 1 124 62 285 79 421 45 184 -47 340 -164 491 -366
32 -44 64 -83 69 -86 5 -3 9 -9 9 -13 -1 -3 28 -66 64 -139 36 -72 65 -126 65
-119 0 6 6 12 14 12 15 0 36 28 56 79 12 29 12 35 -2 45 -8 6 -17 17 -19 24
-3 10 -9 9 -24 -3 -14 -12 -16 -18 -7 -21 14 -7 16 -40 2 -49 -5 -3 -18 3 -29
14 -17 17 -19 26 -11 46 5 14 15 25 21 25 7 0 10 3 6 6 -9 9 26 44 45 44 19 0
26 44 8 55 -20 13 1 31 31 27 20 -3 34 0 40 9 6 11 14 11 40 2 l31 -12 -4 34
c-4 31 -1 35 19 35 16 0 27 -9 34 -27 7 -16 13 -23 16 -15 3 7 22 12 43 12 37
0 40 2 50 41 13 47 4 65 -27 55 -15 -5 -18 -13 -15 -36 3 -25 1 -29 -12 -24
-10 4 -16 18 -16 36 0 19 -4 27 -11 22 -6 -3 -15 0 -20 7 -4 8 -4 16 2 20 18
10 -2 38 -33 44 -30 7 -57 -13 -58 -42 0 -15 -28 -17 -49 -4 -18 11 -7 41 15
41 13 0 15 6 11 30 -4 17 -3 30 2 30 4 0 6 14 3 30 -3 22 -11 32 -28 36 -29 7
-31 20 -4 36 23 15 27 38 5 38 -9 0 -15 9 -15 23 l-1 22 -20 -25 c-12 -14 -32
-47 -46 -74 l-25 -49 -32 59 c-40 76 -125 161 -204 202 -34 18 -62 35 -62 37
0 3 26 18 58 34 66 34 142 97 171 145 16 26 19 39 12 64 -7 23 -6 32 4 36 8 3
16 0 19 -7 3 -8 10 -6 20 7 15 18 16 18 27 -8 7 -14 16 -26 21 -26 5 0 7 -4 4
-9 -11 -18 20 -41 59 -44 l40 -2 -1 43 c0 23 3 42 8 42 5 0 7 4 4 9 -3 5 8 14
24 20 24 8 30 7 30 -5 0 -8 13 -17 31 -21 24 -4 29 -10 26 -24 -3 -12 0 -19 9
-19 7 0 16 11 20 25 5 19 0 31 -18 48 -14 13 -30 21 -36 19 -7 -2 -12 2 -12 8
0 7 -7 10 -15 6 -11 -4 -15 2 -15 20 0 22 -2 24 -22 13 -32 -17 -45 -32 -40
-47 2 -6 -2 -12 -8 -12 -7 0 -10 -7 -6 -15 7 -20 -32 -20 -58 0 -19 15 -19 15
2 35 22 20 31 57 12 45 -5 -3 -10 -3 -10 2 0 4 -13 14 -30 21 -28 13 -43 52
-20 52 6 0 10 11 10 24 0 19 -4 23 -20 19 -12 -3 -20 0 -20 6 0 7 -4 10 -9 7
-5 -3 -11 0 -14 8 -4 9 3 16 18 19 14 2 26 1 27 -3 2 -4 18 -5 36 -3 21 4 32
11 32 22 0 13 -16 20 -62 30 -44 9 -63 10 -66 2 -2 -6 -10 -11 -17 -11 -7 0
-16 -6 -18 -12 -4 -10 -6 -10 -6 0 -1 21 18 52 33 52 7 0 18 11 24 25 6 14 18
25 27 25 8 0 15 9 15 20 0 11 -6 20 -12 20 -13 0 -48 -20 -36 -20 4 0 -6 -14
-22 -31 -27 -30 -30 -31 -45 -15 -10 10 -25 14 -36 11 -22 -7 -23 -5 -8 45 13
43 -2 71 -33 62 -20 -5 -24 -32 -7 -49 7 -7 1 -19 -20 -40 -32 -33 -110 -50
-144 -31 -13 7 -27 4 -51 -11 -50 -31 -131 -122 -160 -179 -15 -29 -28 -52
-30 -52 -2 0 -21 30 -42 66 -47 80 -126 154 -207 196 l-60 30 59 28 c69 33
135 87 175 143 36 49 36 61 4 55 -14 -3 -25 -1 -25 3 0 8 15 13 33 10 4 0 7 4
7 10 0 6 7 9 15 5 9 -3 19 3 26 15 8 16 14 18 22 10 16 -16 27 -14 21 4 -4 8
-2 15 4 15 15 0 2 42 -19 63 -22 21 -30 22 -23 2 4 -8 1 -15 -6 -15 -6 0 -8
-4 -5 -10 3 -5 -1 -10 -9 -10 -9 0 -16 -4 -16 -10 0 -5 -7 -10 -15 -10 -8 0
-15 3 -15 6 0 15 33 64 70 103 17 18 14 62 -4 73 -22 15 -46 8 -51 -15 -7 -27
-45 -56 -45 -33 0 7 8 24 19 37 10 13 16 29 14 36 -2 6 5 21 16 32 12 12 21
29 21 39 0 29 29 62 56 62 28 0 33 -24 7 -39 -14 -8 -15 -12 -6 -22 19 -19 48
12 63 67 7 24 17 44 21 44 5 0 9 4 9 9 0 12 -42 2 -55 -14 -21 -25 -95 -28
-95 -4 0 5 26 22 58 37 31 15 59 30 60 35 2 4 10 7 18 7 9 0 12 5 9 10 -4 6 5
10 20 10 23 0 24 2 15 20 -6 11 -18 20 -27 20 -17 0 -63 -44 -63 -61 0 -15
-22 -10 -36 9 -7 9 -14 27 -14 40 0 12 -4 22 -10 22 -5 0 -10 7 -10 15 0 8 7
15 15 15 8 0 15 7 15 15 0 8 -4 15 -10 15 -5 0 -10 6 -10 14 0 12 -20 26 -39
26 -4 0 -7 -12 -6 -27 0 -20 -7 -28 -27 -35 -36 -13 -58 8 -58 56 0 34 -20 61
-28 38 -2 -7 -15 -12 -28 -12 -19 0 -24 5 -24 25 0 28 -26 34 -49 13 -11 -11
-12 -6 -7 30 4 24 2 42 -3 42 -5 0 -11 11 -13 24 -2 20 -5 22 -15 11z m149
-276 c8 -12 34 -30 58 -39 25 -10 46 -25 48 -34 4 -20 -36 -106 -49 -106 -6 0
-7 -4 -4 -10 4 -6 -6 -10 -22 -10 -22 0 -25 2 -13 10 13 9 13 11 0 20 -10 6
-16 6 -18 0 -2 -6 -10 -10 -18 -10 -8 0 -14 -7 -14 -15 0 -8 -9 -19 -20 -25
-21 -11 -24 -6 -21 32 3 27 -20 44 -51 40 -15 -2 -28 -8 -28 -12 0 -14 -32
-21 -46 -9 -18 15 -31 4 -39 -30 -7 -34 -19 -46 -57 -55 -25 -6 -28 -4 -28 18
0 16 7 27 20 31 11 3 20 11 20 16 0 5 9 9 20 9 21 0 28 16 9 22 -14 5 0 38 17
38 7 0 19 -9 27 -20 17 -24 51 -17 44 9 -6 23 17 41 53 41 17 0 29 4 26 9 -4
5 0 12 6 15 7 3 -16 4 -52 1 -36 -3 -60 -2 -54 2 6 4 17 19 23 31 10 18 19 23
38 19 17 -3 33 2 46 14 27 25 61 24 79 -2z"/>
<path d="M3741 10061 c-12 -12 -25 -21 -31 -21 -5 0 -13 -12 -16 -26 -5 -21
-11 -24 -30 -20 -18 5 -24 2 -24 -9 0 -9 -7 -18 -15 -21 -10 -4 -13 -14 -9
-30 4 -17 0 -31 -11 -44 -16 -18 -16 -20 -2 -20 26 0 71 23 93 49 20 23 22 24
54 8 40 -20 46 -17 61 33 13 44 6 63 -14 36 -11 -15 -15 -15 -31 -3 -18 13
-18 18 -6 46 16 40 8 49 -19 22z"/>
<path d="M8115 9860 c-4 -16 -10 -30 -14 -30 -4 0 -13 -18 -20 -40 -9 -30 -9
-45 0 -61 8 -15 8 -24 1 -28 -19 -12 4 -34 27 -26 12 4 21 2 21 -4 0 -6 -4
-11 -10 -11 -5 0 -10 -7 -10 -16 0 -12 -6 -15 -27 -10 -16 5 -29 3 -34 -5 -5
-9 -11 -8 -24 4 -9 10 -23 17 -31 17 -13 0 -12 -5 3 -31 29 -49 126 -134 193
-167 l61 -31 -28 -15 c-26 -14 -27 -15 -5 -16 12 0 22 5 22 10 0 6 11 10 24
10 54 0 69 20 44 59 -11 18 -15 19 -46 5 -44 -18 -62 -18 -62 1 0 8 -4 15 -9
15 -5 0 -12 8 -16 19 -3 10 -21 27 -40 37 -43 23 -43 29 -5 43 28 9 30 8 30
-15 0 -14 4 -23 9 -20 5 3 11 -3 14 -14 3 -13 14 -20 31 -20 21 0 27 7 37 40
7 22 16 40 20 40 4 0 10 14 14 31 l7 31 54 -7 c53 -6 54 -6 54 19 0 18 -4 24
-15 20 -8 -4 -15 -1 -15 6 0 7 -7 10 -16 6 -14 -5 -15 0 -10 39 6 36 4 45 -7
45 -9 0 -17 -15 -21 -42 -5 -28 -10 -38 -15 -29 -7 10 -14 10 -39 -3 -17 -9
-33 -24 -36 -34 -6 -17 -11 -18 -41 -8 -45 14 -54 36 -15 36 20 0 31 6 35 21
7 21 -7 39 -31 39 -6 0 -14 27 -18 60 -8 66 -30 82 -41 30z"/>
<path d="M3707 9816 c-4 -9 -14 -12 -27 -9 -25 7 -70 -15 -70 -34 0 -7 -4 -13
-10 -13 -5 0 -7 -7 -4 -15 4 -9 19 -15 35 -15 28 0 40 -15 18 -22 -9 -3 -9
-10 1 -27 10 -19 9 -26 -3 -38 -12 -13 -18 -11 -42 11 -15 14 -31 26 -36 26
-4 0 -15 3 -25 7 -14 5 -16 3 -11 -11 4 -11 -1 -25 -13 -38 -30 -32 -25 -43
25 -56 25 -7 45 -16 45 -22 0 -5 -8 -28 -17 -50 -16 -37 -21 -40 -65 -46 -33
-5 -48 -11 -48 -21 0 -12 9 -14 46 -8 64 9 91 -10 95 -68 3 -27 -1 -49 -8 -56
-9 -8 -13 -8 -13 -1 0 6 -5 8 -11 5 -6 -4 -9 4 -7 22 2 23 -1 29 -19 31 -19 3
-23 -1 -23 -26 0 -23 5 -31 25 -36 16 -4 25 -13 25 -26 0 -13 7 -20 20 -20 11
0 20 5 20 10 0 6 7 10 15 10 8 0 15 4 15 8 0 5 10 14 23 19 19 9 27 7 45 -15
13 -13 22 -32 20 -40 -4 -21 -28 -28 -28 -8 0 17 -26 21 -48 8 -16 -11 -5 -42
14 -42 8 0 19 -11 24 -25 5 -14 12 -25 16 -25 12 0 46 44 60 78 15 33 28 39
53 23 9 -6 12 -19 8 -39 -8 -38 7 -52 56 -52 36 0 38 -2 30 -22 -20 -57 1
-138 36 -138 18 0 12 -31 -9 -48 -23 -19 -39 -82 -21 -82 6 0 11 6 11 14 0 15
45 66 59 66 5 0 17 -7 25 -16 9 -8 22 -14 29 -11 20 6 34 -17 29 -51 -2 -20 0
-32 7 -32 6 0 11 -9 11 -20 0 -21 16 -28 22 -9 5 14 38 0 38 -17 0 -8 -9 -14
-20 -14 -11 0 -20 -4 -20 -10 0 -5 -7 -10 -15 -10 -8 0 -15 -4 -15 -10 0 -21
-36 -9 -47 17 -11 22 -10 28 4 38 11 8 14 20 9 38 -5 23 -9 25 -44 20 -20 -3
-38 -10 -40 -15 -9 -22 -115 2 -142 33 -13 14 -18 15 -34 3 -26 -18 -13 -44
22 -44 16 0 44 -7 61 -16 23 -11 46 -15 76 -11 l42 6 0 -42 c-1 -23 -6 -45
-11 -49 -11 -7 -1 -12 45 -22 22 -5 28 -13 33 -48 6 -34 3 -45 -10 -55 -10 -7
-15 -15 -12 -18 3 -4 18 5 33 19 16 15 24 26 18 26 -13 0 -10 93 4 108 17 17
53 15 53 -4 0 -8 5 -12 10 -9 6 3 10 2 10 -4 0 -6 -9 -15 -21 -22 l-21 -11 24
-16 c12 -8 25 -17 26 -18 9 -7 -11 -44 -24 -44 -8 0 -14 -7 -14 -15 0 -8 5
-15 11 -15 14 0 39 -25 39 -39 0 -6 5 -11 11 -11 6 0 9 7 5 15 -3 8 -1 15 5
15 6 0 9 7 5 15 -3 9 0 15 9 15 20 0 28 35 13 59 -9 16 -10 23 -1 32 14 14 32
-1 51 -44 10 -24 9 -31 -8 -49 -11 -12 -20 -25 -20 -29 0 -12 34 -21 38 -10 2
6 12 11 22 11 15 0 19 11 25 68 19 190 56 364 120 551 19 58 35 109 35 113 0
4 -11 8 -25 8 -22 0 -24 -3 -18 -30 4 -25 2 -30 -13 -30 -28 0 -42 12 -45 40
-4 25 21 60 41 60 6 0 10 4 10 8 0 5 11 14 25 20 35 16 31 32 -8 32 -21 0 -38
-7 -47 -20 -19 -26 -55 -25 -82 2 l-21 21 -22 -27 c-17 -21 -28 -26 -44 -21
-24 7 -25 15 -10 69 8 31 8 41 -3 47 -8 5 -17 3 -24 -6 -6 -8 -18 -15 -27 -15
-8 0 -17 -6 -20 -12 -3 -9 -11 -4 -25 12 -22 26 -28 50 -13 50 5 0 12 11 15
24 3 14 15 28 26 31 11 3 20 11 20 16 0 5 11 9 23 9 31 0 35 5 29 35 -3 18
-11 25 -28 25 -13 0 -24 -6 -24 -13 0 -14 -33 -57 -43 -57 -3 0 -13 7 -22 16
-12 12 -19 13 -29 5 -17 -14 -26 5 -26 55 0 21 -4 33 -10 29 -5 -3 -10 0 -10
8 0 8 -11 18 -25 21 -30 8 -32 22 -5 31 11 3 20 11 20 16 0 21 -33 59 -51 59
-21 0 -24 -12 -9 -41 7 -13 7 -19 0 -19 -16 0 -47 -35 -42 -48 2 -7 0 -12 -5
-12 -4 0 -9 -23 -10 -50 -1 -37 3 -50 13 -50 8 0 14 6 15 13 0 6 4 3 9 -8 14
-32 12 -35 -20 -35 -32 0 -36 12 -32 86 3 32 -23 66 -36 48 -4 -5 -21 -14 -39
-20 -28 -11 -32 -10 -37 9 -6 23 8 37 38 37 13 0 17 5 13 20 -3 10 -1 20 3 22
14 5 -1 58 -17 58 -10 0 -12 -6 -8 -19 10 -31 -74 -107 -90 -81 -10 17 5 70
21 70 19 0 18 16 -2 24 -24 9 -31 7 -37 -8z"/>
<path d="M4721 9018 c-46 -142 -85 -297 -76 -306 2 -2 13 6 24 17 12 12 34 21
51 21 17 0 30 5 30 10 0 6 9 10 20 10 11 0 20 -6 20 -13 0 -7 14 -25 31 -39
26 -23 33 -26 55 -16 13 6 24 15 24 19 0 4 16 5 35 2 30 -5 35 -3 41 21 7 28
31 34 53 14 10 -11 15 -9 27 7 13 17 13 21 -1 31 -12 9 -13 17 -5 38 14 39 13
43 -20 63 -16 9 -30 21 -30 25 0 4 -8 16 -19 27 -10 10 -20 23 -22 29 -2 5
-18 13 -35 16 -29 6 -33 4 -42 -23 -13 -36 -29 -40 -34 -8 -2 18 -9 22 -35 21
-26 -2 -32 2 -36 25 -3 14 -1 27 4 29 5 2 4 13 -2 24 -8 15 -8 27 1 44 16 28
30 22 30 -12 0 -24 3 -25 33 -19 41 9 47 15 50 51 2 25 -1 29 -25 29 -14 0
-30 3 -34 8 -4 4 -20 7 -35 7 -27 0 -29 -4 -78 -152z"/>
<path d="M6953 8883 c-18 -2 -33 -8 -33 -13 0 -14 -29 -20 -55 -10 -32 12 -85
2 -79 -15 3 -7 15 -10 28 -8 26 5 83 -20 108 -49 9 -10 29 -20 45 -21 24 -2
29 3 37 30 11 35 35 51 47 31 5 -8 10 -3 15 15 3 16 4 30 1 33 -8 8 -77 12
-114 7z"/>
<path d="M6713 8583 c-7 -2 -13 -11 -13 -19 0 -17 -39 -34 -76 -34 -14 0 -22
-4 -19 -10 3 -5 1 -10 -5 -10 -7 0 -9 -8 -5 -20 4 -11 2 -20 -4 -20 -6 0 -8
-7 -5 -15 4 -8 1 -15 -6 -15 -6 0 -10 -6 -8 -12 10 -28 -21 -41 -73 -31 -27 6
-49 6 -49 2 0 -5 -8 -9 -18 -9 -10 0 -23 -5 -28 -10 -14 -14 -93 -18 -98 -5
-2 5 -5 4 -5 -2 -1 -18 -38 -16 -45 2 -3 8 0 15 7 15 22 0 42 34 39 68 -2 22
1 32 11 32 22 0 26 -10 15 -42 -8 -24 -8 -32 3 -39 21 -13 26 -11 53 16 14 14
36 25 50 25 38 0 77 18 103 48 27 32 25 47 -8 47 -13 0 -26 3 -29 6 -3 4 -20
4 -38 2 -23 -4 -34 -12 -38 -29 -6 -23 -6 -23 -27 -4 -32 30 -54 33 -82 12
-13 -11 -21 -22 -18 -26 3 -3 -6 -6 -21 -6 -15 0 -25 -4 -22 -9 8 -13 -22 -22
-49 -15 -12 3 -26 1 -29 -5 -7 -11 -66 5 -66 19 0 12 26 19 49 13 25 -6 30 21
5 31 -44 17 -64 1 -64 -50 0 -52 35 -89 92 -98 38 -6 43 -15 29 -51 -5 -11 -5
-30 0 -42 5 -14 5 -23 -1 -23 -6 0 -10 -7 -10 -15 0 -8 5 -15 10 -15 6 0 10
-5 10 -10 0 -6 11 -21 24 -33 18 -17 23 -30 19 -50 -4 -20 -1 -27 10 -27 19 0
41 62 35 95 -6 29 18 42 25 15 3 -11 0 -21 -7 -23 -18 -6 12 -35 44 -42 37 -8
68 9 76 40 7 27 31 34 40 10 5 -13 10 -13 40 0 39 16 40 12 18 -41 -9 -20 -14
-50 -12 -66 3 -15 1 -28 -4 -28 -4 0 -8 6 -8 14 0 29 -28 25 -39 -5 -5 -16
-15 -29 -21 -29 -6 0 -8 -4 -5 -10 3 -5 -1 -10 -9 -10 -27 0 -19 -37 9 -44 32
-8 33 -39 1 -54 -17 -7 -29 -25 -36 -52 -10 -35 -14 -40 -41 -40 -25 0 -30 -5
-35 -30 -4 -16 -9 -30 -11 -30 -9 0 -63 34 -63 40 0 4 -13 5 -29 2 -19 -2 -28
-9 -25 -17 3 -7 -1 -15 -9 -18 -8 -3 -20 -21 -26 -40 -12 -34 -33 -48 -58 -40
-20 7 -15 59 7 95 25 41 25 47 0 41 -11 -3 -20 -9 -20 -14 0 -5 -8 -9 -19 -9
-13 0 -20 9 -24 33 -2 17 0 35 6 38 5 4 7 11 3 17 -3 6 0 13 6 15 8 3 6 6 -4
6 -10 1 -18 -3 -18 -9 0 -5 -7 -10 -16 -10 -10 0 -14 -6 -11 -14 4 -9 -5 -19
-25 -27 -25 -10 -32 -10 -39 2 -19 31 -25 37 -48 44 -16 5 -21 4 -17 -3 4 -6
4 -23 0 -37 -5 -19 -12 -25 -35 -25 -22 0 -31 -7 -44 -34 -9 -19 -23 -37 -31
-40 -28 -11 -14 -33 25 -40 28 -4 42 -12 46 -27 4 -11 12 -18 18 -16 17 5 38
-19 31 -37 -7 -19 -14 -19 -49 -6 -21 8 -27 7 -32 -8 -4 -9 -11 -20 -16 -24
-15 -10 -36 17 -31 38 3 11 -1 28 -9 38 -12 17 -16 17 -29 5 -8 -7 -13 -21
-11 -30 3 -10 -4 -26 -16 -35 -21 -18 -21 -19 -21 -806 0 -777 0 -788 19 -776
11 7 18 15 15 19 -6 10 33 18 56 12 11 -3 20 -9 20 -14 0 -16 30 -9 50 11 13
13 33 20 59 20 22 0 42 4 46 10 10 17 34 -1 37 -28 2 -19 12 -31 36 -42 24
-10 32 -19 29 -32 -4 -13 1 -18 14 -18 10 0 19 5 19 10 0 15 25 12 59 -7 17
-10 31 -26 31 -35 0 -11 8 -18 19 -18 23 0 71 -44 71 -66 0 -12 6 -15 25 -10
14 4 25 2 25 -4 0 -5 4 -10 9 -10 4 0 11 44 15 98 31 417 124 809 311 1298 40
105 83 233 95 285 68 289 120 420 238 598 59 90 223 268 278 302 31 18 47 49
26 49 -22 0 -63 -28 -69 -47 -6 -16 -12 -20 -22 -13 -12 7 -13 13 -3 35 17 36
0 57 -37 49 -37 -9 -48 -21 -74 -75 -12 -27 -26 -49 -30 -49 -5 0 -5 -5 -1
-11 5 -9 -1 -10 -20 -5 -24 6 -29 3 -39 -24 -15 -39 -43 -37 -39 4 2 15 -2 34
-8 41 -8 10 -7 27 7 66 14 40 15 53 6 56 -7 3 -13 13 -13 24 0 22 -17 24 -43
4 -18 -13 -18 -14 2 -27 14 -9 21 -23 21 -45 0 -29 -3 -33 -25 -33 -14 0 -25
-4 -25 -10 0 -5 -7 -10 -15 -10 -8 0 -15 9 -15 20 0 11 -4 20 -10 20 -5 0 -10
13 -10 28 0 35 -21 82 -37 82 -7 0 -15 -11 -19 -25 -5 -19 -13 -25 -35 -26
-16 -1 -34 -2 -41 -3 -6 -1 -13 5 -15 12 -3 7 4 12 16 12 16 0 21 6 21 25 0
25 -4 28 -27 18z"/>
<path d="M4914 8417 c-11 -13 -19 -28 -16 -35 2 -7 -1 -12 -7 -12 -6 0 -11 4
-11 8 0 5 -22 6 -50 2 -27 -4 -50 -3 -50 0 0 17 -39 50 -53 44 -18 -7 -43 -94
-29 -103 5 -3 11 -15 13 -26 3 -12 14 -21 29 -24 14 -1 27 -7 30 -11 3 -4 21
-10 40 -11 31 -4 35 -1 38 23 3 24 0 26 -29 25 -18 -1 -34 4 -36 11 -3 8 5 12
22 12 15 0 36 9 45 20 23 26 44 18 56 -23 11 -40 36 -46 54 -12 18 33 30 32
30 -4 0 -17 4 -32 10 -36 17 -11 -1 -33 -31 -37 -16 -3 -29 -1 -29 4 0 4 -7 8
-16 8 -8 0 -12 -5 -9 -10 3 -6 -1 -17 -9 -26 -9 -8 -16 -22 -16 -30 0 -16 43
-29 61 -19 6 4 15 1 20 -6 6 -10 9 -7 9 12 0 17 8 29 22 36 20 9 24 6 39 -41
10 -28 14 -52 10 -54 -5 -1 -6 -14 -3 -27 3 -19 -1 -27 -21 -34 -13 -5 -27
-19 -30 -31 -5 -18 0 -24 24 -33 25 -10 29 -17 27 -41 -3 -30 -37 -61 -45 -40
-4 12 -63 6 -63 -7 0 -5 7 -6 15 -3 8 4 15 1 15 -5 0 -6 7 -8 15 -5 8 4 15 1
15 -6 0 -6 5 -8 10 -5 6 3 10 -1 10 -9 0 -24 25 -19 40 8 12 24 36 25 51 3 10
-14 99 47 99 67 0 12 -59 64 -66 58 -4 -4 -4 1 -1 11 16 43 18 65 8 72 -8 4
-1 16 18 34 19 18 27 32 21 40 -4 7 -5 22 -3 32 6 23 37 24 73 4 36 -20 40
-19 40 15 l0 29 50 -6 c36 -4 50 -2 50 6 0 9 -9 11 -29 6 -19 -4 -34 -1 -42 8
-7 7 -23 12 -34 9 -12 -2 -29 3 -37 12 -9 8 -18 13 -21 10 -2 -3 -9 9 -15 25
-11 30 -10 31 19 31 36 0 39 25 4 34 -14 4 -25 13 -25 20 0 26 -30 27 -40 1
-10 -27 -40 -34 -40 -10 0 22 -38 18 -52 -5 -15 -23 -48 -27 -48 -5 0 8 -4 15
-8 15 -5 0 -24 14 -42 30 -40 36 -50 37 -76 7z"/>
<path d="M7610 8254 c-82 -22 -154 -70 -237 -158 -193 -205 -290 -425 -314
-716 -6 -76 -9 -376 -7 -770 4 -636 4 -646 27 -720 72 -239 256 -418 477 -465
338 -72 654 140 746 500 10 38 13 218 13 775 0 399 -4 742 -8 763 -7 30 -12
37 -32 37 -14 0 -25 -5 -25 -10 0 -15 -72 -1 -86 16 -6 8 -14 11 -17 7 -4 -3
-7 -1 -7 6 0 8 -7 11 -15 7 -11 -4 -15 1 -15 18 0 16 7 26 21 29 17 5 21 11
16 33 -5 29 11 54 35 54 16 0 48 50 48 74 0 50 -161 306 -192 306 -16 0 -70
-59 -63 -70 3 -5 2 -10 -4 -10 -5 0 -13 5 -16 10 -3 6 -23 10 -43 10 -20 0
-48 9 -61 19 -21 16 -22 20 -10 41 11 18 11 24 2 27 -7 3 -13 11 -13 19 0 8
-5 14 -12 14 -7 0 -23 12 -35 27 -13 14 -23 21 -23 15 0 -7 -4 -12 -10 -12 -5
0 -10 14 -10 31 0 17 -4 28 -10 24 -5 -3 -10 -1 -10 4 0 14 16 14 38 0 14 -9
26 -7 57 10 l39 20 -45 20 c-63 27 -134 33 -199 15z"/>
<path d="M3834 8244 c-7 -3 -10 -14 -7 -24 3 -11 0 -20 -6 -20 -5 0 -8 -6 -6
-13 3 -7 -5 -19 -17 -27 -12 -8 -32 -25 -45 -37 -29 -28 -43 -29 -43 -3 0 26
-16 26 -30 0 -9 -16 -14 -18 -33 -9 -20 9 -28 6 -55 -17 -34 -30 -42 -47 -17
-38 24 9 65 -5 65 -22 0 -12 7 -14 32 -9 17 4 38 14 46 21 7 8 17 14 22 14 5
0 7 6 5 13 -3 6 7 21 22 32 15 11 35 28 45 38 10 9 24 17 32 17 8 0 19 14 25
30 5 17 15 30 21 30 6 0 8 5 5 10 -4 6 -11 8 -16 5 -5 -4 -9 -1 -9 4 0 11 -16
13 -36 5z"/>
<path d="M4634 8174 c3 -9 6 -22 6 -30 0 -8 6 -14 13 -14 7 0 19 -9 26 -19 11
-15 19 -17 38 -10 33 12 33 12 33 -16 0 -16 -6 -25 -15 -25 -8 0 -15 -4 -15
-10 0 -5 -9 -10 -20 -10 -11 0 -20 -5 -20 -12 0 -6 -9 -3 -20 7 -13 11 -18 25
-14 37 3 10 1 18 -5 18 -7 0 -11 -24 -11 -59 0 -49 4 -62 21 -75 l21 -14 -21
-11 c-12 -7 -21 -21 -21 -31 0 -23 3 -24 47 -8 29 11 35 10 51 -8 13 -14 17
-30 14 -57 -2 -21 0 -37 6 -37 5 0 12 -9 15 -20 5 -20 47 -36 71 -27 23 9 8
49 -15 42 -11 -4 -19 -2 -19 5 0 6 -4 8 -10 5 -5 -3 -10 -1 -10 5 0 8 9 10 25
6 20 -5 27 -2 36 18 6 13 20 27 32 30 15 4 18 10 13 28 -3 13 -6 40 -6 61 0
23 -4 36 -10 32 -5 -3 -10 1 -10 9 0 9 7 16 16 16 8 0 13 4 10 9 -4 5 0 12 6
14 10 4 10 6 1 6 -7 1 -13 8 -13 16 0 8 -3 15 -8 15 -4 0 -22 14 -41 30 -33
31 -36 60 -6 60 8 0 15 7 15 15 0 9 -10 15 -26 15 -14 0 -23 -4 -19 -10 9 -15
-38 -12 -78 5 -50 21 -91 20 -83 -1z"/>
<path d="M3937 7996 c-7 -26 -11 -28 -42 -23 -19 3 -35 2 -35 -4 0 -5 -6 -9
-13 -9 -7 0 -17 -10 -22 -22 -8 -19 -18 -23 -49 -22 -25 1 -44 8 -53 20 -7 10
-13 12 -13 6 0 -7 -4 -12 -10 -12 -21 0 -49 -39 -43 -59 4 -16 0 -21 -13 -22
-11 -1 0 -5 24 -10 37 -7 47 -5 65 11 11 11 24 20 28 20 12 0 18 -55 7 -61 -6
-4 -7 -12 -4 -18 5 -7 -2 -11 -19 -11 -17 0 -24 -4 -19 -11 5 -8 -3 -10 -25
-7 -25 4 -31 1 -31 -14 0 -16 7 -19 48 -16 37 2 48 7 52 23 3 11 12 20 20 20
11 0 14 -10 12 -37 -3 -29 1 -40 17 -50 25 -15 27 -31 6 -52 -14 -14 -12 -17
22 -33 43 -21 77 -19 69 3 -7 19 23 18 63 -2 35 -17 61 -13 61 11 0 10 -10 15
-29 15 -17 0 -33 5 -36 10 -3 6 -17 10 -31 10 -13 0 -24 5 -24 10 0 15 63 41
71 29 13 -21 35 4 52 59 9 31 17 60 17 64 0 11 -79 30 -100 23 -13 -4 -20 0
-25 15 -9 27 -51 27 -60 0 -3 -11 -3 -24 0 -30 3 -5 -1 -10 -9 -10 -9 0 -16
-4 -16 -10 0 -5 -7 -10 -16 -10 -13 0 -15 6 -10 28 4 15 14 32 21 38 8 6 12
14 9 17 -3 3 -3 20 1 37 8 38 40 53 96 44 33 -6 39 -10 39 -30 0 -27 17 -32
26 -9 9 22 35 18 41 -5 3 -11 10 -20 15 -20 6 0 8 9 5 20 -3 10 0 21 7 23 15
5 -11 37 -30 37 -8 0 -14 5 -14 11 0 5 -4 7 -10 4 -5 -3 -10 -2 -10 4 0 6 -14
7 -34 4 -28 -4 -35 -2 -38 13 -3 15 -6 12 -11 -10z"/>
<path d="M8801 7979 c-41 -25 -65 -48 -58 -55 7 -7 -29 -44 -42 -44 -6 0 -5
-13 1 -32 l11 -31 19 22 c18 23 48 23 48 0 0 -6 6 -9 14 -6 15 6 26 -20 26
-65 0 -16 5 -28 10 -28 6 0 10 -9 10 -20 0 -15 7 -20 27 -20 14 0 23 3 20 7
-12 11 27 32 61 33 17 0 32 5 32 10 0 6 6 10 13 10 8 0 13 10 13 22 -1 25 21
33 60 24 14 -4 24 -14 24 -24 0 -21 -34 -44 -55 -36 -10 4 -15 0 -15 -11 0
-14 6 -16 28 -11 15 4 32 14 38 22 6 7 19 14 28 14 9 0 16 8 16 20 0 11 -4 20
-10 20 -5 0 -10 7 -10 15 0 9 -6 18 -14 21 -8 3 -17 27 -21 55 -4 27 -11 49
-16 49 -5 0 -9 11 -9 25 0 31 -13 32 -37 2 -10 -12 -33 -29 -50 -36 -18 -7
-33 -20 -33 -27 0 -16 -28 -18 -49 -5 -9 6 -11 18 -7 35 5 19 3 26 -8 26 -9 0
-13 -6 -10 -14 3 -7 -1 -16 -9 -19 -10 -4 -16 2 -20 18 -2 14 0 26 6 28 5 1 8
8 6 15 -3 8 -14 6 -38 -9z"/>
<path d="M4650 7616 c0 -20 -4 -36 -10 -36 -6 0 -10 -55 -10 -145 0 -124 2
-144 15 -139 8 4 15 1 15 -5 0 -22 29 2 35 30 7 33 35 40 35 9 0 -11 5 -20 10
-20 6 0 10 -13 10 -30 0 -16 5 -30 10 -30 6 0 10 -4 10 -10 0 -12 -48 -60 -61
-60 -6 0 -7 -4 -4 -10 3 -5 1 -10 -5 -10 -7 0 -10 -7 -6 -15 9 -24 -19 -17
-31 8 -20 40 -22 56 -10 60 7 2 8 8 4 13 -4 5 -12 2 -17 -6 -6 -9 -10 -338
-10 -812 0 -716 2 -798 16 -798 8 0 12 5 9 10 -3 6 -1 10 5 10 6 0 16 14 21
30 6 17 17 30 25 30 8 0 14 4 14 10 0 12 69 45 77 36 3 -3 1 -6 -5 -6 -7 0
-12 -5 -12 -11 0 -5 5 -7 10 -4 6 3 10 1 10 -4 0 -6 6 -11 14 -11 15 0 32 53
22 69 -4 5 -1 11 5 13 9 3 9 9 0 25 -17 33 -14 43 14 43 20 0 25 5 25 26 0 14
-4 23 -10 19 -12 -8 -13 15 -1 34 7 11 15 11 46 1 20 -7 50 -10 66 -8 16 3 34
-1 39 -7 13 -16 2 -45 -16 -45 -16 0 -19 -16 -5 -24 5 -3 11 0 14 8 3 7 19 16
36 19 20 4 29 11 26 19 -3 8 7 18 27 26 18 7 34 8 36 4 4 -14 62 -1 62 14 0
17 5 17 31 4 16 -9 19 -7 19 15 0 15 7 28 18 32 9 4 33 23 52 43 38 40 60 42
60 4 0 -17 4 -22 15 -18 13 5 15 94 15 710 0 463 -3 704 -10 704 -5 0 -10 7
-10 15 0 8 5 15 10 15 6 0 10 33 10 80 0 76 -1 80 -19 68 -10 -6 -17 -18 -14
-25 3 -7 1 -13 -4 -13 -5 0 -7 -15 -5 -34 3 -25 -2 -40 -16 -54 -11 -11 -18
-23 -15 -26 14 -13 -55 -5 -73 9 -25 19 -42 19 -60 0 -9 -8 -11 -15 -5 -15 20
0 11 -28 -15 -45 -34 -22 -50 -14 -58 30 -4 20 -12 35 -18 33 -23 -8 -50 32
-43 63 4 18 2 29 -4 29 -6 0 -8 -7 -5 -15 4 -9 0 -15 -10 -15 -18 0 -31 -40
-23 -70 3 -11 1 -20 -4 -20 -15 0 -50 -40 -44 -50 4 -6 0 -10 -8 -10 -8 0 -18
11 -21 25 -6 22 -9 23 -26 13 -17 -11 -22 -10 -35 9 -8 11 -26 24 -40 27 -21
5 -25 12 -25 41 0 19 -4 35 -10 35 -5 0 -16 14 -25 30 -9 17 -22 30 -30 30 -8
0 -15 5 -15 11 0 18 -27 39 -59 45 -30 6 -31 5 -31 -30z"/>
<path d="M8792 7191 c-17 -16 -37 -31 -43 -33 -9 -3 -7 -16 8 -49 27 -57 94
-294 138 -488 65 -281 105 -561 121 -833 l7 -117 28 -10 c16 -5 29 -14 29 -19
0 -12 53 -2 62 12 13 18 9 44 -7 48 -10 2 -12 8 -6 17 8 12 16 13 50 2 24 -7
41 -18 41 -26 0 -24 25 -17 40 10 15 28 30 24 30 -10 0 -18 4 -22 20 -18 12 3
20 0 20 -8 0 -7 3 -9 7 -6 3 4 12 -2 20 -13 15 -21 53 -28 53 -10 0 6 12 10
27 10 32 0 93 21 93 32 0 4 7 8 16 8 11 0 14 5 9 18 -25 61 -27 73 -14 88 18
22 11 82 -12 105 -21 21 -25 39 -8 39 5 0 7 5 4 10 -3 6 5 10 18 10 19 0 24 4
20 18 -7 27 27 59 68 63 39 5 59 -8 59 -40 0 -19 18 -31 47 -31 12 0 14 7 9
35 -4 19 -3 35 1 35 14 -1 39 -24 46 -42 7 -20 57 -25 57 -7 0 7 14 8 39 4 35
-6 40 -4 46 16 5 14 2 25 -6 31 -10 7 -11 11 -2 14 8 4 8 14 -3 39 -8 19 -14
44 -14 55 0 11 -7 20 -15 20 -20 0 -19 19 3 39 20 19 29 119 13 150 -13 24 -1
61 30 92 15 15 18 24 10 32 -8 8 -11 8 -11 0 0 -6 -9 -13 -19 -16 -12 -3 -24
-20 -32 -46 -7 -22 -18 -41 -26 -41 -19 0 -33 42 -20 58 16 21 3 23 -40 6 -28
-11 -40 -21 -36 -30 3 -8 12 -14 19 -14 8 0 18 -8 21 -17 4 -10 10 -20 13 -23
11 -8 20 -74 12 -86 -4 -6 -22 -19 -39 -28 -18 -9 -33 -21 -33 -26 0 -16 -30
-12 -36 5 -3 8 1 22 10 30 20 20 21 44 2 51 -8 3 -35 -3 -60 -14 -44 -20 -45
-20 -51 -1 -8 23 2 40 51 94 15 16 18 27 12 37 -7 10 -11 10 -15 1 -2 -7 -11
-13 -19 -13 -8 0 -17 -7 -20 -15 -7 -18 -24 -19 -58 -3 -19 8 -23 14 -15 24 8
9 5 15 -10 24 -30 16 -26 26 19 46 22 10 42 26 46 36 3 10 10 18 15 18 6 0 7
9 4 20 -4 12 -2 20 5 20 6 0 8 5 5 10 -3 6 1 17 9 26 9 8 16 19 16 23 0 13
-98 23 -118 12 -10 -6 -29 -7 -40 -4 -26 6 -55 -14 -48 -34 8 -20 -4 -42 -20
-36 -8 3 -14 11 -14 18 0 8 -6 17 -12 22 -19 11 -118 21 -118 11 0 -11 -27
-10 -34 0 -3 5 0 25 6 45 11 36 12 37 50 31 25 -4 38 -3 38 5 0 16 25 14 40
-4 19 -23 30 -18 30 13 0 46 -12 102 -22 102 -5 0 -7 -4 -3 -10 7 -12 -25 -50
-43 -50 -10 0 -12 7 -9 21 4 15 -1 22 -19 30 -37 13 -43 12 -56 -16 -6 -14
-16 -25 -23 -25 -20 0 -86 -36 -79 -43 4 -4 0 -7 -9 -7 -10 0 -17 -5 -17 -10
0 -13 -41 -30 -54 -22 -5 2 -1 9 8 14 18 10 22 38 6 38 -6 0 -13 -7 -16 -15
-4 -8 -15 -15 -26 -15 -15 0 -18 4 -13 18 5 9 10 32 13 50 3 23 12 37 28 44
13 6 24 18 24 25 0 8 -4 12 -9 9 -5 -4 -11 -1 -13 5 -5 14 -48 -6 -48 -21 0
-6 -5 -10 -11 -10 -6 0 -17 -7 -25 -15 -9 -8 -23 -15 -32 -15 -12 0 -13 3 -4
12 16 16 15 61 -3 104 -17 41 -11 64 19 64 19 0 21 5 18 44 -3 34 -9 46 -28
56 -13 8 -24 22 -24 32 0 13 -8 18 -29 18 -24 0 -28 3 -24 20 4 14 0 20 -10
20 -8 0 -17 -5 -19 -11 -5 -15 -68 -1 -68 15 0 7 5 17 12 24 26 26 0 20 -30
-7z"/>
<path d="M4305 7160 c-4 -6 -21 -10 -38 -8 -30 3 -32 0 -35 -29 -4 -39 15 -44
24 -8 7 27 12 29 33 16 29 -18 -14 -87 -48 -76 -11 3 -23 0 -28 -7 -5 -8 -29
-13 -57 -14 -33 0 -52 -6 -61 -17 -7 -9 -17 -17 -22 -17 -5 0 -16 -11 -23 -25
-7 -14 -22 -25 -32 -25 -13 0 -18 -8 -18 -29 0 -25 -3 -28 -22 -23 -21 5 -21
5 2 -18 15 -15 25 -19 28 -12 6 19 40 14 51 -7 8 -15 5 -20 -17 -31 -15 -7
-35 -16 -44 -21 -24 -12 -75 -11 -100 2 -17 9 -23 8 -30 -5 -5 -9 -16 -16 -23
-16 -8 0 -15 -4 -15 -10 0 -5 -8 -10 -18 -10 -27 0 -46 -42 -38 -84 6 -31 4
-36 -12 -36 -13 0 -22 -9 -26 -25 -5 -20 -13 -25 -37 -25 -27 0 -31 -3 -26
-21 3 -13 -2 -28 -14 -40 -15 -15 -19 -16 -19 -4 0 8 -7 15 -15 15 -8 0 -15
-4 -15 -10 0 -5 -6 -10 -13 -10 -26 0 -60 -106 -39 -119 6 -4 14 -37 18 -74 6
-64 6 -67 -17 -76 -13 -5 -20 -10 -16 -10 4 -1 -1 -11 -13 -23 -26 -28 -25
-46 4 -73 18 -17 26 -37 31 -81 7 -68 23 -116 36 -108 5 3 9 0 9 -7 0 -7 8 -9
21 -6 18 5 20 2 14 -25 -7 -31 -7 -31 28 -25 44 7 81 -22 94 -72 9 -36 21 -46
66 -56 15 -3 27 -12 27 -19 0 -8 7 -16 15 -20 8 -3 15 -13 15 -21 0 -9 5 -13
10 -10 6 3 10 0 10 -8 0 -8 7 -17 15 -21 8 -3 15 -12 15 -21 0 -8 5 -15 10
-15 6 0 10 -7 10 -15 0 -18 -42 -43 -48 -27 -4 14 -42 3 -42 -13 0 -23 30 -45
61 -45 16 0 29 4 29 9 0 5 20 6 44 4 71 -8 142 34 86 52 -11 3 -24 3 -30 0
-13 -8 -13 -5 1 34 13 35 27 39 55 13 11 -10 24 -17 31 -15 6 2 12 -11 15 -32
2 -19 1 -35 -2 -35 -11 0 -37 -55 -33 -67 3 -8 14 -11 29 -7 16 4 24 2 24 -7
0 -10 3 -10 12 -1 17 17 58 15 65 -4 7 -19 -16 -64 -33 -64 -18 0 -28 -38 -14
-55 19 -23 37 -18 44 11 10 37 32 57 56 49 20 -6 20 -2 20 864 0 526 -4 872
-9 876 -5 3 -13 0 -16 -5z"/>
<path d="M8618 6175 c-5 -237 -7 -268 -31 -356 -96 -362 -367 -632 -711 -706
-108 -23 -290 -21 -401 6 -309 75 -564 314 -668 629 -45 134 -57 234 -57 472
0 112 -4 180 -9 175 -29 -31 -78 -491 -88 -825 -5 -184 -4 -213 8 -204 19 15
59 24 59 13 0 -5 6 -9 13 -9 8 0 19 18 26 40 12 41 27 51 37 26 6 -16 -25 -76
-39 -76 -4 0 -15 -16 -23 -37 -13 -30 -14 -49 -5 -116 11 -83 20 -97 57 -97
25 0 41 -30 22 -41 -10 -6 -10 -11 -1 -20 8 -8 14 -5 23 12 24 44 46 60 73 54
14 -4 28 -2 31 4 11 18 36 12 36 -8 0 -10 -7 -24 -16 -32 -13 -10 -17 -10 -25
2 -6 10 -9 10 -9 2 0 -7 -7 -13 -15 -13 -8 0 -15 -4 -15 -10 0 -5 -6 -10 -14
-10 -11 0 -26 -20 -26 -35 0 -1 18 -5 39 -9 45 -7 55 -17 46 -46 -12 -37 -105
-20 -105 19 0 14 -11 14 -44 1 -42 -16 -31 -37 28 -54 30 -9 65 -16 79 -16 20
0 27 -6 32 -32 l7 -32 19 35 c42 83 124 95 251 36 236 -108 454 -147 646 -113
120 21 193 46 319 108 89 44 109 50 145 45 78 -10 128 -72 128 -158 0 -58 -29
-103 -94 -146 -36 -25 -43 -33 -27 -33 11 0 21 5 21 10 0 6 13 10 29 10 16 0
32 6 34 13 3 6 6 2 6 -10 1 -13 6 -23 11 -23 6 0 10 -9 10 -20 0 -11 4 -20 9
-20 5 0 11 -13 13 -30 3 -16 2 -30 -1 -30 -10 0 -38 -72 -46 -117 -6 -36 -4
-44 14 -55 12 -7 21 -19 21 -26 0 -7 7 -15 15 -18 8 -4 15 -12 15 -20 0 -29
60 -7 79 30 8 14 23 26 33 26 10 0 18 5 18 10 0 6 9 10 20 10 11 0 20 5 20 10
0 6 6 10 13 10 15 0 48 36 40 44 -4 3 -1 6 6 6 8 0 11 7 7 15 -3 8 -1 15 4 15
6 0 10 56 10 140 0 87 -4 140 -10 140 -5 0 -10 -4 -10 -10 0 -19 -29 -10 -49
16 -13 17 -32 27 -53 28 -17 1 -34 8 -36 14 -2 7 -10 19 -17 26 -11 11 -12 20
-2 45 6 17 15 31 20 31 4 0 5 5 2 10 -3 6 -1 10 4 10 6 0 11 7 11 15 0 11 11
15 38 15 34 0 39 4 50 33 15 43 15 47 -3 47 -8 0 -15 -4 -15 -10 0 -5 -7 -10
-16 -10 -8 0 -12 -4 -9 -10 4 -6 -5 -10 -20 -10 -22 0 -25 4 -23 28 2 35 -8
52 -33 52 -21 0 -26 -26 -6 -33 8 -3 6 -7 -7 -12 -11 -5 -21 -3 -27 6 -5 8 -9
10 -9 5 0 -6 -6 -1 -14 9 -12 17 -12 22 3 41 9 13 26 25 39 29 12 3 22 10 22
15 0 6 7 10 15 10 8 0 15 4 15 8 0 5 11 15 25 22 15 8 21 16 15 20 -6 4 -12
20 -13 36 -1 21 2 28 13 25 54 -13 56 -13 36 -1 -27 18 -56 48 -56 60 0 6 10
10 21 10 19 0 21 4 16 34 -6 35 -5 35 40 42 l45 7 -4 261 c-5 271 -19 399 -72
666 l-23 115 -5 -260z"/>
<path d="M9984 6205 c-4 -15 -1 -32 7 -42 11 -12 11 -17 2 -20 -15 -5 -6 -33
16 -51 15 -12 15 -14 -2 -26 -25 -19 -43 -74 -28 -89 6 -6 11 -19 11 -30 0
-14 -5 -17 -21 -12 -14 5 -25 2 -30 -6 -12 -19 -11 -42 1 -34 6 3 20 3 31 0
16 -6 20 -13 17 -36 -6 -40 26 -40 44 1 7 17 17 30 21 30 5 0 5 4 2 10 -3 5 0
16 6 23 11 11 22 11 65 -1 l53 -15 35 37 c20 20 45 36 56 36 11 0 20 5 20 10
0 6 13 10 29 10 16 0 31 5 33 12 6 16 54 2 78 -24 20 -21 20 -21 35 -2 8 10
20 31 27 47 7 15 16 27 21 27 4 0 2 9 -5 20 -7 11 -16 20 -21 20 -4 0 -5 -5
-2 -11 4 -5 4 -21 1 -35 -7 -28 -28 -30 -77 -10 -48 19 -111 28 -103 14 5 -7
-1 -9 -19 -4 -21 5 -29 1 -43 -23 -18 -31 -74 -49 -74 -24 0 7 -4 13 -10 13
-5 0 -10 15 -10 33 -1 33 -22 72 -33 60 -4 -3 -7 6 -7 21 0 15 -4 25 -10 21
-12 -7 -50 25 -50 43 0 7 -4 11 -9 8 -5 -3 -11 1 -15 9 -9 24 -35 17 -42 -10z"/>
<path d="M6318 5804 c-14 -8 -32 -28 -40 -44 -7 -17 -21 -33 -30 -36 -10 -3
-18 -12 -18 -20 0 -8 5 -12 10 -9 6 4 10 -7 10 -25 0 -45 29 -72 68 -64 l32 7
0 87 c0 49 3 95 6 104 7 19 -2 19 -38 0z"/>
<path d="M5871 5421 c-16 -4 -28 -19 -38 -45 -19 -55 -31 -66 -74 -66 -21 0
-40 -3 -43 -8 -5 -9 19 -44 26 -36 3 2 8 -1 11 -9 3 -7 -6 -22 -19 -32 -34
-26 -30 -37 12 -29 23 4 45 2 61 -7 22 -12 27 -11 38 4 7 9 17 17 23 17 6 0
13 6 15 13 4 9 6 9 6 -1 2 -24 70 4 71 29 0 4 -12 10 -26 13 -22 6 -25 11 -22
36 3 22 0 30 -10 30 -9 0 -13 -3 -9 -6 6 -7 -29 -44 -42 -44 -21 0 -21 21 -1
60 11 22 27 40 35 40 9 0 15 10 15 25 0 14 -1 25 -2 24 -2 -1 -14 -4 -27 -8z"/>
<path d="M6144 4997 c-16 -17 3 -68 22 -60 8 3 14 1 14 -5 0 -5 11 -7 25 -4
19 3 25 0 25 -14 0 -11 -9 -25 -20 -32 -28 -17 -25 -40 5 -48 39 -10 31 -34
-10 -34 -19 0 -35 -4 -35 -9 0 -5 -3 -17 -7 -27 -5 -14 -2 -16 22 -10 19 5 31
3 36 -6 7 -10 9 -10 9 0 0 6 6 12 13 12 7 0 18 23 25 54 10 45 10 57 -3 82 -8
16 -15 37 -15 47 0 10 -8 17 -20 17 -11 0 -30 11 -42 25 -24 28 -28 29 -44 12z"/>
<path d="M8103 4541 c-29 -8 -53 -21 -53 -28 0 -7 -4 -13 -10 -13 -5 0 -7 -6
-4 -13 4 -12 -18 -28 -58 -41 -37 -11 -16 -41 35 -50 34 -6 39 -5 44 13 3 12
10 21 15 21 11 0 62 -35 89 -60 51 -48 79 -56 79 -24 0 9 -4 12 -10 9 -5 -3
-10 1 -10 9 0 9 -4 16 -10 16 -5 0 -10 7 -10 15 0 9 -12 21 -26 27 -23 11 -25
16 -22 57 3 26 8 54 12 64 9 20 8 20 -61 -2z"/>
<path d="M7587 4473 c-12 -3 -17 -12 -15 -26 1 -12 -5 -33 -14 -46 -14 -20
-22 -22 -52 -17 -20 4 -36 3 -36 -2 0 -5 -9 -12 -20 -15 -27 -7 -25 -21 5 -35
14 -6 25 -18 25 -27 0 -18 29 -19 50 -2 9 7 26 27 39 45 12 17 29 32 37 32 8
0 14 8 14 18 0 11 13 23 35 31 19 7 35 17 35 22 0 6 -6 9 -12 7 -7 -3 -19 1
-26 9 -13 13 -31 15 -65 6z"/>
<path d="M5041 4359 c-8 -23 -7 -31 4 -35 20 -8 28 -36 13 -46 -20 -12 -38 -9
-38 7 0 8 -7 15 -15 15 -16 0 -107 -41 -115 -52 -3 -4 -22 -3 -43 1 -33 8 -37
7 -37 -10 0 -14 7 -19 25 -19 29 0 34 -24 9 -38 -9 -5 -14 -14 -10 -21 8 -13
42 -15 50 -2 8 12 62 22 81 15 17 -7 20 -46 5 -75 -12 -21 -3 -24 37 -13 18 5
22 11 17 31 -9 36 14 110 37 116 15 4 19 0 19 -21 0 -14 3 -23 6 -19 4 3 13
-1 21 -9 22 -22 57 -14 61 14 2 12 -1 22 -7 22 -6 0 -11 9 -11 20 0 14 7 20
21 20 25 0 47 20 41 38 -2 6 1 12 7 12 6 0 8 7 5 15 -4 8 -12 15 -19 15 -8 0
-16 9 -20 20 -6 19 -8 19 -36 5 -19 -11 -29 -12 -29 -4 0 6 -9 9 -20 6 -11 -3
-20 -2 -20 3 0 4 -6 10 -14 13 -10 4 -18 -5 -25 -24z"/>
<path d="M8434 4231 c4 -5 1 -11 -6 -13 -9 -3 -8 -13 4 -38 15 -31 15 -34 -3
-53 -31 -34 -25 -51 16 -44 20 3 35 2 35 -4 0 -6 4 -8 9 -5 5 3 11 -1 15 -9 3
-8 10 -15 17 -15 6 0 9 7 5 15 -3 8 -2 15 3 15 4 0 14 19 22 42 10 32 11 42 1
46 -7 2 -12 13 -12 24 0 17 -4 19 -26 14 -33 -9 -64 1 -64 20 0 8 -5 14 -11
14 -5 0 -8 -4 -5 -9z"/>
<path d="M7343 4105 c-10 -11 -10 -21 2 -47 8 -18 14 -29 15 -25 0 4 10 -1 22
-13 12 -11 25 -20 30 -20 4 0 8 -6 8 -14 0 -7 9 -16 20 -19 11 -3 25 -19 31
-36 19 -53 84 -38 118 27 6 12 18 22 26 22 8 0 15 6 15 13 0 14 -85 45 -146
52 -40 6 -90 31 -114 57 -13 15 -17 15 -27 3z"/>
<path d="M5016 4034 c-9 -25 -7 -64 4 -64 6 0 10 -9 10 -20 0 -26 64 -46 100
-31 14 5 19 10 13 10 -19 1 -16 31 3 31 8 0 13 4 10 9 -4 5 0 12 6 14 10 4 10
6 1 6 -7 1 -13 6 -13 12 0 21 -26 36 -77 43 -41 5 -52 3 -57 -10z"/>
<path d="M5380 3860 c0 -28 -3 -30 -37 -30 -38 -1 -79 -21 -66 -33 3 -4 1 -7
-5 -7 -5 0 -17 -3 -26 -6 -12 -4 -16 0 -16 15 0 21 -1 21 -31 5 -24 -12 -33
-13 -39 -4 -4 7 -12 10 -18 6 -5 -3 -12 1 -16 9 -7 20 -36 19 -36 0 0 -8 7
-15 15 -15 33 0 13 -54 -26 -74 -28 -14 -39 -56 -15 -56 9 0 16 -6 16 -14 0
-8 7 -16 15 -20 8 -3 15 -1 15 4 0 6 7 10 15 10 9 0 19 8 22 18 4 9 15 24 25
33 10 9 16 23 13 32 -4 8 1 17 9 20 9 4 16 3 16 -2 0 -4 11 -13 24 -21 29 -15
24 -40 -8 -40 -21 0 -46 -17 -46 -31 0 -9 64 -39 84 -39 9 0 16 6 16 14 0 8 7
17 16 20 22 9 24 8 24 -9 0 -8 -6 -15 -14 -15 -37 0 -45 -60 -11 -94 20 -20
19 -26 -5 -26 -22 0 -35 -35 -28 -75 3 -14 1 -25 -3 -25 -5 0 -9 6 -9 14 0 9
-7 12 -19 9 -11 -3 -21 2 -24 11 -4 9 -2 16 4 16 6 0 9 7 5 15 -3 8 -1 15 3
15 5 0 17 20 26 44 16 42 16 45 -3 64 -29 29 -78 19 -91 -19 -5 -16 -17 -29
-25 -29 -8 0 -16 -5 -18 -11 -3 -8 -9 -6 -20 4 -8 9 -18 13 -22 10 -3 -4 -6
-1 -6 5 0 7 -13 25 -30 40 -33 32 -53 113 -31 126 6 4 11 14 11 23 0 11 -7 14
-25 11 -14 -3 -28 -1 -31 4 -3 5 -14 6 -25 3 -11 -4 -19 -2 -19 5 0 8 -6 8
-20 0 -12 -6 -20 -21 -20 -35 0 -19 -5 -25 -21 -25 -27 0 -59 18 -59 33 0 7
-7 21 -15 32 -14 17 -17 18 -31 3 -13 -13 -14 -19 -2 -38 10 -18 10 -24 0 -27
-7 -3 -19 -11 -26 -19 -8 -8 -19 -14 -25 -14 -6 0 -13 -11 -17 -25 -4 -16 -13
-25 -25 -25 -18 0 -19 -10 -19 -173 0 -95 5 -200 11 -232 22 -122 97 -219 220
-285 60 -33 70 -35 154 -35 80 0 97 3 157 32 139 66 216 171 221 301 1 39 5
72 8 72 3 0 6 42 8 93 2 91 2 94 -24 111 -20 13 -25 24 -23 51 1 18 -4 40 -11
49 -11 14 -11 16 4 16 10 0 16 3 12 6 -7 8 17 34 32 34 6 0 10 44 10 110 1 91
-2 110 -14 110 -10 0 -15 -10 -15 -30z m-269 -370 c5 0 9 -6 9 -13 0 -22 33
-53 53 -49 18 4 24 -13 7 -23 -15 -9 -12 -34 5 -51 13 -14 18 -12 39 10 29 32
38 33 36 4 -3 -38 -1 -50 10 -43 6 4 10 -5 10 -19 0 -19 -5 -26 -20 -26 -13 0
-20 7 -20 20 0 23 -29 27 -61 8 -17 -11 -22 -10 -35 6 -8 11 -14 37 -14 57 0
34 -4 40 -35 55 -39 18 -44 37 -18 74 15 21 18 22 21 8 2 -10 8 -18 13 -18z
m25 -325 c4 -8 10 -12 15 -9 5 3 9 -2 9 -10 0 -11 10 -16 31 -16 27 0 29 -2
15 -15 -12 -12 -14 -27 -9 -61 6 -48 -10 -94 -34 -94 -7 0 -13 -4 -13 -9 0 -5
-9 -7 -21 -4 -17 5 -20 11 -15 35 5 23 1 34 -17 50 l-22 19 27 -5 c20 -5 33
-1 48 14 l20 20 -20 20 c-11 11 -26 20 -33 20 -17 0 -44 33 -39 48 5 17 52 15
58 -3z"/>
<path d="M5775 3608 c-2 -7 -6 -37 -8 -66 -3 -40 -11 -61 -31 -84 -24 -28 -26
-36 -26 -133 0 -57 -7 -135 -15 -173 -17 -81 -7 -142 24 -142 12 0 20 -9 23
-25 5 -25 -5 -34 -17 -15 -11 17 -35 11 -35 -10 0 -12 -5 -17 -14 -14 -7 3
-16 -2 -19 -10 -4 -9 -2 -16 3 -16 6 0 10 -7 10 -15 0 -9 7 -18 15 -21 8 -4
15 -15 15 -25 0 -11 11 -24 25 -31 32 -14 32 -28 1 -28 -17 0 -26 -7 -30 -25
-7 -29 -27 -32 -50 -9 -9 8 -16 11 -16 5 0 -6 -9 -11 -20 -11 -15 0 -20 -7
-20 -27 0 -22 -2 -25 -10 -13 -5 8 -10 11 -10 5 0 -5 -5 -3 -10 5 -15 23 -44
-1 -48 -39 -3 -28 -6 -31 -25 -25 -12 3 -26 10 -30 14 -10 9 27 50 44 50 5 0
7 5 4 10 -3 6 0 10 7 10 8 0 21 9 31 20 9 11 12 20 7 20 -6 0 -10 7 -10 16 0
11 -20 -2 -58 -37 -150 -138 -354 -205 -544 -179 -45 6 -87 14 -92 17 -8 6 -7
-3 10 -64 5 -20 2 -23 -20 -23 -31 0 -33 -13 -6 -42 18 -19 18 -23 5 -31 -23
-12 -18 -45 10 -63 14 -9 25 -22 25 -29 0 -17 40 -31 49 -17 4 6 12 7 19 3 14
-9 6 -61 -9 -61 -5 0 -6 -7 -3 -15 4 -8 1 -15 -5 -15 -6 0 -8 -7 -5 -15 4 -8
2 -15 -3 -15 -15 0 -1 -73 18 -94 11 -11 19 -27 19 -36 0 -8 10 -20 22 -25 29
-13 35 -35 9 -35 -12 0 -21 -6 -21 -15 0 -8 7 -15 15 -15 20 0 19 -27 -1 -38
-15 -8 -15 -11 5 -31 11 -11 21 -27 21 -33 0 -9 3 -10 8 -2 7 11 46 34 57 34
4 0 5 -15 3 -32 -3 -31 -1 -33 40 -42 35 -8 42 -14 42 -33 0 -18 6 -23 26 -23
32 0 54 -21 54 -53 0 -30 20 -37 87 -29 33 3 54 12 68 29 20 22 55 32 55 15 0
-5 -7 -17 -15 -28 -17 -22 -20 -74 -4 -74 14 0 2 -52 -14 -62 -8 -5 -8 -8 -1
-8 5 0 20 13 32 29 25 34 61 43 82 20 8 -9 32 -19 54 -22 21 -3 41 -8 43 -11
11 -11 -8 -36 -27 -36 -11 0 -20 -6 -20 -14 0 -16 63 -31 68 -16 6 16 26 12
44 -9 17 -20 29 -91 16 -91 -4 0 -8 -5 -8 -12 0 -6 3 -9 6 -5 4 3 13 -1 22 -9
14 -14 16 -14 24 0 5 9 16 16 23 16 8 0 15 5 15 11 0 20 44 4 57 -20 l12 -24
8 33 c8 30 11 32 23 18 17 -18 50 -12 50 9 0 10 -6 12 -20 8 -12 -4 -20 -2
-20 5 0 6 -4 9 -9 6 -14 -9 -19 16 -8 45 6 14 26 35 46 45 20 10 39 24 44 31
14 22 37 4 27 -21 -9 -25 7 -62 17 -38 7 19 41 14 53 -8 7 -13 7 -20 1 -20 -6
0 -8 -13 -4 -30 5 -26 3 -30 -16 -30 -29 0 -28 -44 1 -99 21 -39 22 -40 32
-18 18 34 51 34 67 -1 16 -37 54 -33 46 4 -4 21 -1 23 19 18 29 -7 31 5 4 34
-11 12 -20 28 -20 37 0 23 -52 19 -68 -5 -7 -11 -17 -20 -22 -20 -14 0 -12 26
3 42 8 7 12 19 9 26 -2 6 1 12 7 12 6 0 8 7 5 15 -9 23 52 19 75 -4 11 -11 22
-17 25 -14 3 4 6 -1 6 -11 0 -9 7 -19 15 -22 8 -4 15 -15 15 -25 0 -11 4 -27
9 -37 5 -9 12 -25 15 -34 3 -11 15 -18 31 -18 28 0 29 -3 15 -30 -8 -15 -5
-19 15 -24 24 -6 36 -36 15 -36 -5 0 -7 -7 -3 -16 5 -13 14 -15 44 -10 31 5
39 3 39 -9 0 -8 5 -15 11 -15 6 0 9 -9 6 -20 -4 -15 0 -20 13 -20 19 0 30 -19
30 -54 0 -14 10 -28 24 -35 13 -7 30 -24 37 -37 11 -21 10 -27 -9 -44 -12 -11
-28 -17 -36 -14 -11 4 -16 0 -16 -11 0 -9 5 -13 10 -10 6 3 10 2 10 -3 0 -16
37 -21 96 -13 l55 8 15 -35 c7 -19 14 -48 14 -64 0 -25 3 -28 20 -23 35 11 56
-4 74 -54 23 -65 46 -75 46 -21 0 33 -7 47 -36 75 -34 34 -38 55 -8 55 8 0 14
-5 14 -10 0 -7 6 -7 20 0 11 6 20 15 20 20 0 12 -40 54 -40 43 0 -13 -20 21
-20 35 0 6 9 12 19 12 37 0 51 -12 51 -42 0 -38 20 -33 40 9 18 38 37 46 115
47 52 1 61 4 71 25 l12 23 22 -22 c12 -12 35 -26 50 -32 25 -8 33 -6 55 16 21
21 30 24 51 16 26 -10 29 -7 36 35 3 14 10 19 27 17 34 -3 53 25 46 73 -3 21
-11 45 -17 52 -14 17 -2 63 17 63 8 0 15 4 15 9 0 5 3 17 7 27 3 9 2 15 -3 12
-5 -3 -17 3 -26 14 -10 10 -13 18 -7 18 5 0 7 4 4 10 -3 6 5 10 18 10 21 0 24
4 20 21 -4 14 0 27 11 35 10 7 15 17 11 23 -3 6 1 11 9 11 9 0 16 5 16 10 0 6
14 10 31 10 17 0 28 4 24 10 -3 6 -1 10 5 10 7 0 9 7 6 16 -5 13 -1 15 23 12
33 -5 41 5 41 49 0 14 8 32 17 39 26 18 8 29 -23 15 -43 -19 -41 -4 4 40 37
35 46 39 76 34 32 -6 33 -6 39 31 5 28 2 41 -11 51 -15 12 -14 13 11 7 17 -4
27 -2 27 5 0 6 7 11 15 11 8 0 15 4 15 9 0 5 7 12 16 15 17 6 84 -52 84 -74 0
-6 5 -8 10 -5 6 3 10 2 10 -3 0 -20 51 -23 69 -5 27 30 63 47 71 34 3 -7 14
-9 23 -5 9 3 17 2 17 -3 0 -9 36 -8 86 2 14 3 23 15 27 32 4 20 15 32 38 40
34 13 52 4 43 -22 -10 -25 15 -63 45 -70 24 -5 35 -2 54 17 22 22 27 55 6 42
-5 -3 -9 1 -9 10 0 8 -5 16 -12 18 -6 2 -9 12 -5 21 7 18 49 32 72 23 19 -7
20 -36 0 -36 -8 0 -15 -4 -15 -10 0 -13 17 -13 25 0 3 5 13 10 21 10 16 0 19
-36 4 -45 -9 -6 -15 -65 -6 -65 2 0 27 -4 56 -10 47 -9 54 -8 70 10 15 17 23
18 75 10 45 -7 61 -7 67 3 12 19 9 34 -8 41 -10 4 -14 14 -11 26 6 23 5 23
-82 10 -73 -10 -101 -1 -101 33 0 12 11 34 23 49 22 25 28 27 73 22 46 -6 51
-5 62 20 15 33 29 33 57 0 15 -17 29 -25 39 -21 22 9 20 22 -9 51 -33 33 -32
40 8 33 23 -4 40 0 58 14 23 19 24 20 5 34 -11 8 -27 15 -37 15 -9 0 -19 9
-22 20 -3 13 0 20 9 20 8 0 14 5 14 10 0 6 14 10 31 10 17 0 28 4 24 10 -3 6
-1 10 5 10 6 0 16 13 21 29 6 16 21 37 35 46 27 17 35 61 9 51 -8 -3 -22 -9
-30 -12 -11 -5 -15 1 -15 20 0 14 4 26 10 26 14 0 58 47 65 70 3 11 13 20 21
20 8 0 14 6 14 14 0 20 57 31 75 16 8 -7 15 -19 15 -26 0 -8 9 -14 20 -14 15
0 23 12 36 56 9 31 14 67 11 80 -2 13 0 24 5 24 5 0 6 9 3 20 -4 11 -2 20 4
20 20 0 11 20 -13 30 -13 5 -26 14 -28 21 -3 9 -10 7 -24 -7 -12 -12 -29 -18
-46 -16 -22 3 -29 -2 -34 -22 -4 -17 -13 -26 -26 -26 -14 0 -18 5 -14 15 21
53 22 50 -4 32 -34 -24 -116 -22 -157 3 -60 36 -68 64 -71 267 -3 152 -6 181
-18 176 -8 -3 -14 -1 -14 5 0 6 -8 8 -18 5 -13 -3 -20 4 -27 29 -8 27 -15 33
-37 33 -16 -1 -28 3 -28 7 0 5 -10 13 -22 18 -19 7 -19 9 -5 9 10 1 15 6 12
11 -3 6 -2 10 3 10 18 0 22 31 7 46 -8 9 -15 11 -15 5 0 -6 -7 -11 -15 -11 -8
0 -15 -4 -15 -9 0 -9 -66 2 -77 13 -3 2 4 18 16 34 31 45 28 63 -11 60 -29 -3
-33 0 -32 22 1 13 -5 30 -12 38 -8 8 -14 9 -14 3 0 -6 -7 -11 -15 -11 -8 0
-15 -5 -15 -11 0 -8 -12 -10 -35 -6 -21 4 -35 2 -35 -5 0 -6 -13 -8 -34 -4
-25 5 -35 3 -40 -9 -3 -9 0 -15 9 -15 19 0 19 -34 1 -50 -8 -6 -16 -28 -18
-48 -2 -29 -8 -38 -30 -46 -34 -12 -108 8 -108 29 0 16 -43 31 -59 20 -6 -3
-11 -2 -11 4 0 6 -12 8 -30 5 -34 -7 -39 8 -15 40 17 22 20 86 5 86 -15 0 -12
33 5 56 22 29 18 42 -15 49 -30 7 -43 35 -15 35 8 0 15 6 15 13 0 18 -43 54
-58 49 -7 -2 -12 1 -12 8 0 6 -4 8 -10 5 -5 -3 -10 -15 -10 -26 0 -10 -7 -19
-15 -19 -8 0 -15 -4 -15 -10 0 -5 -11 -10 -24 -10 -18 0 -27 -8 -35 -30 -5
-16 -15 -30 -20 -30 -6 0 -11 -5 -11 -10 0 -6 11 -8 25 -4 15 4 25 2 25 -5 0
-6 7 -8 15 -5 10 4 15 0 15 -15 0 -12 4 -21 8 -21 4 0 13 -13 19 -30 7 -20 8
-30 1 -30 -6 0 -8 -7 -4 -15 3 -8 1 -15 -4 -15 -6 0 -10 4 -10 10 0 5 -7 7
-15 4 -8 -4 -15 -1 -15 5 0 17 -27 2 -45 -26 -16 -23 -15 -25 9 -48 17 -16 26
-35 26 -55 0 -16 5 -30 10 -30 6 0 10 -7 10 -15 0 -9 11 -21 25 -27 14 -6 25
-15 25 -19 0 -4 7 -15 16 -23 17 -17 11 -36 -12 -36 -8 0 -14 9 -14 19 0 27
-21 31 -45 9 -17 -16 -18 -20 -5 -28 8 -5 21 -10 28 -10 16 0 42 -24 42 -38 0
-11 -65 -23 -86 -15 -8 3 -14 11 -14 19 0 26 -45 14 -87 -22 -24 -20 -43 -42
-43 -48 0 -7 13 -22 30 -34 l30 -22 6 26 c6 24 8 25 17 8 7 -13 7 -19 -1 -22
-7 -2 -10 -8 -6 -13 3 -5 -2 -17 -11 -26 -14 -14 -18 -14 -26 -2 -5 8 -9 17
-9 22 0 4 -7 7 -16 7 -8 0 -13 -4 -10 -9 3 -5 -15 -11 -42 -13 -26 -2 -49 0
-50 4 -2 5 -8 6 -13 2 -17 -10 -9 8 16 38 14 16 25 39 25 50 0 17 -4 20 -30
15 -17 -4 -30 -2 -30 4 0 6 -7 6 -20 -1 -21 -11 -28 -40 -10 -40 18 0 29 -44
14 -55 -7 -5 -16 -26 -19 -45 -5 -30 -2 -40 21 -63 15 -15 31 -27 35 -27 5 0
9 -6 9 -14 0 -8 7 -17 16 -20 22 -9 24 -8 24 9 0 8 5 15 11 15 5 0 7 5 4 10
-3 6 -2 10 4 10 5 0 16 3 25 6 12 5 16 0 16 -20 0 -14 5 -26 11 -26 7 0 9 -11
5 -31 -5 -25 -2 -32 14 -36 11 -3 18 -9 15 -13 -3 -5 6 -17 20 -28 26 -21 34
-52 12 -52 -11 0 -42 -39 -35 -44 56 -41 83 -46 91 -16 5 20 33 37 43 27 3 -3
0 -22 -8 -43 -10 -29 -10 -38 0 -41 14 -5 16 -41 3 -61 -7 -11 -11 -11 -23 1
-12 13 -19 13 -47 1 -45 -19 -91 -18 -91 1 0 8 7 15 15 15 20 0 19 36 -1 44
-26 10 -32 7 -43 -24 -5 -16 -15 -30 -21 -30 -15 0 -40 -25 -40 -40 0 -6 11
-15 25 -20 26 -10 33 -26 14 -32 -15 -5 0 -38 18 -38 8 0 11 5 8 10 -3 6 1 10
9 10 9 0 16 5 16 10 0 6 7 10 15 10 8 0 15 -7 15 -15 0 -8 -7 -15 -16 -15 -8
0 -12 -4 -9 -10 3 -5 3 -10 -2 -10 -13 0 -36 -59 -30 -80 3 -10 0 -21 -7 -23
-8 -3 -7 -10 2 -27 8 -12 11 -34 7 -50 -5 -25 -3 -29 23 -35 20 -4 33 -16 43
-38 8 -18 17 -30 20 -27 3 3 13 -3 22 -12 14 -14 15 -21 6 -42 -15 -32 -36
-37 -88 -16 -47 18 -72 47 -51 60 9 6 7 13 -9 29 -11 11 -21 28 -21 36 0 8 -4
15 -9 15 -6 0 -11 19 -13 42 -3 39 -7 45 -43 63 -22 10 -61 19 -87 20 -27 0
-48 4 -48 8 0 5 -4 6 -9 3 -5 -4 -11 -1 -13 6 -8 22 -41 -1 -36 -25 3 -13 -2
-29 -9 -36 -26 -24 -11 -46 30 -45 20 1 37 -2 37 -7 0 -5 7 -6 15 -3 8 4 15 1
15 -5 0 -7 9 -9 25 -5 15 4 25 2 25 -5 0 -6 9 -20 21 -32 13 -13 18 -27 14
-40 -7 -20 -35 -27 -35 -8 0 42 -79 53 -100 14 -17 -31 -28 -32 -39 -2 -5 12
-19 30 -30 40 -20 16 -24 16 -52 2 -39 -21 -58 -4 -51 45 l5 35 -20 -22 c-12
-13 -32 -23 -47 -23 -14 0 -26 -5 -26 -10 0 -6 -24 -9 -59 -8 -71 3 -94 -11
-67 -41 10 -11 16 -30 14 -43 -4 -30 -34 -36 -43 -8 -3 11 -11 18 -16 15 -5
-4 -9 8 -9 24 0 17 -4 31 -10 31 -5 0 -10 6 -10 13 0 9 -10 12 -31 9 -21 -3
-29 -9 -25 -18 4 -11 -3 -13 -36 -8 -30 5 -39 4 -34 -4 4 -7 2 -12 -4 -12 -6
0 -8 -10 -4 -25 9 -37 -3 -76 -21 -69 -8 4 -15 12 -15 20 0 8 -4 14 -10 14 -5
0 -10 7 -10 15 0 8 6 15 13 15 16 0 43 47 33 57 -4 4 -21 2 -38 -5 -44 -16
-52 -6 -19 26 23 21 27 32 20 50 -8 22 -39 32 -39 12 0 -5 -9 -10 -19 -10 -11
0 -23 -9 -26 -21 -4 -11 -20 -25 -36 -31 -16 -5 -26 -14 -23 -19 3 -5 -6 -9
-20 -9 -18 0 -24 -4 -20 -15 4 -9 0 -15 -10 -15 -9 0 -16 -4 -16 -10 0 -5 -7
-10 -15 -10 -18 0 -20 29 -2 35 6 3 13 26 15 52 2 31 9 52 22 63 25 21 25 36
3 44 -10 3 -24 9 -30 12 -8 3 -13 -1 -13 -10 0 -9 -6 -16 -14 -16 -8 0 -17 -6
-19 -12 -4 -8 -6 -7 -6 3 -1 23 -25 30 -47 14 -13 -9 -26 -10 -43 -4 -16 6
-28 6 -35 -1 -5 -5 -25 -10 -43 -10 -26 0 -33 4 -33 19 0 19 -15 27 -96 51
-38 11 -43 11 -63 -9 -25 -25 -71 -29 -71 -6 0 8 -4 15 -10 15 -20 0 -9 21 15
30 18 7 25 17 25 35 0 15 -4 24 -10 20 -5 -3 -10 -1 -10 5 0 7 -5 10 -12 8
-18 -6 -48 29 -48 57 0 20 5 25 25 25 20 0 25 5 25 25 0 33 -41 59 -80 51
l-30 -6 6 43 c9 67 12 71 30 53 12 -13 18 -13 28 -3 8 6 11 18 9 24 -3 7 2 13
11 13 9 0 16 -4 16 -10 0 -5 7 -7 15 -4 18 7 21 -27 4 -54 -10 -15 -7 -24 11
-45 13 -15 26 -27 30 -27 12 0 32 118 25 148 -5 23 -17 36 -49 51 -57 28 -72
26 -84 -9 -8 -23 -15 -28 -29 -23 -10 4 -21 11 -24 16 -7 10 25 47 41 47 16 0
47 35 42 48 -2 7 1 12 7 12 6 0 8 6 5 14 -4 10 5 16 25 21 17 4 31 11 31 16 0
16 -22 53 -42 70 -10 9 -18 20 -18 25 -1 5 -9 19 -19 31 -27 32 -72 18 -87
-27 -15 -44 -27 -47 -41 -11 -9 24 -8 31 4 35 9 4 13 16 11 33 -2 21 -9 29
-27 31 -21 3 -23 1 -17 -22 6 -24 4 -26 -28 -26 -35 0 -63 21 -51 40 3 5 12
10 19 10 8 0 13 17 14 53 2 92 7 137 14 137 18 0 38 -14 38 -27 0 -12 3 -12
17 2 9 9 27 21 40 26 29 11 30 31 1 27 -11 -2 -23 3 -25 10 -3 6 2 12 11 12
24 0 17 56 -10 88 -1 2 -18 -4 -38 -13 -40 -19 -69 -17 -74 6 -2 11 7 18 30
23 26 5 30 9 18 16 -8 5 -22 10 -31 10 -21 0 -33 25 -34 72 0 34 3 37 33 43
26 5 32 11 32 30 0 14 -4 25 -10 25 -5 0 -10 7 -10 15 0 17 25 20 35 5 9 -14
25 -12 31 4 6 15 -28 56 -47 56 -6 0 -8 9 -4 20 5 14 2 20 -10 20 -8 0 -18 -6
-20 -12z"/>
<path d="M7546 3531 c-9 -10 -18 -31 -19 -47 -1 -16 -8 -34 -16 -40 -11 -9
-11 -13 -2 -19 7 -4 18 -2 24 4 22 22 40 13 34 -18 -5 -25 -2 -30 18 -35 14
-4 25 -14 26 -24 0 -11 2 -12 6 -4 3 7 0 19 -7 27 -9 11 -9 18 4 31 19 18 74
11 83 -12 10 -26 35 6 29 37 -3 17 0 30 7 33 8 3 1 14 -18 31 -25 22 -37 25
-72 22 -30 -3 -43 -1 -43 8 0 7 -7 16 -16 19 -21 8 -19 9 -38 -13z"/>
<path d="M6853 3272 c-13 -15 -23 -30 -23 -34 0 -15 -30 -8 -30 7 0 20 -24 19
-41 -1 -11 -14 -11 -18 4 -28 14 -11 15 -21 7 -69 -9 -58 3 -117 25 -117 5 1
19 12 30 26 11 14 26 31 33 37 7 7 23 23 36 36 l24 23 21 -21 c25 -25 47 -27
55 -6 3 8 13 15 21 15 9 0 14 4 11 9 -3 5 8 11 24 13 17 3 30 1 30 -4 0 -4 7
-8 16 -8 13 0 15 7 9 39 -5 30 -3 41 10 48 21 12 9 43 -16 43 -10 0 -19 -7
-19 -15 0 -9 -9 -15 -25 -15 -14 0 -25 -4 -25 -10 0 -5 -9 -10 -20 -10 -11 0
-20 -4 -20 -10 0 -5 -11 -10 -24 -10 -14 0 -28 -5 -31 -10 -5 -8 -11 -7 -21 1
-10 8 -12 23 -7 52 5 31 3 38 -7 32 -7 -4 -15 -3 -19 3 -4 6 -15 0 -28 -16z"/>
<path d="M8370 1390 c0 -5 9 -19 21 -31 16 -16 20 -29 15 -50 -5 -27 -4 -29
28 -29 43 0 55 -25 24 -51 -13 -10 -26 -18 -30 -19 -4 0 -5 -7 -2 -15 4 -9 0
-15 -10 -15 -9 0 -16 -4 -16 -10 0 -5 -9 -10 -20 -10 -28 0 -56 -28 -75 -73
-8 -20 -20 -37 -26 -37 -5 0 -8 -4 -5 -9 4 -5 1 -11 -6 -13 -8 -3 -3 -14 13
-30 l26 -26 13 49 c8 27 19 49 26 49 7 0 10 8 7 18 -5 21 28 62 51 62 9 0 16
-8 16 -20 0 -11 7 -20 16 -20 12 0 14 8 8 45 -5 36 -3 46 10 51 9 3 13 10 10
15 -3 5 2 9 10 9 28 0 20 55 -9 68 -26 12 -34 41 -12 43 6 0 -3 5 -22 10 -19
6 -35 18 -38 30 -5 20 -23 27 -23 9z"/>
<path d="M7580 1197 c-21 -16 -14 -50 9 -44 25 6 51 -11 45 -28 -4 -8 -10 -15
-15 -15 -5 0 -25 -16 -44 -35 -35 -34 -46 -74 -22 -76 14 -1 -22 -17 -40 -18
-7 -1 -13 5 -13 13 0 7 -7 19 -15 26 -21 18 -19 38 6 45 13 5 18 12 14 23 -3
8 -2 18 3 21 6 4 6 16 1 29 -6 17 -16 22 -44 22 -20 0 -36 -5 -37 -12 -3 -25
-8 -64 -14 -98 -5 -32 -3 -37 30 -54 20 -11 36 -26 36 -35 0 -24 -15 -43 -31
-40 -23 5 -56 -19 -63 -46 -5 -21 -12 -25 -40 -25 -19 0 -36 -5 -38 -12 -3 -8
-24 -5 -75 11 -39 13 -79 21 -89 19 -12 -2 -27 7 -40 24 -11 15 -24 25 -28 21
-4 -4 -11 -1 -16 7 -8 12 -16 8 -43 -22 -19 -21 -40 -38 -49 -38 -17 0 -53
-78 -62 -136 -5 -33 -2 -43 10 -48 8 -3 12 -11 8 -17 -4 -8 -9 -8 -13 -1 -4 7
-26 8 -64 3 -31 -4 -57 -4 -57 1 0 4 6 8 13 9 6 0 0 5 -15 11 -16 5 -28 14
-28 19 0 6 -5 7 -10 4 -6 -3 -17 1 -26 9 -21 22 -31 20 -38 -6 -9 -34 -8 -35
24 -42 21 -4 30 -11 30 -26 0 -11 5 -20 10 -20 6 0 10 5 10 10 0 6 4 10 10 10
5 0 7 -13 4 -30 -4 -19 -2 -30 5 -30 6 0 11 7 11 15 0 17 16 20 25 5 9 -14 45
-13 45 1 0 8 17 10 55 5 35 -4 55 -2 55 4 0 5 8 10 18 10 10 0 25 11 32 25 7
14 17 25 21 25 4 0 5 9 2 20 -5 19 -7 19 -28 6 -21 -14 -23 -13 -28 4 -3 11
-1 20 4 20 14 0 10 27 -5 33 -7 3 -19 0 -25 -6 -6 -6 -14 -7 -18 -2 -5 4 -2
10 5 12 6 3 12 11 12 19 0 8 9 14 20 14 15 0 22 9 27 30 9 45 39 41 39 -6 0
-23 6 -41 18 -49 19 -14 50 -9 40 6 -3 5 7 9 21 9 14 0 24 4 21 9 -6 10 37 31
64 31 13 0 20 -7 20 -20 0 -22 51 -42 58 -22 2 7 18 12 35 12 21 0 36 7 45 20
18 29 29 25 42 -15 12 -37 43 -48 54 -19 10 25 7 66 -4 59 -5 -3 -10 -1 -10 5
0 7 -6 10 -12 8 -16 -6 -38 16 -38 36 0 20 14 20 65 1 41 -14 93 -20 82 -8 -4
3 0 11 9 17 8 6 21 29 28 51 8 22 23 44 35 50 21 10 30 45 11 45 -23 0 -8 31
23 46 41 22 56 42 57 77 0 28 -14 33 -80 29 -13 -1 -27 3 -30 7 -3 5 -12 4
-20 -2z"/>
</g>
</svg>
