<svg xmlns="http://www.w3.org/2000/svg" viewBox="0 0 346.548 346.548">
  <path d="M148.501 194.266c2.686 0 5.235.586 7.544 1.617-2.899-6.491-9.404-11.032-16.959-11.032-10.242 0-18.575 8.333-18.575 18.576 0 7.555 4.541 14.06 11.032 16.958a18.44 18.44 0 01-1.617-7.543c-.001-10.243 8.332-18.576 18.575-18.576z" fill="#fff"/>
  <path d="M129.925 212.842c0 2.687.586 5.235 1.617 7.543v.001a18.44 18.44 0 007.543 1.616c10.242 0 18.575-8.333 18.575-18.575a18.45 18.45 0 00-1.617-7.545 18.443 18.443 0 00-7.543-1.616c-10.242 0-18.575 8.333-18.575 18.576z" fill="#ffa6bb"/>
  <path d="M217.064 194.266c2.687 0 5.235.586 7.544 1.617-2.899-6.491-9.404-11.032-16.959-11.032-10.242 0-18.575 8.333-18.575 18.576 0 7.555 4.541 14.06 11.032 16.958a18.44 18.44 0 01-1.617-7.543c0-10.243 8.333-18.576 18.575-18.576z" fill="#fff"/>
  <path d="M198.489 212.842c0 2.687.586 5.235 1.617 7.543v.001a18.443 18.443 0 007.543 1.616c10.242 0 18.575-8.333 18.575-18.575a18.45 18.45 0 00-1.617-7.545 18.443 18.443 0 00-7.543-1.616c-10.242 0-18.575 8.333-18.575 18.576z" fill="#ffa6bb"/>
  <path d="M217.064 262.74c2.687 0 5.235.586 7.544 1.617-2.899-6.491-9.404-11.032-16.959-11.032-10.242 0-18.575 8.333-18.575 18.576 0 7.555 4.541 14.06 11.032 16.958a18.44 18.44 0 01-1.617-7.543c0-10.243 8.333-18.576 18.575-18.576z" fill="#fff"/>
  <path d="M198.489 281.316c0 2.687.586 5.235 1.617 7.543a18.443 18.443 0 007.543 1.616c10.242 0 18.575-8.333 18.575-18.575a18.45 18.45 0 00-1.617-7.545 18.443 18.443 0 00-7.543-1.616c-10.242.001-18.575 8.334-18.575 18.577z" fill="#ffa6bb"/>
  <path d="M148.501 262.74c2.686 0 5.235.586 7.544 1.617-2.899-6.491-9.404-11.032-16.959-11.032-10.242 0-18.575 8.333-18.575 18.576 0 7.555 4.541 14.06 11.032 16.958a18.44 18.44 0 01-1.617-7.543c-.001-10.243 8.332-18.576 18.575-18.576z" fill="#fff"/>
  <path d="M129.925 281.316c0 2.687.586 5.235 1.617 7.543a18.44 18.44 0 007.543 1.616c10.242 0 18.575-8.333 18.575-18.575a18.45 18.45 0 00-1.617-7.545 18.443 18.443 0 00-7.543-1.616c-10.242.001-18.575 8.334-18.575 18.577z" fill="#ffa6bb"/>
  <path d="M87.484 242.664c0-51.769 42.116-93.885 93.884-93.885 16.52 0 32.054 4.295 45.554 11.818-15.2-10.594-33.662-16.818-53.554-16.818-51.768 0-93.884 42.116-93.884 93.885 0 35.248 19.528 66.015 48.33 82.066-24.358-16.978-40.33-45.19-40.33-77.066z" fill="#fff"/>
  <path d="M173.368 143.779c-51.768 0-93.884 42.116-93.884 93.885 0 51.768 42.116 93.884 93.884 93.884 51.767 0 93.884-42.116 93.884-93.884-.001-51.769-42.117-93.885-93.884-93.885zM240.85 111.09c16.905-10.737 26.216-24.658 26.216-39.199 0-8.298-3.042-16.391-8.786-23.808-4.322-5.582-10.171-10.782-17.43-15.393C222.887 21.283 198.856 15 173.181 15s-49.706 6.283-67.669 17.69c-16.905 10.737-26.216 24.658-26.216 39.2 0 12.333 6.721 24.212 19.069 34.089a80.95 80.95 0 007.146 5.11c17.963 11.407 41.994 17.689 67.669 17.689s49.707-6.281 67.67-17.688z" fill="none"/>
  <path d="M87.484 242.664c0-51.769 42.116-93.885 93.884-93.885 16.52 0 32.053 4.294 45.552 11.817-15.199-10.594-33.661-16.817-53.552-16.817-51.768 0-93.884 42.116-93.884 93.885 0 35.247 19.527 66.014 48.329 82.065-24.358-16.978-40.329-45.189-40.329-77.065z" fill="none"/>
  <path d="M216.821 137.837c11.768-3.364 22.631-8.09 32.07-14.085 21.394-13.587 33.175-32.005 33.175-51.861 0-19.857-11.781-38.275-33.175-51.862C228.555 7.113 201.667 0 173.181 0c-28.486 0-55.374 7.113-75.71 20.028-21.393 13.587-33.175 32.005-33.175 51.863 0 19.856 11.781 38.274 33.175 51.861 9.5 6.033 20.442 10.781 32.297 14.149-38.396 16.846-65.284 55.221-65.284 99.764 0 60.038 48.845 108.884 108.884 108.884s108.884-48.846 108.884-108.884c-.001-44.601-26.958-83.017-65.431-99.828zM105.512 111.09a80.597 80.597 0 01-7.146-5.11c-12.349-9.877-19.069-21.756-19.069-34.089 0-14.542 9.311-28.463 26.216-39.2C123.475 21.283 147.506 15 173.181 15s49.706 6.283 67.669 17.69c7.259 4.61 13.107 9.811 17.43 15.393 5.744 7.417 8.786 15.51 8.786 23.808 0 14.541-9.311 28.462-26.216 39.199-17.963 11.407-41.994 17.689-67.669 17.689s-49.706-6.282-67.669-17.689zM79.484 237.664c0-51.769 42.116-93.885 93.884-93.885 19.891 0 38.352 6.223 53.552 16.817 24.358 16.978 40.332 45.19 40.332 77.068 0 51.768-42.116 93.884-93.884 93.884-16.521 0-32.055-4.295-45.555-11.819-28.802-16.051-48.329-46.818-48.329-82.065z" fill="#7f3960"/>
  <path d="M258.28 48.083a80.567 80.567 0 00-7.145-5.108c-17.963-11.407-41.994-17.69-67.669-17.69-9.726 0-19.212.906-28.224 2.646a131.92 131.92 0 0117.938-1.215 7.5 7.5 0 017.5 7.5 7.5 7.5 0 01-7.5 7.5c-36.2 0-61.428 15.902-61.428 30.176 0 4.142-3.357 7.5-7.5 7.5s-7.5-3.358-7.5-7.5c0-7.475 2.942-14.464 8.163-20.614-9.967 9.198-15.335 19.868-15.335 30.899 0 8.296 3.042 16.388 8.784 23.805a80.95 80.95 0 007.146 5.11c17.963 11.407 41.994 17.689 67.669 17.689s49.706-6.282 67.669-17.689c16.905-10.737 26.216-24.658 26.216-39.199.002-8.3-3.04-16.393-8.784-23.81z" fill="#ffa6bb"/>
  <path d="M134.227 32.863z" fill="none"/>
  <path d="M240.85 32.69C222.887 21.283 198.856 15 173.181 15s-49.706 6.283-67.669 17.69c-16.905 10.737-26.216 24.658-26.216 39.2 0 12.333 6.721 24.213 19.07 34.09-5.743-7.417-8.785-15.509-8.785-23.806 0-11.031 5.368-21.7 15.333-30.897l.002-.002c6.555-7.721 16.746-14.092 29.311-18.414a106.025 106.025 0 0112.88-3.533c.09-.019.183-.033.272-.051 2.557-.526 5.178-.979 7.859-1.348 9.014-1.74 18.501-2.646 28.228-2.646 25.675 0 49.706 6.283 67.669 17.69a80.738 80.738 0 017.146 5.109c-4.323-5.58-10.171-10.781-17.431-15.392z" fill="#fff"/>
  <path d="M134.227 32.863c-12.564 4.321-22.756 10.692-29.311 18.414l-.002.002c-5.219 6.15-8.161 13.138-8.161 20.612 0 4.142 3.357 7.5 7.5 7.5s7.5-3.358 7.5-7.5c0-14.273 25.227-30.176 61.428-30.176a7.5 7.5 0 007.5-7.5c0-4.143-3.357-7.5-7.5-7.5-6.201 0-12.2.428-17.938 1.215-2.684.368-5.305.822-7.863 1.348-.09.018-.183.033-.272.051a106.223 106.223 0 00-12.881 3.534z" fill="#7f3960"/>
  <path d="M226.919 160.596c-13.499-7.523-29.032-11.817-45.552-11.817-51.768 0-93.884 42.116-93.884 93.885 0 31.876 15.972 60.087 40.329 77.065 13.5 7.524 29.033 11.819 45.555 11.819 51.767 0 93.884-42.116 93.884-93.884 0-31.877-15.973-60.09-40.332-77.068zm-87.834 144.881c-18.514 0-33.575-15.061-33.575-33.575 0-18.514 15.062-33.576 33.575-33.576 18.514 0 33.575 15.062 33.575 33.576.001 18.513-15.061 33.575-33.575 33.575zm0-68.475c-18.514 0-33.575-15.062-33.575-33.575 0-18.514 15.062-33.576 33.575-33.576 18.514 0 33.575 15.062 33.575 33.576.001 18.513-15.061 33.575-33.575 33.575zm68.564-67.151c18.514 0 33.575 15.062 33.575 33.576 0 18.514-15.062 33.575-33.575 33.575s-33.575-15.062-33.575-33.575c0-18.514 15.061-33.576 33.575-33.576zm0 135.626c-18.514 0-33.575-15.061-33.575-33.575 0-18.514 15.061-33.576 33.575-33.576s33.575 15.062 33.575 33.576c0 18.513-15.061 33.575-33.575 33.575z" fill="#ba82aa"/>
  <path d="M139.085 169.851c-18.514 0-33.575 15.062-33.575 33.576 0 18.514 15.062 33.575 33.575 33.575 18.514 0 33.575-15.062 33.575-33.575.001-18.514-15.061-33.576-33.575-33.576zm-18.575 33.576c0-10.243 8.333-18.576 18.575-18.576 7.556 0 14.06 4.541 16.958 11.031a18.45 18.45 0 011.617 7.545c0 10.242-8.333 18.575-18.575 18.575a18.44 18.44 0 01-7.543-1.616c-6.49-2.899-11.032-9.404-11.032-16.959zM139.085 238.325c-18.514 0-33.575 15.062-33.575 33.576 0 18.514 15.062 33.575 33.575 33.575 18.514 0 33.575-15.061 33.575-33.575.001-18.513-15.061-33.576-33.575-33.576zm0 52.152c-10.242 0-18.575-8.333-18.575-18.575 0-10.243 8.333-18.576 18.575-18.576s18.575 8.333 18.575 18.576c.001 10.241-8.332 18.575-18.575 18.575zM207.649 237.002c18.514 0 33.575-15.062 33.575-33.575 0-18.514-15.062-33.576-33.575-33.576s-33.575 15.062-33.575 33.576c0 18.513 15.061 33.575 33.575 33.575zm0-52.151c10.242 0 18.575 8.333 18.575 18.576 0 10.242-8.333 18.575-18.575 18.575s-18.575-8.333-18.575-18.575c0-10.243 8.333-18.576 18.575-18.576zM207.649 238.325c-18.514 0-33.575 15.062-33.575 33.576 0 18.514 15.061 33.575 33.575 33.575s33.575-15.061 33.575-33.575c0-18.513-15.061-33.576-33.575-33.576zm0 52.152c-10.242 0-18.575-8.333-18.575-18.575 0-10.243 8.333-18.576 18.575-18.576s18.575 8.333 18.575 18.576c0 10.241-8.333 18.575-18.575 18.575z" fill="#7f3960"/>
</svg>
