<?xml version="1.0" standalone="no"?>
<!DOCTYPE svg PUBLIC "-//W3C//DTD SVG 20010904//EN"
 "http://www.w3.org/TR/2001/REC-SVG-20010904/DTD/svg10.dtd">
<svg version="1.0" xmlns="http://www.w3.org/2000/svg"
 width="1250.000000pt" height="1250.000000pt" viewBox="0 0 1250.000000 1250.000000"
 preserveAspectRatio="xMidYMid meet">
<metadata>
Created by potrace 1.16, written by Peter Selinger 2001-2019
</metadata>
<g transform="translate(0.000000,1250.000000) scale(0.100000,-0.100000)"
fill="#000000" stroke="none">
<path d="M5586 12048 c2 -20 -1 -28 -11 -28 -8 0 -16 6 -16 13 -1 6 -4 -1 -8
-18 -5 -23 -12 -31 -34 -33 -25 -3 -41 -32 -17 -32 6 0 10 -7 10 -15 0 -8 6
-15 14 -15 8 0 16 7 20 15 3 8 12 15 20 15 7 0 16 7 20 15 3 8 12 15 20 15 9
0 13 6 10 14 -4 10 10 15 62 18 40 2 69 9 72 16 6 18 42 15 42 -4 0 -11 -6
-13 -19 -9 -31 9 -51 -19 -44 -63 3 -20 9 -39 13 -42 4 -3 13 -20 21 -38 9
-20 23 -35 39 -39 14 -3 37 -19 51 -35 21 -23 32 -28 52 -22 15 3 29 16 33 27
9 29 22 37 62 37 19 0 35 6 38 15 3 8 21 17 40 21 19 3 34 10 34 15 0 5 7 9
15 9 8 0 15 -4 15 -10 0 -5 16 -10 36 -10 27 0 37 -5 41 -20 3 -10 15 -22 27
-26 11 -4 24 -12 28 -18 6 -8 8 -7 8 2 0 23 30 12 36 -13 5 -19 0 -32 -20 -52
-25 -25 -35 -71 -18 -87 4 -4 7 -15 8 -24 3 -50 4 -52 33 -52 16 0 36 3 45 6
17 7 22 44 6 44 -5 0 -10 11 -10 25 0 18 -5 25 -20 25 -11 0 -20 5 -20 10 0 6
4 10 9 10 5 0 12 14 16 30 6 26 11 30 38 29 18 0 26 -3 20 -6 -24 -9 -14 -49
15 -64 15 -8 31 -20 35 -26 4 -7 12 -13 18 -13 5 0 16 -5 23 -12 10 -9 8 -16
-8 -32 -13 -13 -21 -16 -24 -8 -8 24 -23 11 -20 -15 3 -26 6 -28 43 -25 22 2
42 8 43 13 2 5 15 9 28 9 18 0 24 5 24 21 0 24 -48 75 -76 81 -15 3 -18 11
-16 40 2 31 -1 37 -20 40 -17 2 -24 11 -26 31 -2 15 -7 27 -11 27 -5 0 -20 11
-34 25 -21 22 -31 25 -65 19 -23 -3 -43 -13 -46 -20 -8 -21 -46 -18 -46 4 0
22 11 37 33 45 28 11 20 71 -10 75 -19 3 -23 -1 -23 -26 0 -18 -6 -32 -16 -36
-21 -8 -20 -8 -37 8 -7 8 -38 16 -68 18 -50 3 -54 1 -57 -19 -3 -17 -10 -23
-29 -23 -36 0 -95 22 -110 40 -10 13 -14 12 -32 -7 -22 -23 -29 -63 -11 -63 6
0 10 -7 10 -15 0 -8 -9 -15 -20 -15 -12 0 -20 7 -20 16 0 20 -24 44 -44 44
-20 0 -20 14 -1 34 17 17 20 36 5 36 -5 0 -10 9 -10 20 0 11 5 20 10 20 6 0
10 -4 10 -9 0 -5 9 -11 20 -14 15 -4 20 0 20 14 0 25 -38 59 -67 59 -13 0 -23
5 -23 10 0 6 -9 10 -20 10 -11 0 -20 -4 -20 -10 0 -5 -16 -10 -35 -10 -19 0
-35 5 -35 10 0 6 -9 10 -20 10 -11 0 -20 -7 -20 -15 0 -18 -27 -20 -33 -2 -2
6 -3 0 -1 -15z"/>
<path d="M5639 11952 c-9 -9 -19 -35 -22 -56 -7 -43 -19 -56 -54 -56 -20 0
-23 -5 -23 -40 0 -22 -4 -40 -10 -40 -5 0 -10 -11 -10 -25 0 -24 -3 -25 -54
-25 -29 0 -67 -5 -85 -11 -37 -13 -44 -43 -7 -33 18 4 27 1 35 -14 17 -31 13
-48 -14 -73 -19 -18 -25 -34 -25 -66 0 -37 -3 -43 -21 -43 -11 0 -18 -4 -14
-10 3 -5 3 -21 -1 -35 -5 -22 -11 -25 -50 -25 -24 0 -44 -4 -44 -10 0 -5 5
-10 10 -10 26 0 -5 -50 -32 -50 -8 0 -7 -4 5 -11 28 -16 21 -39 -12 -39 -27 0
-29 -3 -36 -55 -3 -30 -13 -61 -21 -69 -8 -8 -14 -18 -14 -22 0 -16 -53 -54
-75 -54 -18 0 -25 7 -30 31 -4 17 -13 33 -21 36 -8 3 -14 11 -14 19 0 19 29
18 36 -1 4 -8 18 -15 34 -15 24 0 29 5 34 35 4 19 11 35 16 35 6 0 10 7 10 16
0 11 -6 15 -20 11 -15 -4 -20 0 -20 14 0 10 -4 19 -9 19 -5 0 -16 3 -24 6 -10
4 -16 -5 -21 -30 -8 -41 -33 -48 -56 -17 -16 23 -30 18 -30 -10 0 -10 -4 -19
-10 -19 -5 0 -10 -20 -10 -45 0 -38 3 -45 20 -45 15 0 20 -7 20 -25 0 -14 5
-25 10 -25 6 0 10 -7 10 -15 0 -15 -42 -31 -57 -22 -14 9 -40 -12 -27 -20 17
-12 23 -38 13 -54 -8 -12 -11 -11 -20 4 -5 9 -17 17 -24 17 -8 0 -15 4 -15 9
0 5 -11 12 -25 15 -14 4 -25 11 -25 18 0 6 -8 17 -17 24 -17 12 -17 14 4 33
12 12 29 21 38 21 8 0 15 5 15 10 0 13 -26 13 -51 0 -16 -9 -19 -7 -19 9 0 10
-7 21 -15 25 -10 4 -15 -1 -15 -15 0 -11 -7 -22 -15 -25 -20 -8 -60 2 -77 20
-22 22 -42 -9 -39 -62 2 -35 -2 -48 -20 -65 -15 -14 -24 -17 -27 -9 -4 14 -32
16 -32 2 0 -5 -9 -10 -20 -10 -27 0 -25 -28 2 -32 13 -2 24 -11 26 -20 3 -14
-6 -19 -37 -24 -25 -4 -41 -12 -41 -20 0 -17 -41 -28 -69 -19 -12 3 -26 15
-31 26 -6 10 -16 19 -23 19 -7 0 -6 -4 3 -10 11 -7 14 -24 13 -60 -2 -39 2
-55 17 -70 11 -11 20 -24 20 -30 0 -18 -40 -11 -57 10 -13 15 -30 20 -63 20
-73 0 -90 -8 -90 -41 0 -16 -4 -29 -10 -29 -5 0 -10 -7 -10 -15 0 -9 -9 -15
-25 -15 -20 0 -25 -5 -25 -25 0 -18 -5 -25 -20 -25 -11 0 -20 -4 -20 -9 0 -5
-12 -12 -27 -16 -16 -4 -22 -10 -15 -12 6 -3 12 -16 12 -29 0 -29 -35 -33 -57
-6 -13 15 -14 14 -8 -13 4 -20 3 -25 -4 -16 -5 7 -14 10 -20 7 -16 -10 -14
-36 4 -42 8 -4 15 -12 15 -20 0 -8 -7 -14 -15 -14 -8 0 -15 -7 -15 -15 0 -8 9
-15 20 -15 12 0 20 -7 20 -16 0 -9 -9 -18 -20 -21 -14 -4 -20 -14 -20 -33 0
-16 -7 -30 -15 -34 -20 -7 -20 -89 0 -109 7 -8 17 -26 21 -41 3 -14 10 -26 15
-26 5 0 9 -7 9 -15 0 -15 -10 -19 -43 -16 -9 1 -20 -6 -24 -16 -4 -9 -17 -27
-30 -39 -27 -25 -30 -49 -7 -58 11 -4 13 -13 8 -28 -3 -13 -11 -24 -15 -26
-21 -8 -7 -22 22 -22 29 0 30 -2 24 -29 -9 -40 4 -101 21 -101 8 0 14 -4 14
-9 0 -5 9 -11 20 -14 27 -7 15 -37 -15 -37 -13 0 -30 -7 -39 -15 -8 -8 -25
-15 -38 -15 -28 -1 -69 -30 -50 -37 14 -6 16 -33 2 -33 -5 0 -10 -16 -10 -35
0 -44 -24 -47 -39 -5 -5 17 -16 30 -23 29 -10 0 -10 -2 0 -6 18 -7 15 -23 -12
-48 -13 -12 -29 -38 -35 -58 -7 -20 -17 -37 -22 -37 -5 0 -9 -11 -9 -25 0 -14
5 -25 10 -25 6 0 10 -9 10 -19 0 -23 -28 -34 -64 -25 -22 5 -26 3 -26 -14 0
-30 -10 -52 -25 -52 -7 0 -12 -8 -11 -17 1 -12 -5 -17 -16 -15 -10 2 -18 -2
-18 -8 0 -5 6 -10 14 -10 25 0 46 12 46 25 0 7 14 16 30 20 44 10 86 -33 81
-82 -2 -19 -22 -16 -37 5 -13 15 -15 16 -26 1 -7 -9 -20 -18 -28 -22 -13 -4
-12 -6 1 -6 9 -1 19 -8 23 -16 3 -9 19 -15 41 -15 32 0 35 -2 35 -29 0 -34
-14 -46 -50 -46 -16 0 -25 -6 -25 -15 0 -11 12 -15 48 -15 26 1 171 2 321 3
l275 2 3 53 3 52 43 -3 c37 -3 42 -1 42 17 0 16 6 21 25 21 18 0 25 -5 25 -19
0 -10 -7 -21 -15 -25 -10 -4 -13 -14 -9 -36 5 -25 4 -29 -9 -24 -8 3 -18 12
-21 20 -6 16 -32 19 -41 3 -4 -5 -4 -21 -1 -35 5 -19 13 -24 40 -24 19 0 37 6
40 13 5 10 7 10 12 0 4 -9 36 -13 110 -13 97 0 104 1 104 20 0 14 -7 20 -23
20 -16 0 -28 9 -38 28 -8 15 -18 30 -23 33 -4 4 -11 27 -13 53 -3 25 -10 46
-14 46 -5 0 -9 16 -9 35 0 19 5 35 10 35 6 0 10 7 10 15 0 8 9 15 20 15 15 0
20 -7 20 -29 0 -16 3 -36 6 -45 7 -17 34 -22 34 -6 0 6 11 10 25 10 14 0 25
-4 25 -10 0 -5 -4 -10 -10 -10 -17 0 -11 -40 10 -62 11 -12 20 -27 20 -34 0
-11 40 -27 48 -20 9 10 6 98 -4 104 -6 4 -15 22 -19 40 -3 17 -11 32 -17 32
-6 0 -9 2 -6 5 10 11 58 -7 58 -21 0 -8 7 -14 15 -14 9 0 18 -7 21 -15 4 -8
12 -15 19 -15 17 0 28 -31 15 -44 -19 -19 -11 -56 15 -66 18 -7 25 -17 25 -35
0 -14 6 -25 13 -25 7 0 23 -9 35 -20 12 -11 30 -20 42 -20 13 0 20 7 20 20 0
16 -7 20 -34 20 -31 0 -34 3 -39 38 -9 54 0 80 31 84 38 4 41 28 3 28 -24 0
-31 4 -31 20 0 16 7 20 35 20 19 0 35 -4 35 -10 0 -16 47 -11 54 6 12 31 7 74
-9 74 -8 0 -15 7 -15 15 0 8 9 15 21 15 11 0 17 5 14 10 -3 6 -13 10 -21 10
-9 0 -23 7 -32 16 -14 15 -16 15 -24 -5 -12 -35 -38 -26 -38 13 0 21 -6 36
-15 40 -11 4 -15 20 -15 56 0 36 -4 50 -14 50 -17 0 -25 18 -18 43 3 12 14 17
38 17 27 0 34 -4 34 -20 0 -13 7 -20 20 -20 22 0 27 28 11 59 -13 23 -3 61 15
61 8 0 14 -8 14 -18 0 -21 34 -52 56 -52 22 0 51 35 59 70 3 16 13 31 21 34 8
3 14 19 14 36 0 25 -4 30 -25 30 -16 0 -25 6 -25 15 0 8 -4 15 -10 15 -5 0
-10 6 -10 13 0 15 -35 47 -53 47 -32 1 -64 50 -32 50 8 0 15 5 15 10 0 21 19
8 29 -20 12 -36 54 -42 71 -10 6 11 15 20 21 20 22 0 39 30 39 69 0 23 -4 41
-10 41 -5 0 -12 16 -16 35 -7 39 -32 48 -41 15 -3 -11 -9 -20 -14 -20 -15 0
-10 -27 6 -34 8 -3 15 -15 15 -26 0 -11 -7 -20 -15 -20 -8 0 -15 -4 -15 -10 0
-21 -28 -9 -34 15 -6 23 -8 24 -22 10 -24 -24 -44 -19 -44 13 0 15 -3 37 -6
50 -6 20 -3 22 27 22 44 1 69 20 69 54 0 22 -4 26 -30 26 -26 0 -30 3 -30 29
0 23 7 32 30 43 48 21 54 78 8 78 -16 0 -19 5 -14 23 3 12 6 25 6 30 0 14 71
7 76 -8 4 -8 16 -15 29 -15 13 0 25 7 29 15 3 8 17 15 31 15 28 0 65 32 65 55
0 12 12 15 56 14 37 -2 59 2 64 11 7 11 11 10 25 -3 22 -23 36 -21 42 4 4 12
11 18 20 15 8 -3 17 -6 19 -6 2 0 4 -7 4 -15 0 -8 7 -15 15 -15 8 0 15 7 15
15 0 8 7 15 16 15 11 0 14 5 10 16 -3 9 -6 18 -6 20 0 2 -7 4 -15 4 -9 0 -15
9 -15 25 0 14 -4 25 -10 25 -5 0 -10 9 -10 20 0 11 -5 29 -12 40 -7 10 -8 23
-4 27 5 4 11 2 13 -4 3 -7 11 -13 19 -13 8 0 14 -4 14 -10 0 -5 7 -10 16 -10
8 0 22 -7 30 -15 9 -8 24 -15 34 -15 10 0 20 -9 23 -20 3 -13 14 -20 30 -20
14 0 27 -6 29 -12 5 -15 38 13 38 31 0 14 -37 51 -50 51 -5 0 -10 4 -10 10 0
6 18 7 45 3 31 -4 45 -2 45 6 0 14 -36 51 -51 51 -12 0 -2 37 14 55 17 18 37
-7 37 -43 0 -17 3 -37 6 -46 7 -17 44 -22 44 -6 0 6 7 10 15 10 8 0 15 -7 15
-15 0 -10 10 -15 30 -15 26 0 30 4 36 37 4 21 13 44 21 51 7 7 13 20 13 28 0
21 28 17 35 -5 7 -24 -4 -71 -17 -71 -5 0 -3 -7 6 -15 16 -17 56 -20 56 -5 0
6 16 10 35 10 19 0 35 -4 35 -10 0 -5 14 -10 31 -10 17 0 39 -5 50 -11 19 -9
20 -7 17 28 l-3 38 44 -3 c49 -3 71 10 71 43 0 31 27 39 47 15 19 -21 83 -28
83 -9 0 18 28 39 44 33 20 -8 21 -30 1 -38 -8 -3 -15 -15 -15 -26 0 -15 -7
-20 -29 -20 -16 0 -31 -5 -33 -11 -2 -6 -25 -13 -51 -16 -50 -6 -60 -21 -32
-49 8 -9 15 -27 15 -41 0 -23 3 -25 28 -18 15 4 46 9 70 12 23 3 42 9 42 14 0
5 6 9 13 9 8 0 24 9 37 20 13 11 26 20 30 20 4 0 10 28 14 62 4 40 12 65 21
71 12 6 14 17 9 43 -5 27 -3 35 12 41 11 3 23 12 27 20 4 7 15 13 22 13 8 0
15 6 15 13 0 8 2 9 8 1 4 -6 17 -14 29 -18 41 -13 40 -60 -3 -70 -19 -5 -24
-13 -24 -36 0 -23 -5 -31 -24 -36 -23 -5 -24 -8 -20 -87 2 -56 8 -83 18 -89 7
-4 17 -19 20 -33 4 -14 13 -25 21 -25 8 0 15 -5 15 -11 0 -7 -8 -9 -20 -5 -68
21 -63 22 -56 -16 5 -30 3 -36 -14 -41 -30 -8 -24 -34 9 -42 21 -4 33 -15 40
-36 10 -30 18 -34 45 -23 21 8 21 54 1 54 -8 0 -15 7 -15 15 0 11 11 15 40 15
22 0 40 -4 40 -10 0 -15 29 -12 46 5 8 8 21 12 29 9 17 -7 21 -64 5 -64 -15 0
-12 -29 5 -46 20 -20 19 -44 -1 -44 -18 0 -44 23 -44 39 0 20 -31 11 -56 -16
-24 -26 -24 -26 -5 -45 11 -10 25 -18 31 -18 19 0 10 -31 -16 -55 -15 -14 -22
-25 -15 -25 17 0 13 -18 -5 -22 -11 -2 -17 -18 -19 -57 -2 -29 -6 -55 -7 -57
-10 -9 -48 10 -53 27 -8 24 -33 25 -42 2 -4 -10 -19 -30 -35 -45 -27 -26 -39
-78 -18 -78 6 0 10 -9 10 -20 0 -11 5 -20 10 -20 13 0 13 -33 -1 -47 -14 -14
-2 -53 17 -53 8 0 14 5 14 10 0 6 11 10 25 10 33 0 33 29 -1 63 -38 38 -23 50
52 44 58 -4 64 -3 64 14 0 11 6 19 13 19 16 0 37 -42 36 -73 0 -21 -1 -21 -10
3 -6 13 -12 26 -14 28 -8 9 -55 -53 -50 -66 3 -7 5 -16 5 -18 0 -2 6 -4 13 -4
8 0 24 -9 37 -20 13 -11 35 -20 50 -20 19 0 29 6 33 20 4 16 14 20 51 20 34 0
46 -4 46 -15 0 -8 -4 -15 -10 -15 -22 0 -8 -28 18 -35 15 -4 21 -10 15 -12 -7
-3 -13 -11 -13 -19 0 -8 -11 -24 -25 -36 -14 -12 -25 -28 -25 -35 0 -7 -4 -13
-10 -13 -5 0 -10 -20 -10 -44 0 -34 -5 -47 -22 -59 l-23 -15 27 -27 c21 -20
32 -25 50 -19 13 3 26 12 30 18 5 7 8 4 8 -6 0 -10 5 -18 10 -18 6 0 10 -7 10
-15 0 -8 -4 -15 -10 -15 -5 0 -12 -16 -16 -35 -5 -29 -11 -35 -40 -41 -36 -7
-43 -18 -21 -31 8 -4 16 -16 20 -25 4 -11 17 -18 32 -18 30 0 55 -21 55 -44 0
-9 7 -16 15 -16 8 0 15 4 15 8 0 4 14 13 30 19 23 9 30 18 30 37 0 16 -6 26
-15 26 -8 0 -15 5 -15 10 0 6 7 10 15 10 8 0 15 5 15 10 0 6 7 10 15 10 22 0
18 23 -5 38 -19 11 -20 19 -14 71 6 53 4 60 -15 70 -29 16 -27 41 4 41 14 0
25 5 25 10 0 6 14 10 31 10 23 0 32 5 36 20 3 11 16 23 29 26 13 3 24 10 24
15 0 5 18 9 39 9 42 0 51 -11 51 -60 0 -21 6 -29 25 -34 28 -7 36 -46 9 -46
-9 0 -14 -6 -12 -12 3 -9 31 -13 88 -13 57 0 85 -4 87 -12 4 -10 8 -9 19 1 17
18 18 33 2 38 -9 3 -8 9 4 21 18 19 38 22 38 7 0 -5 5 -10 10 -10 21 0 9 47
-17 70 -21 18 -24 25 -13 28 8 3 18 9 21 14 10 15 70 12 80 -3 8 -12 10 -12
19 1 5 8 10 18 10 22 0 12 -31 38 -46 38 -29 0 -13 17 29 30 48 16 57 25 57
61 0 23 6 28 35 33 19 4 35 11 35 16 0 6 8 18 18 28 9 10 23 28 31 39 10 15
28 22 63 25 54 6 71 20 65 56 -3 12 4 32 14 44 22 25 24 34 7 45 -24 15 -34
48 -30 91 4 39 6 42 33 42 31 0 41 23 14 34 -8 3 -15 17 -15 31 0 15 -7 33
-15 41 -21 21 -19 34 5 34 11 0 20 -7 20 -15 0 -16 42 -31 59 -21 5 3 17 -1
25 -10 15 -14 17 -14 32 0 8 9 22 16 30 16 16 0 19 26 4 32 -5 2 -13 26 -16
53 -4 28 -10 52 -14 55 -3 3 -12 24 -18 48 -11 34 -17 42 -37 42 -18 0 -24 -6
-27 -27 -3 -24 -8 -28 -40 -31 -49 -4 -50 15 -3 54 27 22 35 36 35 61 0 31 -2
33 -35 33 -29 0 -36 4 -41 25 -9 35 -34 32 -34 -4 0 -39 9 -61 26 -61 10 0 14
-12 14 -40 0 -30 -4 -40 -16 -40 -9 0 -18 9 -21 20 -3 11 -9 20 -13 20 -4 0
-17 9 -30 20 -13 11 -29 20 -37 20 -7 0 -13 10 -13 21 0 18 5 21 30 17 23 -3
30 -1 30 11 0 23 -11 35 -42 48 -16 7 -28 19 -28 27 0 24 -26 43 -69 50 -35 5
-41 10 -41 31 0 17 6 25 18 25 24 1 61 31 44 37 -7 3 -19 11 -26 19 -17 16
-36 18 -36 4 0 -5 -9 -10 -20 -10 -11 0 -20 2 -20 5 0 12 24 55 32 55 4 0 8 7
8 15 0 8 -7 15 -15 15 -19 0 -55 -31 -55 -47 0 -20 -27 -15 -49 8 -17 19 -27
21 -70 15 -43 -6 -52 -4 -70 16 -25 26 -28 73 -5 82 9 3 49 6 90 6 66 0 96 11
62 22 -9 3 -8 10 5 23 33 32 18 50 -38 47 -28 -2 -51 -8 -53 -13 -5 -13 -30
-11 -34 3 -5 15 -101 13 -106 -2 -2 -5 -10 -10 -18 -10 -19 0 -18 -37 1 -56 8
-9 15 -24 15 -36 0 -16 -5 -19 -27 -15 -16 2 -22 2 -15 0 6 -3 12 -13 12 -24
0 -17 -6 -20 -37 -17 -35 3 -38 5 -36 32 1 17 9 34 18 38 22 13 19 22 -15 36
-23 11 -37 11 -65 2 -29 -10 -35 -16 -35 -41 0 -16 5 -29 11 -29 6 0 4 -7 -5
-15 -16 -16 -46 -20 -46 -6 0 5 -9 11 -20 14 -12 3 -20 14 -20 28 0 21 -2 22
-77 16 -46 -3 -79 -11 -85 -19 -6 -10 -10 -10 -16 -1 -4 6 -20 15 -35 18 -15
4 -27 11 -27 16 0 5 -7 9 -15 9 -8 0 -15 -4 -15 -10 0 -5 -7 -10 -15 -10 -9 0
-20 -11 -25 -25 -5 -14 -14 -25 -20 -25 -5 0 -12 -11 -16 -25 -3 -14 -11 -26
-18 -26 -22 -2 -41 3 -48 14 -4 6 -23 11 -42 10 -41 -1 -42 0 -19 23 13 13 14
19 5 22 -6 2 -12 15 -12 28 0 17 -6 24 -20 24 -11 0 -20 -4 -20 -10 0 -17 -30
-11 -52 10 -12 11 -27 20 -34 20 -14 0 -29 38 -20 47 3 4 6 1 6 -5 0 -7 14
-12 30 -12 34 0 40 15 10 25 -15 5 -20 15 -20 41 0 34 -5 38 -47 34 -14 -1
-23 4 -23 13 0 16 -21 27 -52 27 -25 0 -78 55 -78 81 0 11 -7 19 -17 19 -10 0
-24 4 -32 9 -11 7 -9 13 7 29 24 24 19 58 -10 65 -18 5 -19 11 -13 74 7 78 -1
97 -42 98 -19 0 -29 6 -31 19 -4 21 -32 54 -32 38 0 -19 -40 -20 -62 0 -28 24
-60 17 -98 -22 -35 -36 -36 -36 -43 -10 -5 19 -11 20 -64 15 -69 -6 -113 1
-113 20 0 18 -28 45 -45 45 -8 0 -15 -13 -17 -32 -3 -29 -7 -33 -35 -36 -42
-4 -42 11 -2 48 42 38 34 64 -16 54 -43 -8 -48 11 -10 44 20 18 25 31 25 72 0
27 -1 50 -2 49 -2 0 -10 -8 -19 -17z m-1057 -2124 c2 -28 8 -34 31 -36 18 -2
29 2 33 12 9 24 24 19 24 -8 0 -29 43 -42 66 -19 13 13 17 13 33 -6 10 -12 28
-21 40 -21 27 0 28 -20 1 -27 -14 -4 -20 -14 -20 -34 0 -17 -6 -32 -14 -35
-18 -7 -26 -38 -15 -55 8 -12 11 -11 19 1 8 12 10 9 10 -12 0 -30 24 -39 34
-13 9 24 26 17 26 -10 0 -18 -5 -25 -20 -25 -15 0 -20 -7 -20 -29 0 -26 -14
-41 -40 -41 -5 0 -14 16 -20 35 -6 19 -16 35 -21 35 -5 0 -9 16 -9 35 0 42
-20 46 -53 12 -12 -13 -30 -26 -39 -30 -27 -10 -25 53 2 76 24 20 26 47 5 47
-9 0 -15 9 -15 25 0 14 5 25 10 25 21 0 9 19 -20 32 -16 7 -30 16 -30 20 0 5
-6 8 -13 8 -14 0 -47 35 -47 49 0 9 20 17 47 20 6 0 13 -14 15 -31z"/>
<path d="M7141 11869 c0 -9 -8 -19 -16 -23 -20 -7 -19 -28 3 -47 9 -9 26 -29
37 -44 32 -45 41 -52 84 -59 23 -3 41 -11 41 -17 0 -13 38 -49 52 -49 4 0 8
-9 8 -20 0 -16 -7 -20 -35 -20 -35 0 -36 -1 -30 -33 5 -24 2 -39 -9 -50 -18
-17 -21 -47 -6 -47 6 0 10 6 10 13 0 15 32 43 57 50 16 4 16 5 1 6 -24 1 -23
23 2 44 21 18 28 67 9 67 -21 0 -38 35 -39 78 0 30 -4 42 -15 42 -9 0 -15 -9
-15 -25 0 -15 -6 -25 -15 -25 -22 0 -55 32 -55 52 0 10 -7 18 -15 18 -9 0 -15
9 -15 25 0 13 -6 28 -14 32 -8 4 -16 17 -19 28 -3 14 -5 15 -6 4z"/>
<path d="M5890 9635 c0 -8 -4 -15 -10 -15 -12 0 -14 -57 -1 -62 15 -6 20 -87
7 -101 -11 -10 -10 -15 0 -25 18 -17 44 -15 44 3 0 22 22 18 48 -9 15 -16 29
-22 43 -19 17 5 19 11 15 42 -7 38 8 75 22 55 4 -7 40 -18 80 -25 45 -8 72
-18 72 -26 0 -7 9 -13 20 -13 24 0 28 38 5 46 -9 4 -15 19 -15 38 0 31 -1 31
-51 31 -38 0 -53 4 -60 18 -13 22 -31 22 -52 -3 -9 -11 -23 -20 -32 -20 -8 0
-19 9 -25 20 -6 11 -16 20 -22 20 -6 0 -24 14 -40 30 -31 33 -48 38 -48 15z"/>
<path d="M6740 9424 c0 -9 -9 -18 -20 -21 -20 -5 -28 -23 -10 -23 6 0 10 -10
10 -21 0 -18 -5 -21 -30 -17 -17 3 -33 1 -36 -4 -3 -4 0 -8 5 -8 6 0 11 -11
11 -25 0 -14 4 -25 9 -25 5 0 12 -9 16 -19 10 -33 65 -37 65 -5 0 10 12 14 40
14 56 0 82 29 74 84 -8 51 -21 67 -37 45 -16 -21 -52 -32 -77 -24 -20 6 -28
35 -10 35 6 0 10 7 10 15 0 8 -4 15 -10 15 -5 0 -10 -7 -10 -16z"/>
<path d="M3818 8793 c27 -3 42 -9 42 -18 0 -7 14 -18 30 -24 17 -5 37 -17 45
-25 17 -17 20 -46 4 -46 -6 0 -4 -7 5 -15 22 -22 35 -18 42 13 9 36 37 62 68
62 19 0 25 -6 28 -27 3 -25 6 -28 38 -25 19 1 37 7 38 12 2 6 17 10 33 10 31
0 41 23 14 34 -8 3 -15 17 -15 31 l0 25 -207 -2 c-115 -1 -189 -3 -165 -5z"/>
<path d="M4240 8780 c0 -13 9 -22 28 -26 47 -12 87 -74 47 -74 -8 0 -15 -7
-15 -15 0 -20 20 -19 36 3 9 12 25 17 58 16 38 -1 46 2 46 17 0 20 24 16 48
-8 7 -7 33 -13 58 -13 42 0 44 -1 44 -30 0 -25 4 -30 25 -30 20 0 25 5 25 25
0 14 7 28 15 31 17 7 21 34 5 34 -14 0 -12 27 3 34 6 3 -1 4 -16 1 -18 -4 -33
0 -44 10 -8 9 -14 17 -12 19 2 1 15 7 29 13 21 10 7 12 -78 12 -64 1 -101 -3
-97 -9 7 -12 -30 -50 -50 -50 -8 0 -15 9 -15 20 0 25 -35 40 -96 40 -37 0 -44
-3 -44 -20z"/>
<path d="M7699 8588 c-7 -18 -20 -38 -27 -44 -11 -8 -13 -22 -8 -57 4 -26 11
-47 15 -47 4 0 13 -16 21 -35 8 -19 17 -35 22 -35 13 0 9 -58 -3 -62 -7 -2
-10 -10 -8 -17 3 -8 42 46 86 120 59 96 78 135 67 137 -7 2 -14 8 -14 13 0 5
-8 9 -17 9 -10 0 -29 12 -42 25 -35 37 -75 34 -92 -7z"/>
<path d="M4300 8561 c0 -5 -9 -11 -20 -14 -12 -3 -20 -14 -20 -26 0 -12 -4
-21 -10 -21 -16 0 -12 -57 5 -63 8 -4 37 -3 64 0 43 5 50 9 56 32 4 14 11 29
17 32 6 4 1 10 -12 14 -17 5 -20 12 -16 31 6 22 3 24 -29 24 -19 0 -35 -4 -35
-9z"/>
<path d="M7405 8475 c-60 -63 -85 -78 -85 -51 0 8 -4 17 -9 20 -16 10 -71 -6
-71 -20 0 -8 -5 -14 -11 -14 -6 0 -4 -7 5 -15 8 -8 23 -15 33 -15 10 0 23 -4
30 -8 13 -8 40 -98 31 -107 -9 -10 -38 7 -38 22 0 8 -9 17 -20 20 -11 3 -20
10 -20 17 0 6 -5 4 -10 -4 -9 -13 -11 -13 -20 0 -8 11 -10 3 -8 -29 1 -28 -2
-46 -10 -49 -7 -2 -12 -15 -12 -28 0 -20 5 -24 30 -24 34 0 41 -22 13 -40 -13
-8 -14 -13 -5 -16 6 -3 12 -22 12 -42 0 -25 23 -86 71 -189 40 -84 75 -153 78
-153 3 0 57 83 118 185 106 174 111 185 87 185 -14 0 -27 7 -31 18 -13 34 -54
43 -87 19 -27 -20 -13 -57 22 -57 24 0 25 -1 7 -13 -14 -11 -16 -21 -10 -53 4
-21 10 -41 15 -44 4 -3 2 -11 -6 -18 -12 -10 -14 -10 -14 3 0 8 -9 15 -20 15
-11 0 -20 7 -20 15 0 8 -4 15 -10 15 -5 0 -10 9 -10 20 0 11 5 20 10 20 15 0
12 58 -2 63 -18 5 -48 -3 -48 -14 0 -5 -9 -1 -20 8 -35 30 -23 95 21 113 16 7
29 17 29 23 0 5 14 -4 30 -22 29 -30 70 -42 70 -21 0 15 -38 50 -55 50 -9 0
-15 9 -15 24 0 13 -5 26 -12 28 -6 2 -13 29 -16 60 -4 49 -2 57 16 67 11 6 23
24 27 41 4 16 11 30 16 30 5 0 9 7 9 15 0 28 -25 14 -85 -50z"/>
<path d="M4214 8367 c12 -9 17 -23 14 -42 l-3 -30 -67 3 c-56 2 -68 0 -68 -13
0 -9 7 -18 15 -21 18 -7 20 -31 3 -37 -10 -3 -10 -8 1 -18 10 -11 15 -11 18
-1 5 14 33 17 33 2 0 -5 16 -12 35 -16 19 -3 35 -10 35 -15 0 -5 14 -9 30 -9
20 0 30 5 30 15 0 9 9 15 25 15 30 0 33 -22 5 -41 -14 -10 -18 -21 -14 -36 8
-28 30 -36 49 -17 9 9 35 17 58 19 23 2 45 4 50 4 4 1 7 8 7 16 0 8 7 15 15
15 8 0 15 7 15 15 0 8 -4 15 -9 15 -5 0 -11 9 -14 20 -4 15 -14 20 -36 20 -24
0 -31 4 -31 20 0 11 5 20 10 20 6 0 10 9 10 20 0 15 -7 20 -27 20 -36 -1 -63
-22 -63 -49 0 -34 -37 -27 -45 9 -4 17 -11 30 -16 30 -5 0 -9 18 -9 40 0 39
-1 40 -37 40 -33 0 -35 -1 -19 -13z"/>
<path d="M6720 8263 c-8 -3 -18 -10 -21 -16 -10 -14 -92 -14 -97 1 -6 19 -43
14 -64 -10 -13 -15 -17 -30 -13 -50 4 -17 2 -28 -4 -28 -6 0 -11 -7 -11 -15 0
-8 -4 -15 -10 -15 -5 0 -12 -16 -16 -35 -3 -19 -10 -35 -15 -35 -5 0 -14 -11
-19 -25 -13 -33 -25 -32 -64 10 l-32 34 -21 -43 c-21 -42 -21 -43 -2 -59 10
-9 19 -25 19 -34 0 -20 -41 -63 -59 -63 -6 0 -11 -4 -11 -10 0 -5 -7 -10 -15
-10 -10 0 -15 -11 -15 -35 0 -30 -3 -35 -24 -35 -14 0 -28 -4 -31 -10 -4 -6
10 -10 34 -10 31 0 41 -4 46 -20 9 -28 0 -38 -40 -46 -34 -6 -42 -18 -27 -40
9 -14 68 -34 76 -27 3 4 16 1 29 -6 16 -8 131 -11 439 -9 l417 3 -102 217
c-76 162 -107 218 -119 218 -11 0 -18 -8 -18 -20 0 -16 -7 -20 -34 -20 -66 0
-126 12 -126 26 0 8 9 14 20 14 11 0 20 7 20 15 0 8 5 15 10 15 6 0 2 10 -10
22 -11 12 -20 25 -20 29 0 4 -10 9 -23 13 -13 3 -34 15 -47 26 l-23 20 31 0
c30 0 32 2 32 35 0 35 -8 40 -40 28z"/>
<path d="M7736 7834 c-69 -113 -126 -207 -126 -210 0 -2 81 -4 180 -4 99 0
180 4 180 9 0 5 11 19 25 32 13 13 25 27 25 32 0 13 -28 7 -34 -8 -6 -18 -36
-9 -36 11 0 8 4 14 9 14 5 0 11 9 14 20 3 13 0 20 -9 20 -8 0 -14 4 -14 8 0 5
-18 15 -40 22 -22 7 -40 17 -40 22 0 4 -6 8 -13 8 -7 0 -20 9 -30 20 -16 19
-16 21 0 40 10 11 25 20 34 20 12 0 16 -6 12 -20 -4 -15 0 -20 16 -20 21 0 25
11 21 58 -2 25 11 27 59 11 38 -13 50 -6 27 16 -9 9 -16 23 -16 31 0 10 -12
14 -40 14 -22 0 -40 5 -40 10 0 6 -9 19 -19 29 -20 20 -21 18 -145 -185z"/>
<path d="M5125 7331 c19 -7 19 -8 -3 -27 -36 -30 -28 -44 26 -44 35 0 52 -5
65 -20 9 -11 17 -24 17 -29 0 -15 37 -51 54 -51 9 0 16 8 16 20 0 11 -5 20
-10 20 -10 0 -28 18 -71 69 -9 10 -8 15 2 22 22 14 37 11 49 -11 17 -31 37
-25 32 10 -3 24 0 32 19 39 17 7 -11 10 -96 10 -66 0 -111 -4 -100 -8z"/>
<path d="M6168 7311 c35 -32 39 -46 19 -54 -20 -8 -35 5 -42 36 -7 25 -35 39
-35 17 0 -12 -47 -13 -52 -1 -1 4 -13 12 -25 15 l-23 7 0 -1230 c0 -1088 2
-1231 15 -1231 8 0 15 -9 15 -19 0 -19 18 -31 47 -31 18 0 43 -24 43 -42 1
-23 26 -48 49 -48 31 0 28 -38 -4 -46 -35 -9 -35 -49 1 -58 16 -4 29 -17 36
-36 12 -37 26 -38 34 -5 8 34 24 32 24 -4 0 -38 20 -93 33 -88 5 1 211 643
457 1425 l447 1422 -536 0 -535 0 32 -29z"/>
<path d="M7453 7325 c-38 -101 -989 -3161 -982 -3163 5 -2 9 -10 9 -18 0 -8 9
-14 20 -14 13 0 20 7 20 20 0 13 -7 20 -20 20 -11 0 -20 7 -20 15 0 11 11 15
40 15 28 0 40 -4 40 -14 0 -20 29 -28 44 -13 7 7 15 39 19 71 3 32 7 60 9 61
2 2 22 1 46 -2 29 -4 42 -10 42 -21 0 -12 3 -13 12 -4 7 7 8 15 1 24 -16 21
-8 112 11 116 9 2 16 -1 16 -7 0 -5 7 -17 16 -25 14 -15 87 93 846 1261 457
703 882 1358 945 1456 l116 178 -21 19 c-24 23 -32 25 -32 9 0 -33 -87 -61
-97 -31 -3 6 2 12 11 12 27 0 19 39 -9 46 -26 6 -84 -12 -97 -30 -5 -7 -8 -4
-8 6 0 27 -94 36 -202 18 -41 -6 -64 -6 -66 0 -2 6 -132 10 -353 10 -306 0
-350 -2 -356 -15z"/>
<path d="M9405 7228 c0 -27 -4 -34 -23 -36 -38 -6 -23 -38 16 -34 26 2 32 -2
32 -18 0 -11 -4 -20 -10 -20 -5 0 -10 -9 -10 -20 0 -11 5 -20 10 -20 6 0 10
-6 10 -13 0 -7 9 -20 20 -30 19 -16 18 -47 -1 -47 -5 0 -9 -9 -9 -20 0 -11 5
-20 10 -20 6 0 10 -7 10 -15 0 -8 -4 -15 -10 -15 -16 0 -12 -37 5 -44 17 -6
45 2 45 14 0 13 45 60 58 60 7 0 12 9 12 19 0 11 7 26 15 35 8 8 15 27 15 43
1 81 40 99 92 41 15 -17 28 -26 28 -20 0 7 7 12 15 12 8 0 15 -6 15 -12 0 -9
3 -10 8 -2 4 6 25 14 46 17 22 4 43 11 46 18 4 6 23 11 41 12 31 2 34 0 37
-30 3 -34 21 -46 23 -15 2 33 -2 42 -35 75 l-32 33 -28 -28 c-26 -26 -32 -28
-79 -22 -29 4 -53 11 -55 15 -2 5 -14 9 -26 9 -13 0 -35 11 -50 25 -15 14 -32
25 -37 25 -27 0 -99 -24 -99 -33 0 -5 -9 0 -20 13 -11 13 -20 29 -20 36 0 18
-28 44 -48 44 -13 0 -17 -9 -17 -32z"/>
<path d="M8917 7198 c-19 -29 -239 -369 -490 -755 -338 -520 -454 -707 -450
-722 7 -29 31 -26 39 5 17 66 94 96 94 36 0 -14 5 -41 12 -59 10 -27 17 -33
40 -33 24 0 28 4 28 29 0 53 8 61 60 61 44 0 48 2 43 21 -3 11 -12 23 -19 26
-20 8 -17 50 5 72 10 10 33 22 50 26 26 5 31 4 31 -12 0 -10 -9 -27 -21 -36
-25 -22 -22 -60 6 -66 11 -2 30 -14 42 -27 12 -13 27 -24 33 -24 15 0 12 20
-5 26 -45 18 10 51 62 38 23 -6 25 -4 20 15 -4 17 -1 21 19 21 15 0 24 6 24
15 0 9 9 25 20 37 13 15 20 36 20 64 0 37 -3 43 -22 46 -22 3 -23 7 -19 75 2
60 0 74 -13 79 -20 8 -21 24 -1 24 8 0 15 -4 15 -9 0 -5 14 -12 31 -16 17 -4
33 -13 36 -21 7 -18 30 -18 49 0 18 19 18 26 -2 26 -23 0 -44 25 -44 55 0 14
-7 28 -15 31 -8 4 -15 12 -15 20 0 20 40 17 56 -3 12 -17 13 -17 14 -1 0 9 -4
20 -10 23 -17 10 -11 25 9 25 10 0 21 -7 25 -15 3 -8 12 -15 20 -15 7 0 16 -6
19 -14 3 -7 24 -16 47 -20 25 -4 50 -16 64 -31 27 -29 32 -30 52 -11 7 8 19
17 26 19 10 4 10 8 -2 16 -8 5 -12 13 -8 16 12 12 49 -6 58 -28 6 -16 9 -5 9
42 1 56 -1 62 -16 56 -30 -13 -127 -12 -140 1 -7 7 -14 23 -15 35 -3 22 1 24
52 26 83 4 97 10 109 44 13 38 36 33 36 -7 0 -27 2 -29 45 -31 80 -4 160 8
160 23 0 8 -4 14 -8 14 -11 0 -32 46 -32 70 0 11 -12 24 -30 32 -16 7 -30 16
-30 19 0 4 -13 9 -30 13 -31 6 -43 36 -14 36 11 0 15 6 11 20 -10 38 51 69 70
36 4 -8 20 -18 36 -21 21 -6 27 -4 27 8 0 9 -9 19 -20 22 -11 3 -20 11 -20 16
0 6 -11 20 -25 33 -14 13 -25 33 -25 45 0 18 4 20 28 15 15 -4 29 -11 30 -16
2 -4 16 -8 32 -8 20 0 31 6 35 20 8 24 -1 40 -21 40 -19 0 -18 29 2 37 8 3 20
1 27 -6 6 -6 20 -11 30 -11 28 0 46 -29 47 -72 0 -49 -16 -88 -35 -88 -30 0
-12 -35 20 -38 16 -2 34 -9 38 -15 5 -7 6 0 2 16 -12 57 25 97 39 42 8 -30 36
-60 65 -70 31 -10 26 15 -9 45 -17 13 -30 30 -30 36 0 7 -6 15 -12 17 -10 4
-10 6 0 6 15 1 17 101 2 101 -5 0 -10 14 -10 31 0 22 -5 32 -20 36 -23 6 -27
33 -5 33 15 0 16 7 19 127 l1 48 -68 2 c-56 1 -69 -2 -74 -15 -4 -10 -14 -25
-25 -35 -17 -17 -18 -17 -18 18 0 27 -4 35 -17 35 -29 0 -41 -13 -45 -45 -3
-29 -5 -30 -53 -30 -48 0 -50 2 -59 32 -7 24 -16 33 -35 35 -31 4 -40 38 -17
61 20 20 21 74 1 93 -12 13 -18 8 -48 -38z"/>
<path d="M3790 7170 c0 -15 7 -20 25 -20 33 0 32 -18 -1 -26 -19 -5 -22 -9
-12 -15 11 -7 10 -11 -2 -19 -22 -15 -57 -12 -74 6 -14 13 -16 13 -16 0 0 -19
27 -46 46 -46 8 0 14 -7 14 -16 0 -23 -49 -66 -67 -60 -8 3 -19 6 -24 6 -5 0
-9 7 -9 15 0 8 -4 15 -10 15 -5 0 -10 7 -10 15 0 19 -7 19 -26 1 -15 -16 -19
-46 -6 -46 5 0 21 -11 37 -24 22 -19 26 -29 21 -50 -4 -17 -13 -26 -26 -26
-11 0 -20 5 -20 10 0 6 -7 10 -15 10 -8 0 -15 -4 -15 -10 0 -5 -8 -10 -17 -10
-42 -1 -46 -17 -14 -47 32 -32 45 -93 18 -93 -7 0 -20 -9 -30 -20 -9 -11 -24
-20 -32 -20 -17 0 -39 46 -31 64 3 7 5 6 5 -1 2 -21 29 -15 36 8 4 11 4 23 1
27 -8 7 -126 16 -126 9 0 -3 252 -394 561 -869 498 -767 563 -864 590 -869 26
-6 29 -4 29 17 0 15 6 24 15 24 8 0 15 -6 15 -14 0 -8 14 -20 30 -28 26 -11
30 -18 30 -51 0 -30 4 -40 20 -44 11 -3 20 -12 20 -19 0 -8 5 -14 10 -14 6 0
10 7 10 15 0 8 -4 15 -10 15 -5 0 -10 7 -10 15 0 19 31 55 47 55 8 0 13 12 13
29 0 16 3 36 6 45 6 17 34 22 34 7 0 -5 9 -11 21 -14 12 -3 20 -13 19 -24 -6
-49 15 -58 52 -23 49 46 107 16 119 -61 7 -47 20 -68 41 -69 8 0 28 -63 -265
871 -134 428 -251 784 -260 793 -8 9 -27 16 -40 16 -14 0 -27 7 -31 15 -7 19
-26 20 -26 1 0 -8 11 -17 25 -20 28 -7 33 -31 9 -40 -9 -3 -31 -6 -49 -6 -18
0 -35 -5 -37 -10 -2 -6 -17 -12 -33 -13 -29 -2 -30 -1 -27 36 3 33 0 37 -20
37 -22 0 -24 4 -24 54 -1 37 -7 60 -18 71 -19 20 -48 13 -40 -10 3 -8 1 -15
-5 -15 -6 0 -11 5 -11 10 0 6 -8 10 -18 10 -30 0 -72 24 -78 45 -4 11 -14 25
-22 31 -10 7 -13 19 -8 37 5 22 12 27 36 27 52 0 36 27 -20 34 -31 4 -53 13
-57 21 -7 19 -23 19 -23 0 0 -9 -9 -15 -25 -15 -22 0 -25 4 -25 34 0 30 -4 35
-30 41 -16 4 -30 11 -30 16 0 5 -9 9 -19 9 -11 0 -26 7 -35 15 -8 8 -23 15
-33 15 -12 0 -14 3 -6 8 6 4 15 20 18 35 4 16 14 31 21 34 8 3 14 20 14 39 0
34 -1 34 -45 34 -38 0 -45 -3 -45 -20z"/>
<path d="M5692 7020 c-6 -11 -12 -33 -12 -50 0 -16 -4 -30 -10 -30 -5 0 -10
-7 -10 -15 0 -8 9 -15 20 -15 11 0 20 -5 20 -10 0 -13 49 -60 61 -60 5 0 9 45
9 100 l0 100 -33 0 c-21 0 -36 -7 -45 -20z"/>
<path d="M5750 6754 c0 -8 -13 -29 -29 -45 -16 -16 -37 -29 -45 -29 -9 0 -16
-8 -16 -17 0 -10 -11 -28 -25 -41 -19 -19 -31 -22 -59 -17 -32 6 -34 5 -29
-14 4 -14 0 -23 -13 -28 -27 -10 -44 -29 -44 -50 0 -21 -20 -56 -20 -35 0 8
-19 12 -60 12 -45 0 -62 4 -66 15 -4 8 -15 15 -25 15 -10 0 -19 -7 -19 -15 0
-8 -6 -15 -14 -15 -8 0 -17 -6 -19 -12 -4 -10 -6 -10 -6 0 -1 6 -7 12 -15 12
-8 0 -22 7 -31 16 -8 9 -34 17 -55 18 -48 3 -63 16 -63 55 0 26 -3 29 -19 20
-15 -8 -18 -17 -13 -40 6 -25 4 -29 -17 -30 -33 0 -150 -6 -169 -8 -42 -3 -29
-54 223 -855 136 -435 253 -792 258 -794 6 -2 10 -15 10 -28 0 -15 6 -24 15
-24 10 0 15 10 15 34 0 21 -6 36 -15 40 -17 6 -19 33 -5 56 8 13 11 12 24 -5
9 -11 16 -26 16 -33 0 -16 24 -42 39 -42 11 0 14 11 15 65 1 35 30 47 39 15 6
-24 20 -26 41 -5 18 19 24 19 42 1 21 -22 17 -33 -16 -45 -16 -5 -30 -17 -30
-25 0 -9 -7 -16 -15 -16 -8 0 -15 -4 -15 -10 0 -5 -9 -10 -20 -10 -28 0 -25
-12 14 -54 25 -26 43 -36 65 -36 26 0 31 -4 36 -34 6 -27 11 -33 26 -29 10 3
19 12 19 19 0 8 5 14 10 14 6 0 10 7 10 15 0 9 9 15 21 15 22 0 49 -22 49 -39
0 -6 5 -11 10 -11 7 0 10 352 10 1035 0 683 -3 1035 -10 1035 -5 0 -10 -7 -10
-16z"/>
<path d="M3250 6545 c0 -8 -4 -15 -10 -15 -5 0 -10 -15 -10 -32 0 -43 -37 -78
-80 -78 -30 0 -31 -2 -25 -30 5 -25 3 -30 -12 -30 -38 0 -53 -35 -53 -120 0
-69 -3 -82 -20 -92 -11 -7 -20 -21 -20 -30 0 -21 41 -64 70 -73 18 -6 20 -15
20 -76 0 -39 -4 -69 -10 -69 -5 0 -10 -9 -10 -20 0 -11 4 -20 9 -20 5 0 11
-12 13 -27 2 -17 12 -32 26 -38 12 -5 22 -13 22 -17 0 -5 7 -8 15 -8 8 0 15 7
15 15 0 26 31 4 37 -26 5 -24 10 -29 35 -29 21 0 31 -6 35 -20 3 -11 14 -20
24 -20 15 0 19 -7 19 -40 0 -48 20 -71 78 -88 23 -7 42 -18 42 -25 0 -7 4 -6
10 3 13 20 158 19 171 -1 17 -26 5 -44 -28 -44 -34 0 -62 -19 -48 -32 4 -5 10
-2 12 5 9 23 23 12 23 -18 0 -22 5 -30 18 -30 10 0 25 -9 35 -20 9 -11 23 -20
31 -20 8 0 17 -7 20 -16 4 -11 20 -15 63 -14 58 1 131 -5 138 -12 2 -1 6 -15
10 -30 10 -39 -18 -49 -46 -17 l-21 24 4 -34 c3 -34 4 -35 52 -36 39 0 50 3
54 17 2 10 8 18 13 18 5 0 9 11 9 24 0 45 13 86 26 86 8 0 14 -8 14 -18 0 -10
13 -29 28 -42 15 -14 31 -33 35 -42 3 -10 12 -18 18 -18 8 0 7 7 -3 23 -376
586 -823 1267 -834 1267 -8 0 -14 -7 -14 -15z"/>
<path d="M7660 5263 c-272 -420 -320 -503 -291 -503 6 0 11 -9 11 -20 0 -11
-4 -20 -10 -20 -18 0 -10 -50 11 -71 26 -26 20 -32 -23 -24 l-34 7 4 61 c2 45
0 58 -7 47 -6 -8 -11 -21 -11 -28 0 -8 -9 -21 -19 -30 -25 -21 -214 -312 -203
-312 16 0 31 -117 21 -155 -9 -30 -14 -35 -39 -35 -25 0 -30 -4 -30 -25 0 -14
-4 -25 -10 -25 -5 0 -10 -20 -10 -45 0 -25 -4 -45 -10 -45 -5 0 -10 5 -10 10
0 6 -7 10 -16 10 -10 0 -14 -6 -10 -15 7 -20 -3 -45 -19 -45 -7 0 -15 7 -19
15 -8 22 -62 19 -87 -6 -28 -28 -19 -44 27 -44 49 0 64 -10 64 -40 0 -14 9
-29 20 -35 12 -6 20 -21 20 -35 0 -14 4 -25 9 -25 5 0 11 -10 13 -22 2 -18 11
-24 36 -26 25 -3 32 -8 32 -24 0 -24 43 -68 67 -68 12 0 14 6 8 28 -3 15 -13
31 -21 35 -18 10 -18 37 0 37 8 0 17 6 19 13 3 6 6 0 6 -14 1 -18 8 -28 22
-32 18 -5 21 -11 16 -36 -4 -17 -4 -38 -1 -46 8 -20 54 -20 54 0 0 11 11 15
40 15 22 0 40 5 40 10 0 6 9 10 20 10 37 0 21 -42 -20 -55 -14 -4 -33 -16 -42
-26 -20 -20 -24 -49 -8 -49 6 0 10 -7 10 -15 0 -10 -10 -15 -30 -15 -26 0 -30
4 -30 28 0 49 -83 98 -105 61 -9 -13 28 -49 50 -49 15 0 20 -26 9 -54 -7 -19
-30 -21 -37 -3 -9 24 -22 -5 -22 -51 0 -32 -6 -52 -17 -63 -10 -9 -18 -27 -18
-39 0 -21 3 -22 50 -16 39 5 50 4 50 -7 0 -8 13 -17 29 -20 16 -3 31 -13 34
-21 4 -10 1 -13 -9 -9 -7 3 -14 9 -14 14 0 5 -9 9 -20 9 -11 0 -20 -5 -20 -11
0 -6 -7 -3 -16 5 -27 28 -40 18 -54 -41 -14 -64 -23 -77 -63 -87 -22 -5 -27
-12 -27 -36 0 -20 -6 -31 -20 -35 -11 -3 -20 -11 -20 -16 0 -5 -9 -9 -20 -9
-11 0 -20 -7 -20 -15 0 -10 11 -15 35 -15 19 0 35 -4 35 -10 0 -5 -13 -10 -30
-10 -16 0 -30 -3 -30 -7 0 -5 -11 -21 -25 -37 -14 -16 -25 -33 -25 -37 0 -4
-13 -10 -30 -14 -30 -6 -30 -8 -30 -71 0 -46 -4 -66 -14 -70 -24 -9 -30 -56
-9 -72 15 -11 16 -14 3 -22 -13 -8 -12 -10 3 -10 9 0 17 5 17 10 0 10 36 50
45 50 18 0 43 -45 51 -90 l9 -54 30 28 c26 24 36 27 73 23 25 -3 48 -12 56
-22 11 -16 14 -16 28 -1 23 23 35 20 68 -14 33 -34 40 -36 40 -15 0 9 9 15 25
15 18 0 25 -5 25 -20 0 -11 5 -20 10 -20 6 0 10 23 10 50 0 42 3 50 19 50 19
0 31 -25 31 -67 0 -26 15 -31 24 -8 7 19 33 19 43 0 6 -10 27 -16 61 -17 52
-3 53 -4 50 -32 -2 -16 -11 -34 -20 -40 -14 -8 -22 -4 -42 19 l-26 30 0 -51
c0 -37 -4 -54 -15 -58 -8 -3 -15 -15 -15 -26 0 -17 6 -20 45 -20 39 0 50 -5
78 -35 17 -19 37 -35 44 -35 6 0 14 -6 17 -12 8 -17 -1 60 -10 92 -7 24 -7 24
19 -5 45 -51 47 -54 47 -74 0 -11 -6 -21 -12 -23 -9 -3 -8 -9 5 -22 16 -17 17
-16 17 13 0 17 5 31 10 31 6 0 10 7 10 15 0 8 -4 15 -10 15 -5 0 -10 9 -10 20
0 11 5 20 10 20 6 0 10 -4 10 -10 0 -5 9 -10 20 -10 16 0 20 7 20 31 0 30 1
31 35 25 l35 -7 0 40 c0 57 8 71 41 71 25 0 30 -5 36 -30 6 -34 29 -40 38 -10
3 11 11 20 16 20 5 0 9 7 9 15 0 8 -7 15 -15 15 -12 0 -13 9 -8 47 10 72 39
94 63 48 21 -40 80 -46 80 -9 0 8 -9 14 -20 14 -11 0 -20 4 -20 8 0 9 -59 32
-83 32 -9 0 -17 4 -17 9 0 5 -10 11 -22 13 -13 2 -23 10 -23 18 0 21 68 26 88
6 17 -18 57 -22 57 -6 0 6 -6 10 -14 10 -8 0 -20 16 -26 36 -13 37 -42 74 -60
74 -16 0 -12 -30 5 -36 26 -10 17 -34 -13 -34 -28 0 -62 29 -62 53 0 7 -9 23
-20 35 -11 12 -20 27 -20 34 0 8 -9 21 -20 31 -11 9 -20 21 -20 26 0 5 9 7 20
4 11 -3 20 -11 20 -19 0 -15 43 -29 59 -19 24 14 11 58 -29 97 -22 22 -40 46
-40 54 0 8 -5 14 -12 14 -6 0 -9 2 -6 5 13 14 59 -9 64 -31 7 -29 9 -29 34 -4
21 21 28 70 10 70 -5 0 -10 7 -10 16 0 9 -9 18 -20 21 -11 3 -20 10 -20 15 0
5 -6 3 -14 -5 -17 -16 -58 -16 -64 1 -2 7 6 12 17 12 22 0 31 35 11 42 -5 2
-13 19 -17 38 -6 33 -5 34 10 18 9 -9 17 -22 17 -29 0 -41 103 -79 116 -44 7
17 34 21 34 5 0 -5 7 -10 15 -10 8 0 15 5 15 10 0 6 7 10 15 10 8 0 15 -6 15
-14 0 -8 8 -17 18 -19 9 -3 3 -5 -14 -6 l-31 -1 3 -62 c1 -35 8 -64 13 -66 6
-2 11 -10 11 -18 0 -8 6 -14 14 -14 8 0 17 -13 21 -30 4 -17 13 -30 21 -30 11
0 14 16 14 65 0 50 3 65 14 65 20 0 29 16 21 40 -4 14 -15 20 -36 20 -41 0
-37 23 7 36 32 10 37 10 41 -6 5 -21 45 -34 73 -25 15 5 20 -1 26 -29 4 -22
12 -36 21 -36 11 0 13 9 8 44 -6 41 -5 44 19 50 17 4 26 13 26 27 0 19 -4 20
-54 14 -51 -7 -54 -6 -60 19 -3 14 -13 26 -21 26 -8 0 -15 7 -15 15 0 8 -4 15
-10 15 -5 0 -10 6 -10 14 0 21 -17 29 -45 22 -18 -5 -26 -15 -31 -41 -6 -36
-24 -44 -53 -26 -12 8 -7 16 22 42 20 18 37 39 37 46 0 7 5 13 10 13 6 0 10 7
10 15 0 12 11 15 53 13 52 -3 52 -3 55 28 l3 31 -70 7 c-55 6 -69 10 -64 22 4
10 22 14 62 14 45 0 59 -4 69 -20 7 -11 19 -20 26 -20 11 0 13 -9 9 -35 -6
-36 4 -43 41 -29 17 7 22 40 7 46 -5 2 -13 15 -16 31 -6 23 -4 27 14 27 12 0
24 7 27 15 9 23 22 18 60 -20 38 -39 64 -45 64 -15 0 11 -7 20 -15 20 -8 0
-23 9 -32 20 -10 11 -22 20 -28 20 -13 0 -45 36 -45 50 0 14 18 12 23 -2 5
-16 99 -16 105 1 2 6 12 11 23 11 12 0 19 7 19 20 0 16 -7 20 -35 20 -19 0
-35 -4 -35 -10 0 -5 -11 -10 -25 -10 -14 0 -25 3 -25 8 1 17 29 42 49 42 14 0
21 6 21 20 0 11 -7 20 -15 20 -36 0 -8 61 35 75 25 8 25 20 0 47 -24 26 -11
58 23 58 17 0 26 -9 35 -34 8 -20 21 -36 35 -40 33 -9 37 -8 37 13 0 13 9 21
30 26 17 4 30 13 30 21 0 8 5 14 11 14 6 0 9 14 7 32 -2 24 -8 33 -23 35 -11
2 -14 0 -7 -3 22 -10 13 -34 -14 -34 -17 0 -28 -6 -31 -20 -3 -11 -13 -20 -23
-20 -30 0 -50 28 -50 72 l0 40 -55 -7 c-70 -8 -72 1 -11 53 20 16 44 15 62 -3
23 -23 96 -20 117 5 24 28 22 30 -25 28 -24 -1 -43 3 -46 10 -2 7 -19 12 -38
12 -30 0 -34 3 -34 25 0 23 4 25 45 25 25 0 45 5 45 10 0 14 37 12 44 -2 3 -7
4 10 3 37 l-2 50 -49 -2 c-33 -1 -52 -7 -58 -17 -12 -22 -28 -20 -28 4 0 11 5
20 10 20 16 0 11 27 -6 34 -28 11 -42 6 -49 -14 -13 -40 -25 -18 -25 45 0 51
3 65 15 65 22 0 18 27 -5 33 -23 6 -27 37 -6 37 23 0 28 17 21 74 -6 46 -11
55 -31 60 -27 7 -32 31 -8 40 26 10 44 7 44 -9 0 -21 37 -37 71 -30 20 5 29
13 29 26 0 10 -4 19 -10 19 -5 0 -10 7 -10 15 0 8 7 15 15 15 10 0 15 10 15
29 0 16 6 31 15 35 11 4 15 -2 15 -24 0 -33 12 -44 40 -35 19 6 29 35 11 35
-5 0 -11 13 -14 29 -6 27 -10 29 -56 33 -44 3 -51 1 -53 -17 -2 -13 -12 -21
-30 -23 -26 -3 -28 -1 -28 35 -1 30 -3 34 -10 21 -8 -14 -22 -16 -73 -14 l-62
3 3 37 c3 27 0 36 -12 36 -18 0 -79 57 -89 83 -4 11 -1 20 8 23 8 4 15 12 15
20 0 8 6 11 15 8 18 -7 20 -40 3 -47 -10 -4 -9 -8 2 -16 24 -17 34 -13 48 18
11 24 11 34 0 53 -18 32 -56 68 -72 68 -8 0 -16 7 -20 15 -3 9 -18 15 -36 15
-23 0 -33 -6 -40 -25 -8 -21 -16 -25 -53 -25 -29 0 -50 6 -65 20 -12 12 -35
20 -55 20 -32 0 -35 3 -40 36 -7 39 -47 84 -76 84 -19 0 -31 19 -31 49 0 9 -9
23 -20 31 -25 18 -26 47 -1 55 11 3 22 12 25 20 3 8 15 15 26 15 11 0 20 5 20
10 0 6 7 10 15 10 8 0 15 -4 15 -10 0 -5 14 -10 30 -10 17 0 30 5 30 10 0 16
27 12 34 -5 11 -30 33 -16 40 25 3 22 10 40 14 40 14 0 33 60 30 97 l-3 38
-57 3 c-32 2 -58 7 -58 12 0 6 9 10 19 10 30 0 51 11 51 26 0 8 -3 14 -8 14
-4 0 -13 14 -20 30 -8 17 -17 30 -20 30 -4 -1 -140 -206 -302 -457z m32 -405
c10 -10 31 -21 47 -24 26 -6 29 -3 35 30 8 41 15 44 38 17 25 -30 32 -61 14
-61 -12 0 -16 -10 -16 -35 0 -31 -3 -35 -25 -35 -14 0 -25 -4 -25 -10 0 -5 -6
-10 -14 -10 -8 0 -22 -7 -30 -16 -15 -14 -17 -14 -32 0 -8 9 -22 16 -30 16 -8
0 -14 -7 -14 -16 0 -14 -1 -14 -16 0 -26 26 -49 16 -59 -27 -7 -26 -5 -27 29
-27 25 0 36 4 36 15 0 23 29 6 36 -21 3 -13 10 -24 15 -24 5 0 9 -4 9 -10 0
-5 -11 -10 -25 -10 -14 0 -25 -4 -25 -10 0 -15 -27 -12 -33 4 -3 7 -18 16 -32
20 -15 4 -34 14 -42 21 -19 19 -38 19 -58 -1 -20 -21 -24 -17 -18 23 4 22 9
30 19 26 8 -3 17 3 21 13 4 11 19 31 35 46 32 30 33 34 13 55 -14 13 -13 17 7
39 14 14 35 24 51 24 16 0 36 7 45 16 12 12 17 13 20 4 3 -7 13 -21 24 -32z
m-214 -2044 c12 -4 22 -13 22 -20 0 -8 5 -14 10 -14 6 0 10 -6 10 -14 0 -22
17 -28 33 -11 11 10 17 11 19 3 2 -6 24 -11 48 -12 45 -1 45 -1 45 34 0 41 32
57 42 21 3 -12 12 -22 19 -22 8 -1 20 -2 27 -3 6 -1 11 7 9 17 -7 42 49 9 77
-46 8 -15 18 -27 23 -27 4 0 8 -9 8 -20 0 -11 -4 -20 -8 -20 -5 0 -19 -9 -32
-20 -13 -11 -29 -20 -37 -20 -8 0 -19 -13 -24 -30 -9 -24 -17 -30 -39 -30 -16
0 -30 5 -32 12 -2 6 -21 11 -43 10 -29 -1 -44 4 -61 23 l-23 25 59 0 c33 0 60
4 60 9 0 12 -26 21 -61 21 -25 0 -30 5 -35 30 -5 23 -12 30 -29 30 -15 0 -25
-7 -28 -21 -8 -28 -42 -21 -41 9 0 14 -5 22 -17 22 -9 0 -19 7 -23 15 -3 8
-12 15 -21 15 -8 0 -15 9 -15 20 0 21 16 25 58 14z"/>
<path d="M8496 5233 c-3 -21 -6 -53 -6 -70 0 -18 -5 -33 -11 -33 -6 0 -17 -7
-25 -15 -19 -19 -30 -19 -46 -2 -10 11 -15 12 -25 1 -20 -20 -15 -41 11 -48
15 -4 28 -17 34 -36 6 -16 18 -30 26 -30 8 0 16 -4 18 -9 2 -5 15 -13 31 -16
21 -6 27 -4 27 9 0 9 -4 16 -10 16 -5 0 -10 9 -10 20 0 11 7 20 15 20 8 0 15
-7 15 -15 0 -8 6 -15 14 -15 9 0 13 11 12 33 -1 26 3 33 22 35 12 2 22 -1 22
-7 0 -6 9 -11 20 -11 11 0 20 -4 20 -10 0 -5 6 -10 13 -10 8 0 24 -9 37 -20
13 -11 26 -20 30 -20 8 0 20 75 20 121 0 16 4 29 9 29 9 0 31 53 31 76 0 8 -9
14 -20 14 -11 0 -23 7 -26 15 -8 19 -64 20 -64 2 0 -8 12 -14 30 -14 38 0 44
-6 36 -38 -5 -21 -12 -25 -41 -25 -28 0 -35 4 -35 20 0 11 -7 20 -15 20 -8 0
-15 5 -15 10 0 6 -18 10 -39 10 -22 0 -46 7 -55 15 -25 26 -43 18 -50 -22z"/>
<path d="M4120 5162 c0 -5 -12 -15 -27 -23 -33 -17 -57 -40 -66 -62 -3 -9 -11
-17 -17 -17 -5 0 -10 -7 -10 -16 0 -11 6 -14 23 -8 12 3 23 11 25 15 7 17 32
-20 32 -45 0 -19 -7 -27 -25 -32 -16 -4 -25 -13 -25 -25 0 -14 7 -19 25 -19
14 0 25 -4 25 -10 0 -5 16 -10 35 -10 19 0 35 5 35 10 0 6 20 10 45 10 34 0
45 -4 45 -16 0 -24 -19 -54 -35 -54 -7 0 -16 -6 -18 -12 -4 -10 -8 -9 -16 2
-8 11 -30 15 -88 15 -81 0 -108 -13 -126 -58 -3 -9 -13 -17 -22 -17 -8 0 -15
-7 -15 -15 0 -8 7 -15 15 -15 9 0 18 -7 21 -15 9 -22 24 -18 24 6 0 19 4 21
32 15 17 -3 41 -16 51 -27 18 -19 27 -21 91 -14 39 4 74 12 79 18 4 7 6 35 3
63 -6 51 -6 52 25 58 62 12 69 9 69 -29 0 -28 4 -35 20 -35 11 0 20 5 20 10 0
6 7 10 15 10 18 0 19 5 3 29 -7 11 -19 16 -30 13 -15 -3 -18 1 -18 27 0 36
-143 267 -148 239 -4 -19 -26 -30 -47 -22 -17 7 -20 24 -5 24 6 0 10 9 10 20
0 11 -7 20 -15 20 -8 0 -15 -4 -15 -8z"/>
<path d="M3680 4783 c0 -9 -48 -33 -66 -33 -7 0 -14 5 -16 12 -3 9 -15 9 -51
-1 -49 -14 -58 -29 -31 -55 14 -15 14 -17 -1 -32 -10 -10 -16 -31 -15 -53 3
-61 2 -64 -15 -47 -8 8 -15 21 -15 28 0 9 -13 12 -50 10 -45 -4 -50 -6 -50
-28 0 -13 5 -24 10 -24 6 0 10 5 10 10 0 6 9 10 20 10 11 0 20 -4 20 -10 0 -5
7 -10 16 -10 24 0 44 -25 44 -55 0 -25 -3 -27 -27 -20 -16 3 -29 11 -31 16 -5
12 -32 12 -32 -1 0 -5 -15 -11 -32 -11 -18 -1 -25 -3 -15 -6 9 -2 17 -11 17
-19 0 -19 30 -51 50 -55 22 -3 70 12 70 22 0 20 44 7 70 -21 28 -30 50 -39 50
-20 0 27 50 3 63 -30 4 -12 6 -11 6 3 1 13 10 17 36 17 19 0 35 4 35 9 0 5 14
14 30 21 28 12 42 40 20 40 -5 0 -10 10 -11 23 l0 22 -11 -22 c-10 -21 -38
-32 -38 -15 0 4 -8 12 -18 18 -16 10 -17 8 -14 -21 4 -33 3 -34 -41 -40 -64
-10 -85 -1 -93 41 -3 19 -12 41 -19 47 -17 18 -29 57 -16 57 21 0 41 -13 41
-27 0 -19 24 -43 43 -43 8 0 18 11 21 25 4 17 13 25 29 25 12 0 39 5 60 11 29
8 37 15 37 33 0 13 -7 26 -15 30 -8 3 -15 12 -15 21 0 8 -4 15 -10 15 -5 0
-10 10 -10 21 0 19 -4 21 -31 15 -17 -3 -42 -3 -55 0 -29 7 -32 34 -5 34 11 0
26 7 35 15 8 8 24 15 36 15 16 0 20 4 16 16 -3 9 -6 18 -6 20 0 2 -7 4 -15 4
-8 0 -15 -3 -15 -7z"/>
<path d="M4455 4693 c-13 -12 -16 -27 -12 -57 4 -26 1 -47 -7 -58 -14 -19 -66
-25 -66 -8 0 6 -7 10 -15 10 -21 0 -19 -33 4 -50 26 -18 12 -46 -29 -55 -30
-7 -43 -35 -16 -35 23 0 26 -26 5 -43 -10 -9 -19 -23 -19 -30 0 -14 35 -47 50
-47 11 0 26 48 21 69 -1 7 7 22 18 33 12 10 21 15 21 10 0 -6 16 -13 35 -16
32 -6 35 -10 34 -39 0 -18 -3 -26 -6 -19 -10 25 -63 2 -63 -27 0 -6 -7 -11
-15 -11 -8 0 -15 -9 -15 -20 0 -16 -7 -20 -35 -20 -22 0 -38 -6 -41 -15 -5
-12 -8 -12 -20 0 -17 17 -18 32 -1 38 6 3 -9 6 -35 6 -46 1 -47 0 -54 -33 -3
-19 -3 -48 1 -65 6 -30 6 -31 -29 -31 -20 0 -36 -4 -36 -10 0 -5 13 -10 29
-10 16 0 31 -6 35 -15 3 -8 10 -15 15 -15 5 0 16 7 25 15 8 8 19 15 25 15 16
0 14 16 -4 34 -31 30 -18 41 65 52 27 4 50 10 50 14 0 4 20 10 46 13 27 3 50
12 58 22 10 15 21 16 59 11 31 -5 47 -4 47 3 0 6 -6 11 -14 11 -8 0 -18 9 -21
21 -5 16 1 29 28 54 46 43 56 74 27 82 -17 4 -20 11 -16 32 9 41 -6 55 -28 26
-10 -14 -25 -25 -32 -25 -7 0 -16 -9 -19 -20 -7 -22 -15 -23 -64 -14 -40 8
-41 34 -1 34 22 0 30 5 30 18 0 10 9 26 21 36 14 11 20 26 17 41 -4 17 -1 22
10 18 12 -5 12 -2 3 15 -7 12 -19 22 -27 22 -11 0 -13 6 -9 19 8 26 -10 35
-30 14z"/>
<path d="M6010 4420 l0 -120 25 0 c14 0 25 -6 25 -12 0 -9 3 -9 9 1 10 16 90
19 100 3 6 -10 31 -15 62 -13 22 2 76 181 57 192 -20 13 -45 11 -62 -6 -17
-17 -26 -19 -26 -5 0 19 -40 50 -65 50 -14 0 -25 -4 -25 -9 0 -5 -9 -11 -21
-14 -17 -5 -19 -10 -13 -43 5 -26 4 -35 -5 -30 -6 4 -11 23 -11 42 0 19 -4 34
-9 34 -5 0 -12 11 -15 25 -4 14 -11 25 -16 25 -6 0 -10 -48 -10 -120z"/>
<path d="M4646 4325 c-6 -18 2 -45 15 -45 5 0 9 -7 9 -15 0 -8 5 -15 10 -15 6
0 10 5 10 10 0 15 57 12 62 -2 2 -7 1 -31 -2 -53 l-5 -40 -22 24 c-28 30 -53
22 -53 -18 0 -36 -36 -54 -55 -27 -7 9 -26 16 -44 16 -19 0 -30 4 -26 10 3 6
19 10 36 10 24 0 29 4 29 24 0 28 -10 33 -56 28 -20 -3 -34 -10 -34 -18 0 -8
-9 -14 -20 -14 -15 0 -22 -9 -26 -30 -4 -16 -10 -30 -15 -30 -5 0 -9 -7 -9
-15 0 -8 4 -15 9 -15 5 0 12 -16 15 -35 10 -49 49 -45 69 8 5 13 18 17 51 17
24 0 51 2 58 5 9 4 19 -4 26 -20 7 -15 20 -25 33 -25 20 0 99 70 99 89 0 5 4
11 10 13 10 3 -75 141 -90 146 -6 2 -10 10 -10 18 0 20 -66 19 -74 -1z"/>
<path d="M3367 4291 c-4 -16 -13 -21 -36 -21 -39 0 -40 -14 -1 -30 17 -7 30
-16 30 -21 0 -15 22 -10 35 8 11 15 14 15 31 -5 23 -27 34 -28 34 -2 0 23 28
27 36 6 3 -8 18 -18 33 -21 29 -6 51 -39 51 -75 0 -23 34 -27 55 -7 9 10 10
18 2 33 -16 29 -34 44 -52 44 -8 0 -18 6 -21 14 -3 8 -19 18 -36 21 -16 4 -32
14 -36 23 -11 31 -33 45 -76 49 -38 5 -44 3 -49 -16z"/>
<path d="M6010 4220 c0 -48 2 -51 29 -56 17 -4 32 -12 35 -20 3 -8 12 -14 21
-14 8 0 15 -4 15 -10 0 -19 21 -10 51 23 22 24 32 29 38 19 6 -9 11 -1 18 26
l10 40 -41 5 c-22 3 -45 13 -52 21 -14 20 -21 20 -41 0 -12 -11 -13 -18 -5
-23 20 -12 19 -55 0 -59 -14 -3 -18 3 -18 30 0 32 -26 68 -50 68 -6 0 -10 -23
-10 -50z"/>
<path d="M4288 4069 c-10 -10 -21 -31 -24 -46 -12 -46 -55 -72 -67 -40 -4 8
-6 7 -6 -3 -1 -9 8 -23 19 -33 25 -21 16 -47 -16 -47 -17 0 -24 -6 -24 -19 0
-24 -31 -35 -75 -27 -43 8 -56 -10 -25 -34 19 -14 22 -23 17 -49 -8 -37 -27
-59 -45 -53 -14 4 -16 42 -2 42 6 0 10 5 10 11 0 13 -25 39 -38 39 -6 0 -15
12 -20 28 -6 15 -11 21 -11 14 -1 -16 -26 -42 -40 -42 -6 0 -11 -7 -11 -15 0
-8 5 -15 11 -15 13 0 39 -25 39 -38 0 -5 -11 -15 -25 -22 -27 -14 -33 -30 -12
-30 6 0 18 -4 26 -9 12 -8 12 -12 -2 -25 -17 -17 -44 -21 -63 -8 -7 4 -14 33
-17 66 -3 34 -10 62 -18 67 -23 14 -30 10 -19 -10 11 -22 13 -71 4 -95 -4 -10
-18 -16 -35 -16 -27 0 -40 -14 -21 -22 5 -1 12 -22 16 -45 l6 -43 -48 0 c-35
0 -56 -6 -72 -20 -13 -11 -37 -20 -57 -20 -37 0 -44 -20 -18 -46 13 -14 17
-14 30 0 8 8 15 18 15 23 0 20 69 33 139 27 l71 -7 0 28 c0 15 -7 33 -16 39
-22 17 -9 66 18 66 11 0 26 -7 34 -15 9 -8 26 -15 40 -15 14 0 24 -6 24 -14 0
-16 -34 -31 -49 -22 -10 7 -25 -60 -16 -74 11 -18 -6 -50 -26 -50 -11 0 -28
-5 -38 -12 -27 -16 -68 3 -77 37 -8 32 -24 32 -24 0 0 -14 4 -25 9 -25 5 0 13
-9 16 -20 3 -11 13 -20 21 -20 8 0 14 -9 14 -20 0 -11 -7 -20 -15 -20 -27 0
-31 -70 -9 -147 6 -21 3 -23 -35 -23 -44 0 -45 -1 -41 -66 1 -18 -3 -35 -9
-39 -15 -9 -51 4 -51 18 0 16 -55 77 -69 77 -6 0 -11 -12 -11 -26 0 -17 -6
-28 -20 -31 -30 -8 -26 -43 5 -43 16 0 25 6 25 15 0 8 7 15 15 15 23 0 19 -52
-6 -74 -12 -10 -24 -14 -28 -9 -7 11 -66 33 -87 33 -8 0 -14 -9 -14 -20 0 -13
-9 -22 -25 -26 -19 -5 -25 -13 -25 -35 0 -24 4 -29 25 -29 14 0 25 6 26 13 1
6 2 21 3 32 0 11 8 20 16 20 11 0 16 -13 18 -49 4 -63 -18 -86 -83 -86 -33 0
-45 -4 -45 -15 0 -11 12 -15 46 -15 49 0 68 -12 84 -54 14 -37 3 -54 -36 -62
-39 -7 -43 -22 -14 -47 11 -9 20 -26 20 -37 0 -29 13 -25 56 15 41 39 42 39
64 24 11 -8 12 -12 3 -16 -15 -6 -17 -43 -3 -43 6 0 10 -7 10 -15 0 -10 -10
-15 -30 -15 -20 0 -30 -5 -30 -15 0 -8 5 -15 10 -15 6 0 10 -7 10 -15 0 -16
36 -28 66 -24 11 2 30 -1 43 -5 14 -5 27 -4 34 3 8 8 7 11 -5 11 -16 0 -28 28
-28 67 0 17 4 20 23 15 28 -7 77 -55 77 -76 0 -9 5 -16 10 -16 11 0 13 24 4
69 -6 26 -11 31 -35 31 -26 0 -29 4 -29 30 0 17 5 30 10 30 6 0 10 -4 10 -9 0
-11 66 -22 86 -14 16 6 20 43 4 43 -5 0 -10 20 -10 45 0 43 1 45 30 45 24 0
30 -4 30 -21 0 -16 -4 -19 -21 -14 -20 7 -21 5 -15 -31 15 -88 17 -93 47 -106
25 -11 29 -17 23 -40 -5 -24 -2 -28 16 -28 13 0 24 8 27 20 3 11 9 20 14 20
20 0 7 28 -16 34 -32 8 -32 24 -1 32 27 6 35 28 37 94 0 25 3 39 6 33 6 -17
21 -16 39 2 22 22 43 18 56 -10 8 -18 19 -25 40 -25 23 0 28 4 28 25 0 21 -5
25 -30 25 -16 0 -30 4 -30 8 0 5 -11 14 -25 20 -14 6 -25 18 -25 27 0 8 -7 15
-16 15 -13 0 -15 6 -9 27 3 15 11 31 17 34 13 8 50 -1 66 -17 7 -7 19 -11 27
-8 17 7 20 31 5 36 -5 2 -12 22 -16 45 -5 35 -3 44 10 49 11 4 25 -1 37 -15
25 -26 45 -27 59 -1 13 24 68 28 76 5 8 -20 74 -21 74 0 0 8 -11 17 -25 21
-14 3 -25 10 -25 15 0 5 -6 9 -13 9 -17 0 -47 36 -47 56 0 20 24 44 44 44 11
0 16 -10 16 -31 0 -30 2 -31 31 -25 17 3 42 6 56 6 21 0 23 3 17 23 -4 12 -10
24 -14 27 -5 3 -10 14 -12 25 -3 17 3 20 45 23 33 2 47 7 47 18 0 7 -7 14 -15
14 -8 0 -15 4 -15 9 0 5 7 16 15 25 8 8 15 24 15 35 0 14 6 21 20 21 24 0 25
6 3 28 -16 16 -15 17 5 20 12 2 22 8 22 13 0 5 6 9 14 9 11 0 16 -21 22 -80 5
-58 10 -80 20 -80 22 0 16 -27 -6 -33 -11 -3 -20 -13 -20 -22 0 -9 9 -19 20
-22 11 -3 20 -9 20 -14 0 -5 10 -9 23 -9 51 0 63 109 14 125 l-22 8 24 4 c13
3 30 11 37 18 8 7 23 11 34 8 25 -7 34 15 21 50 -9 22 -17 27 -46 27 -31 0
-35 -3 -35 -25 0 -28 -7 -30 -32 -11 -20 14 -24 36 -8 36 6 0 10 7 10 15 0 8
-4 15 -10 15 -5 0 -10 13 -10 29 0 26 4 30 33 33 24 2 33 8 35 26 4 27 22 29
29 3 6 -24 19 -30 59 -24 25 4 33 11 37 33 4 15 22 45 42 65 35 38 39 69 11
87 -7 5 -5 12 8 21 17 12 17 15 2 30 -16 16 -46 13 -46 -4 0 -21 -38 -8 -44
16 -6 24 -46 37 -46 15 0 -5 -7 -10 -15 -10 -8 0 -15 4 -15 10 0 5 -11 12 -25
16 -29 7 -75 -29 -75 -58 0 -16 -8 -17 -62 -12 -35 4 -67 12 -73 19 -5 6 -22
15 -37 19 -26 6 -40 26 -18 26 6 0 10 9 10 20 0 13 7 20 20 20 12 0 20 7 20
16 0 20 -24 44 -45 44 -8 0 -19 8 -22 18 -11 30 -43 43 -43 18 0 -8 -6 -17
-12 -19 -10 -4 -10 -6 0 -6 14 -1 17 -41 2 -41 -6 0 -13 7 -16 15 -10 26 -34
17 -40 -15 -7 -30 -34 -43 -34 -15 0 8 -4 15 -10 15 -19 0 -10 27 14 39 13 7
29 24 36 37 7 13 26 28 41 33 16 5 29 14 29 20 0 20 -13 41 -25 41 -10 0 -12
10 -8 35 5 30 3 35 -13 34 -11 0 -27 -9 -36 -20z"/>
<path d="M3569 2452 c6 -11 11 -30 11 -41 0 -12 4 -21 10 -21 5 0 12 -11 16
-25 6 -24 34 -36 34 -15 0 6 7 10 15 10 8 0 15 -7 15 -15 0 -9 8 -19 18 -22 9
-4 21 -12 25 -20 4 -7 15 -13 22 -13 20 0 19 29 0 36 -20 8 -19 20 6 45 20 20
21 20 36 2 13 -17 14 -15 9 16 -8 42 -36 73 -53 57 -38 -35 -47 -40 -51 -28
-2 7 -10 12 -17 12 -8 0 -18 7 -23 15 -4 9 -25 18 -46 22 -36 6 -38 5 -27 -15z"/>
<path d="M7683 2153 c-26 -10 -13 -33 17 -33 20 0 30 -5 30 -15 0 -8 -9 -15
-20 -15 -11 0 -20 -4 -20 -10 0 -16 23 -60 32 -60 13 0 9 -22 -7 -34 -10 -7
-17 -33 -19 -75 -3 -35 -10 -67 -17 -71 -7 -5 -14 -40 -17 -84 -4 -61 -2 -76
9 -76 23 0 42 39 28 56 -9 12 -9 20 1 39 16 31 27 32 36 3 3 -12 13 -28 20
-36 8 -7 14 -24 14 -38 0 -15 6 -24 15 -24 9 0 15 9 15 25 0 32 28 45 45 22
20 -28 25 -20 25 37 0 52 16 86 41 86 17 0 9 32 -10 37 -20 5 -36 46 -26 63 4
6 13 10 21 10 8 0 14 5 14 10 0 6 6 5 14 -2 8 -7 10 -14 5 -16 -12 -5 -11 -32
1 -32 15 0 60 42 60 57 0 7 4 13 9 13 5 0 12 11 15 24 3 13 16 26 28 29 12 4
20 9 16 12 -7 8 -60 -16 -73 -33 -6 -8 -24 -12 -40 -10 -39 4 -40 32 -2 36 38
5 36 32 -3 32 -16 0 -30 -4 -30 -10 0 -14 -27 -12 -33 3 -3 6 -6 -3 -6 -20 -1
-22 -6 -33 -16 -33 -15 0 -19 -15 -15 -57 1 -14 -4 -23 -13 -23 -8 0 -17 -7
-21 -15 -3 -8 -12 -15 -21 -15 -8 0 -15 7 -15 15 0 8 7 15 15 15 20 0 19 30
-1 45 -10 7 -19 32 -22 66 -3 29 -11 59 -18 67 -8 7 -14 20 -14 28 0 14 -23
17 -47 7z"/>
<path d="M4540 2000 c0 -11 -6 -20 -14 -20 -8 0 -17 -7 -20 -16 -4 -11 -14
-14 -34 -9 -29 6 -29 5 -27 -40 1 -32 -3 -45 -12 -45 -8 0 -24 -11 -37 -25
-13 -14 -31 -25 -40 -25 -10 0 -16 -8 -16 -21 0 -12 -8 -23 -20 -26 -11 -3
-20 -9 -20 -13 0 -12 -34 -46 -52 -53 -22 -8 -24 -36 -3 -43 17 -7 21 -50 5
-56 -6 -2 -13 -27 -17 -55 -5 -43 -3 -54 11 -59 17 -7 22 -34 6 -34 -5 0 -10
-7 -10 -15 0 -8 5 -15 10 -15 6 0 10 6 10 13 0 18 43 53 48 39 7 -23 22 -11
22 18 0 17 -4 30 -10 30 -5 0 -10 9 -10 21 0 18 4 20 25 15 22 -6 25 -3 25 19
0 15 4 24 10 20 6 -3 10 1 10 10 0 22 36 59 49 50 6 -3 11 -1 11 4 0 6 7 11
15 11 8 0 15 5 15 10 0 6 -4 10 -10 10 -5 0 -10 6 -10 14 0 8 -9 18 -20 21
-25 8 -25 19 -2 44 32 36 42 50 42 59 0 5 31 9 70 8 49 -1 70 -5 70 -13 0 -7
7 -13 15 -13 8 0 15 -4 15 -10 0 -5 6 -7 14 -4 8 3 19 -3 26 -15 8 -16 17 -20
35 -15 18 5 25 2 25 -9 0 -8 -6 -17 -12 -19 -22 -8 14 -34 55 -42 20 -4 37
-11 37 -16 0 -6 6 -10 14 -10 8 0 18 -9 21 -20 3 -11 13 -20 21 -20 8 0 14 -6
14 -13 0 -6 14 -18 30 -25 17 -8 30 -18 30 -24 0 -6 8 -18 19 -27 10 -9 22
-31 25 -49 4 -18 14 -32 22 -32 8 0 14 -9 14 -20 0 -27 60 -30 61 -2 0 14 2
14 9 -3 7 -17 9 -17 9 -2 1 9 5 17 10 17 5 0 11 14 15 30 6 32 30 40 40 14 3
-9 13 -14 21 -10 8 3 21 -1 29 -9 8 -8 19 -15 25 -15 6 0 11 -5 11 -11 0 -5 5
-7 10 -4 6 3 10 -1 10 -9 0 -11 10 -17 33 -18 17 -1 39 -2 47 -4 8 -1 23 -2
32 -3 10 -1 20 -12 24 -26 6 -23 10 -25 69 -25 59 0 63 2 69 25 4 15 16 27 30
31 13 3 26 14 29 25 4 13 14 19 35 19 17 0 32 6 35 13 7 22 -5 47 -23 47 -39
0 -80 -13 -80 -26 0 -8 -4 -14 -10 -14 -5 0 -10 -7 -10 -15 0 -13 -9 -15 -52
-9 -29 4 -55 11 -59 15 -8 13 2 79 12 79 5 0 9 8 9 18 1 22 23 52 39 52 7 0
11 8 9 18 -4 23 -41 27 -62 7 -9 -9 -32 -19 -51 -22 l-35 -6 6 -48 c6 -43 4
-49 -12 -50 -34 -2 -49 2 -61 17 -12 16 -30 22 -70 23 -19 1 -23 7 -23 31 0
18 -6 33 -15 36 -8 4 -15 18 -15 34 0 16 7 30 15 34 22 8 19 46 -4 46 -20 0
-31 -18 -31 -50 0 -20 -27 -30 -82 -30 -26 0 -38 -4 -38 -14 0 -19 33 -29 68
-22 34 7 64 -9 43 -23 -8 -5 -20 -7 -28 -4 -8 3 -13 -2 -13 -15 0 -27 -10 -52
-21 -52 -17 0 -50 41 -56 70 -4 25 -10 30 -33 30 -16 0 -30 7 -34 15 -3 8 -15
15 -27 15 -20 0 -21 3 -15 49 3 27 4 56 0 65 -6 16 -44 23 -44 7 0 -11 -69
-20 -104 -14 -14 3 -26 11 -26 17 0 6 -13 23 -28 36 -16 14 -32 38 -36 53 -4
18 -13 27 -25 27 -11 0 -26 7 -35 15 -8 8 -19 15 -24 15 -12 0 -22 25 -22 56
0 17 -6 24 -20 24 -13 0 -20 -7 -20 -20z"/>
<path d="M4106 1843 c-11 -3 -26 -11 -34 -19 -18 -18 -47 -18 -66 1 -21 21
-46 19 -46 -5 0 -11 5 -20 10 -20 6 0 19 -9 31 -21 l20 -20 -22 -20 c-12 -10
-19 -22 -14 -27 4 -4 10 -1 12 6 9 24 42 7 56 -30 8 -22 36 -24 43 -3 4 8 17
15 30 15 15 0 24 6 24 15 0 8 -9 15 -19 15 -48 0 -71 32 -31 45 11 3 20 13 20
21 0 8 7 17 15 20 8 4 15 12 15 20 0 14 -10 16 -44 7z"/>
<path d="M3728 1813 c14 -5 16 -40 3 -45 -8 -3 -15 -44 -12 -75 1 -6 14 -14
30 -18 35 -7 48 -45 32 -88 -12 -32 -41 -36 -41 -7 0 11 -4 20 -10 20 -5 0
-10 -13 -10 -28 0 -22 7 -30 31 -39 17 -7 37 -9 45 -6 7 3 16 -2 20 -10 3 -9
13 -18 21 -21 13 -5 15 1 10 39 -3 27 -12 51 -22 59 -16 12 -16 13 0 29 9 9
27 17 41 17 13 0 24 4 24 9 0 5 9 13 20 16 11 3 20 12 20 20 0 7 6 16 13 18 6
3 2 6 -10 6 -13 1 -23 6 -23 11 0 6 -9 10 -20 10 -24 0 -70 21 -70 32 0 4 -7
8 -15 8 -9 0 -21 11 -27 25 -8 18 -19 25 -37 24 -14 0 -20 -3 -13 -6z"/>
<path d="M3890 1616 c0 -8 9 -18 20 -21 19 -6 28 -25 13 -25 -5 0 -14 -4 -22
-9 -12 -8 -12 -12 2 -25 8 -9 25 -16 36 -16 15 0 21 -6 21 -23 0 -17 -9 -26
-35 -36 -38 -13 -43 -25 -20 -47 12 -13 17 -12 35 3 11 10 20 23 20 30 0 7 4
13 8 13 16 0 52 37 52 54 0 22 27 21 33 -1 3 -10 5 -4 6 13 1 27 -3 33 -26 39
-20 5 -31 2 -40 -11 -12 -16 -13 -14 -13 14 0 25 -5 33 -25 38 -14 3 -25 10
-25 15 0 5 -9 9 -20 9 -11 0 -20 -6 -20 -14z"/>
</g>
</svg>
