<svg xmlns="http://www.w3.org/2000/svg" viewBox="0 0 394.171 394.171">
  <path d="M103.565 321.972v-49.533a20.02 20.02 0 01-10-7.276v56.809c-.104 11.638 1.184 25.488 3.814 36.625a19.872 19.872 0 019.134-4.014c-2.044-10.335-3.039-22.335-2.948-32.611z" fill="#fff"/>
  <circle cx="109.671" cy="374.252" r="5.073" fill="none"/>
  <path d="M104.745 253.456l.002.024a4.93 4.93 0 004.924 4.924 4.93 4.93 0 004.924-4.924v-.024c-3.274.23-6.575.23-9.85 0zM93.563 236.164c5.062 1.633 10.543 2.492 16.107 2.492 5.562 0 11.043-.859 16.105-2.492v-2.683c-4.941 1.173-10.342 2.213-16.107 2.213-5.764 0-11.164-1.039-16.105-2.213v2.683z" fill="#ffa6bb"/>
  <path d="M197.567 92.383c-.346-10.475.38-35.12 5.748-53.642-1.066-5.514-2.438-10.828-4.186-15.518-7.021 18.799-7.943 47.604-7.562 59.159.002.082.004.164.004.246v143.247h6V92.629c0-.082-.002-.164-.004-.246zM195.899 321.972v-81.096h-10v81.096c-.223 28.752 6.176 56.118 13.232 56.983 1.739-.213 3.436-2.033 5.005-5.074-4.806-9.334-8.405-30.224-8.237-51.909z" fill="#fff"/>
  <path d="M204.137 373.88c4.813-9.33 8.409-30.208 8.227-51.846v-81.158h-16.465v81.096c-.168 21.685 3.431 42.575 8.238 51.908z" fill="#ba82aa"/>
  <path d="M212.364 240.876h-26.465v81.096c-.223 28.752 6.176 56.118 13.232 56.983 1.738-.213 3.436-2.033 5.005-5.074 4.813-9.33 8.409-30.208 8.227-51.846v-81.159z" fill="none"/>
  <path d="M197.567 92.383c.002.082.004.164.004.246v133.247h9.123V82.629c0-.082 0-.164.004-.246.279-8.675-.178-27.063-3.383-43.641-5.368 18.522-6.093 43.167-5.748 53.641z" fill="#ffa6bb"/>
  <path d="M227.364 321.972v-88.596c0-3.511-2.414-6.448-5.67-7.266V82.747c.111-3.716 1.389-57.077-16.682-79.903a7.503 7.503 0 00-10.535-1.226 7.466 7.466 0 00-1.221 1.229l-.006-.004c-18.068 22.826-16.793 76.188-16.68 79.903v143.363c-3.258.817-5.672 3.755-5.672 7.266v88.533c-.006.677-.107 16.755 2.484 33.212 3.99 25.345 12.57 38.413 25.498 38.845a7.022 7.022 0 00.5 0c12.93-.432 21.508-13.5 25.5-38.845 2.592-16.456 2.49-32.534 2.484-33.148zM199.13 23.224c1.749 4.689 3.119 10.004 4.186 15.519 3.205 16.577 3.662 34.966 3.383 43.641-.004.082-.004.164-.004.246v143.247h-15.123V82.629c0-.082-.002-.164-.004-.246-.381-11.556.54-40.36 7.562-59.159zm5.007 350.656c-1.568 3.041-3.267 4.861-5.005 5.074-7.057-.864-13.455-28.23-13.232-56.983v-81.096h26.465v81.158c.181 21.639-3.415 42.517-8.228 51.847z" fill="#7f3960"/>
  <path d="M299.353 110.416c.716-1.398 1.135-2.783 1.311-4.138-2.876 3.156-6.63 5.671-11.424 6.202.613.067 1.241.107 1.889.107a16.405 16.405 0 008.224-2.171zM282.257 114.668c-1.41-1.41-2.436-2.842-3.155-4.265-1.925-1.097-3.607-2.527-5.063-4.125.353 2.721 1.65 5.6 4.441 8.39 10.309 10.312 7.416 22.241 2.195 29.309v9.604h3.777v-9.604c5.221-7.068 8.113-18.996-2.195-29.309zM284.044 321.972V168.581h-10v153.391c-.223 28.752 6.176 56.118 13.232 56.983 1.737-.213 3.433-2.036 5.001-5.083-4.804-9.338-8.401-30.221-8.233-51.9z" fill="#fff"/>
  <path d="M292.277 373.871c4.805-9.335 8.401-30.206 8.231-51.839V168.581h-16.465v153.391c-.167 21.679 3.43 42.562 8.234 51.899z" fill="#ba82aa"/>
  <path d="M300.509 168.581h-26.465v153.391c-.223 28.752 6.176 56.118 13.232 56.983 1.736-.213 3.434-2.036 5.001-5.083 4.805-9.335 8.401-30.206 8.231-51.839V168.581z" fill="none"/>
  <path d="M284.452 143.977v9.604h9.5v-9.668c-1.207-1.666-10.397-16.338 2.197-29.245 1.366-1.4 2.38-2.805 3.1-4.197a16.394 16.394 0 01-8.121 2.117c-.648 0-1.275-.04-1.889-.107l-.027-.005c-.628.071-1.271.112-1.936.112a16.41 16.41 0 01-8.143-2.127c.717 1.404 1.732 2.816 3.123 4.207 10.309 10.313 7.417 22.241 2.196 29.309z" fill="#ffa6bb"/>
  <path d="M315.509 161.081c0-3.822-2.859-6.97-6.557-7.435v-12.411c0-1.989-.418-4.052-2.197-5.304-.016-.011-6.686-3.765.002-10.656 13.363-13.774 10.129-31.661 0-41.792a7.503 7.503 0 00-7.268-1.936 7.496 7.496 0 00-5.293 5.345c-1.098 4.207-4.564 10.695-6.92 10.695-2.184 0-5.633-5.894-6.918-10.694a7.499 7.499 0 00-12.561-3.411c-10.131 10.13-13.572 28.22 0 41.792 4.291 4.293 2.334 8.199 0 10.657-1.486 1.416-2.197 3.251-2.197 5.304v12.411c-3.695.465-6.557 3.612-6.557 7.435v160.828c-.004.677-.107 16.755 2.484 33.212 3.99 25.345 12.57 38.413 25.498 38.845a7.022 7.022 0 00.5 0c12.93-.432 21.508-13.5 25.5-38.845 2.59-16.457 2.488-32.535 2.482-33.15v-160.89zm-36.375-50.62a16.41 16.41 0 008.143 2.127c.664 0 1.308-.041 1.936-.112 4.771-.542 8.51-3.052 11.377-6.197-.178 1.372-.607 2.775-1.34 4.192-.72 1.392-1.733 2.797-3.1 4.197-12.594 12.907-3.404 27.579-2.197 29.245v9.668h-13.352v-9.604c5.221-7.067 8.113-18.996-2.195-29.309-2.791-2.79-4.088-5.669-4.441-8.39 1.481 1.628 3.199 3.08 5.169 4.183zm13.143 263.41c-1.567 3.047-3.265 4.87-5.001 5.083-7.057-.864-13.455-28.23-13.232-56.983v-153.39h26.465v153.451c.17 21.633-3.427 42.504-8.232 51.839z" fill="#7f3960"/>
  <path d="M109.671 258.405a4.93 4.93 0 004.924-4.924v-.024c-3.274.23-6.574.23-9.85 0l.002.024a4.93 4.93 0 004.924 4.924zM125.776 236.164v-2.683c-4.941 1.173-10.342 2.213-16.107 2.213-5.764 0-11.164-1.039-16.105-2.213v2.683c5.062 1.633 10.543 2.492 16.107 2.492 5.562.001 11.043-.859 16.105-2.492z" fill="none"/>
  <circle cx="109.671" cy="374.252" r="5.073" fill="none"/>
  <path d="M106.514 354.583a19.787 19.787 0 013.157-.261c4.627 0 8.881 1.6 12.268 4.257.443-1.873.857-3.854 1.232-5.948 2.719-15.168 2.607-30.435 2.605-30.588v-56.881c-3.625 4.983-9.486 8.242-16.105 8.242-2.131 0-4.182-.342-6.105-.966v49.533c-.092 10.277.903 22.277 2.948 32.612z" fill="#ffa6bb"/>
  <path d="M140.776 321.972V223.93a7.502 7.502 0 00-9.125-7.323c-1.801.399-3.658.867-5.453 1.319-5.404 1.36-10.992 2.768-16.529 2.768-5.535 0-11.125-1.407-16.529-2.768-1.795-.452-3.65-.92-5.451-1.319a7.502 7.502 0 00-9.124 7.323l.001 97.971c-.006.68-.124 16.841 2.842 33.378 2.665 14.867 7.031 25.488 13.043 31.799 3.658 4.332 9.119 7.094 15.221 7.094 6.1 0 11.561-2.762 15.219-7.094 6.012-6.31 10.379-16.932 13.045-31.799 2.963-16.537 2.846-32.699 2.84-33.307zm-36.031-68.516c3.275.23 6.576.23 9.85 0v.024a4.93 4.93 0 01-4.924 4.924 4.93 4.93 0 01-4.924-4.924l-.002-.024zm-11.182-19.974c4.941 1.174 10.342 2.213 16.105 2.213 5.766 0 11.166-1.04 16.107-2.213v2.683c-5.062 1.633-10.543 2.492-16.105 2.492-5.564 0-11.045-.859-16.107-2.492v-2.683zm.002 88.49v-56.809a20.02 20.02 0 0010 7.276c1.924.624 3.975.966 6.105.966 6.619 0 12.48-3.259 16.105-8.242v56.881c.002.152.113 15.42-2.605 30.588a110.344 110.344 0 01-1.232 5.948c-3.387-2.657-7.641-4.257-12.268-4.257-1.076 0-2.128.095-3.157.261a19.877 19.877 0 00-9.134 4.014c-2.63-11.138-3.917-24.988-3.814-36.626zm16.106 57.354a5.073 5.073 0 11-.002-10.146 5.073 5.073 0 01.002 10.146z" fill="#7f3960"/>
</svg>
