<?xml version="1.0" standalone="no"?>
<!DOCTYPE svg PUBLIC "-//W3C//DTD SVG 20010904//EN"
 "http://www.w3.org/TR/2001/REC-SVG-20010904/DTD/svg10.dtd">
<svg version="1.0" xmlns="http://www.w3.org/2000/svg"
 width="1250.000000pt" height="1250.000000pt" viewBox="0 0 1250.000000 1250.000000"
 preserveAspectRatio="xMidYMid meet">
<metadata>
Created by potrace 1.16, written by Peter Selinger 2001-2019
</metadata>
<g transform="translate(0.000000,1250.000000) scale(0.100000,-0.100000)"
fill="#000000" stroke="none">
<path d="M6356 11515 c-4 -15 -16 -27 -30 -31 -13 -3 -26 -14 -29 -25 -4 -13
-14 -19 -35 -19 -17 0 -32 -6 -35 -12 -7 -23 5 -48 23 -48 39 0 80 13 80 26 0
8 5 14 10 14 6 0 10 7 10 15 0 13 9 15 53 9 28 -4 54 -11 58 -15 8 -13 -2 -79
-12 -79 -5 0 -9 -8 -9 -17 -1 -23 -23 -53 -39 -53 -7 0 -11 -8 -9 -17 4 -24
41 -28 62 -8 9 9 32 19 51 22 l35 6 -6 48 c-6 43 -4 49 12 50 34 2 49 -2 61
-17 12 -16 30 -22 71 -23 18 -1 22 -7 22 -31 0 -18 6 -33 15 -36 8 -4 15 -18
15 -34 0 -16 -7 -30 -15 -34 -22 -8 -19 -46 4 -46 20 0 31 18 31 50 0 20 27
30 83 30 25 0 37 4 37 14 0 19 -33 29 -68 22 -34 -7 -64 9 -43 23 8 5 20 7 28
4 8 -3 13 2 13 15 0 27 10 52 21 52 17 0 50 -41 56 -70 4 -25 10 -30 33 -30
16 0 30 -7 34 -15 3 -8 15 -15 27 -15 20 0 21 -3 15 -49 -3 -27 -4 -56 0 -65
6 -16 44 -23 44 -7 0 11 69 20 104 14 14 -3 26 -11 26 -17 0 -6 13 -23 28 -36
16 -14 32 -38 36 -53 4 -18 13 -27 25 -27 11 0 26 -7 35 -15 8 -8 19 -15 24
-15 12 0 22 -25 22 -56 0 -17 6 -24 20 -24 13 0 20 7 20 20 0 11 6 20 14 20 8
0 17 7 20 16 4 11 14 14 34 9 29 -6 29 -5 27 40 -1 32 3 45 12 45 8 0 24 11
37 25 13 14 31 25 40 25 10 0 16 8 16 21 0 12 8 23 20 26 11 3 20 9 20 13 0
12 34 46 53 53 21 8 23 36 2 43 -17 7 -21 50 -5 56 6 2 13 27 17 55 5 43 3 54
-11 59 -17 7 -22 34 -6 34 6 0 10 7 10 15 0 8 -4 15 -10 15 -5 0 -10 -6 -10
-13 0 -18 -43 -53 -48 -39 -7 23 -22 11 -22 -18 0 -16 5 -30 10 -30 6 0 10 -9
10 -21 0 -18 -4 -20 -25 -15 -22 6 -25 3 -25 -19 0 -15 -4 -24 -10 -20 -5 3
-10 -1 -10 -10 0 -22 -36 -59 -49 -50 -6 3 -11 1 -11 -4 0 -6 -7 -11 -15 -11
-8 0 -15 -4 -15 -10 0 -5 5 -10 10 -10 6 0 10 -6 10 -14 0 -8 9 -18 20 -21 25
-8 25 -19 3 -44 -33 -36 -43 -50 -43 -59 0 -5 -31 -9 -70 -8 -49 1 -70 5 -70
14 0 6 -7 12 -15 12 -8 0 -15 4 -15 10 0 5 -6 7 -14 4 -8 -3 -19 3 -26 15 -8
16 -17 20 -35 15 -18 -5 -25 -2 -25 9 0 8 6 17 12 19 22 8 -14 34 -55 42 -20
4 -37 11 -37 16 0 6 -6 10 -14 10 -8 0 -18 9 -21 20 -3 11 -13 20 -21 20 -8 0
-14 6 -14 13 0 6 -13 18 -30 25 -16 8 -30 18 -30 24 0 6 -8 18 -19 27 -10 9
-22 31 -25 49 -4 18 -14 32 -22 32 -8 0 -14 9 -14 20 0 27 -60 30 -61 3 0 -15
-2 -15 -9 2 -7 17 -9 17 -9 3 -1 -10 -5 -18 -10 -18 -5 0 -11 -13 -14 -30 -7
-32 -31 -40 -41 -14 -3 9 -13 14 -21 10 -8 -3 -21 1 -29 9 -8 8 -19 15 -25 15
-6 0 -11 5 -11 11 0 5 -4 7 -10 4 -5 -3 -10 1 -10 9 0 11 -10 17 -32 18 -18 1
-40 2 -48 4 -8 1 -23 2 -32 3 -10 1 -20 12 -24 26 -6 23 -10 25 -69 25 -59 0
-63 -2 -69 -25z"/>
<path d="M7968 11491 c-10 -10 -18 -23 -18 -29 0 -7 -4 -12 -8 -12 -16 0 -52
-37 -52 -54 0 -22 -27 -21 -33 2 -3 9 -5 3 -6 -14 -1 -27 3 -33 26 -39 20 -5
31 -2 40 11 12 16 13 14 13 -14 0 -25 5 -33 25 -38 14 -3 25 -10 25 -15 0 -5
9 -9 20 -9 11 0 20 6 20 14 0 8 -9 18 -20 21 -19 6 -28 25 -12 25 4 0 13 4 21
9 12 8 12 12 -2 25 -8 9 -25 16 -36 16 -15 0 -21 6 -21 23 0 17 9 26 35 36 38
13 43 25 21 47 -18 17 -17 17 -38 -5z"/>
<path d="M8063 11375 c3 -27 12 -51 22 -59 16 -12 16 -13 0 -29 -9 -9 -27 -17
-41 -17 -13 0 -24 -4 -24 -9 0 -5 -9 -13 -20 -16 -11 -3 -20 -12 -20 -20 0 -7
-6 -16 -12 -18 -7 -3 -3 -6 10 -6 12 -1 22 -5 22 -11 0 -5 9 -10 20 -10 24 0
70 -21 70 -32 0 -4 7 -8 15 -8 9 0 21 -11 27 -25 8 -18 19 -25 37 -24 14 0 20
3 14 6 -15 5 -17 40 -4 45 8 3 15 44 12 75 -1 6 -14 14 -30 18 -35 7 -48 45
-32 88 12 32 41 36 41 7 0 -11 5 -20 10 -20 6 0 10 13 10 28 0 22 -7 30 -31
39 -17 7 -37 9 -45 6 -7 -3 -16 2 -20 10 -3 9 -13 18 -21 21 -13 5 -15 -1 -10
-39z"/>
<path d="M7814 11225 c-4 -8 -17 -15 -30 -15 -15 0 -24 -6 -24 -15 0 -8 9 -15
19 -15 48 0 71 -32 31 -45 -11 -3 -20 -13 -20 -21 0 -8 -7 -17 -15 -20 -8 -4
-15 -13 -15 -21 0 -11 7 -13 32 -8 17 4 38 14 46 21 18 18 47 18 66 -1 21 -21
46 -19 46 5 0 11 -4 20 -10 20 -5 0 -19 9 -31 21 l-20 20 22 20 c12 10 19 22
14 27 -4 4 -10 1 -12 -5 -9 -25 -42 -8 -56 30 -8 21 -36 23 -43 2z"/>
<path d="M4110 11205 c0 -32 -28 -45 -45 -22 -20 28 -25 20 -25 -37 0 -52 -16
-86 -41 -86 -17 0 -9 -32 10 -37 20 -5 36 -46 26 -63 -4 -6 -12 -10 -20 -10
-7 0 -15 -4 -17 -9 -1 -5 -9 -3 -16 5 -7 8 -8 14 -2 14 5 0 10 7 10 15 0 8 -4
15 -10 15 -15 0 -60 -42 -60 -57 0 -7 -4 -13 -9 -13 -5 0 -12 -11 -15 -24 -3
-13 -16 -26 -28 -29 -12 -4 -20 -9 -16 -12 7 -8 60 16 73 33 6 8 24 12 40 10
39 -4 40 -32 3 -36 -39 -5 -37 -32 2 -32 17 0 30 5 30 10 0 14 27 12 33 -2 3
-7 6 2 6 20 1 21 6 32 16 32 15 0 19 15 15 58 -1 13 4 22 13 22 8 0 17 7 21
15 3 8 12 15 21 15 8 0 15 -7 15 -15 0 -8 -7 -15 -15 -15 -20 0 -19 -30 1 -45
10 -7 19 -32 22 -66 3 -29 11 -59 18 -67 8 -7 14 -20 14 -28 0 -15 18 -18 44
-8 28 11 18 34 -14 34 -20 0 -30 5 -30 15 0 8 9 15 20 15 11 0 20 4 20 10 0
16 -23 60 -32 60 -13 0 -9 22 7 34 10 7 17 33 19 75 3 35 10 67 17 71 7 5 14
40 17 84 4 61 2 76 -9 76 -23 0 -42 -39 -28 -56 9 -12 9 -20 -1 -39 -16 -31
-27 -32 -36 -3 -3 12 -13 28 -20 36 -8 7 -14 24 -14 38 0 15 -6 24 -15 24 -9
0 -15 -9 -15 -25z"/>
<path d="M8160 10605 c0 -9 7 -18 15 -21 20 -8 19 -20 -6 -45 -20 -20 -21 -20
-36 -2 -13 17 -14 15 -9 -16 8 -42 36 -73 53 -57 38 35 47 40 51 28 2 -7 10
-12 17 -12 8 0 18 -7 23 -15 4 -9 25 -18 46 -22 36 -6 38 -5 27 15 -6 11 -11
30 -11 41 0 12 -4 21 -10 21 -5 0 -12 11 -16 25 -6 24 -34 36 -34 15 0 -5 -7
-10 -15 -10 -8 0 -15 7 -15 15 0 9 -8 19 -17 22 -10 4 -22 12 -26 20 -11 18
-37 16 -37 -2z"/>
<path d="M4240 10581 c0 -17 -4 -31 -10 -31 -5 0 -10 -7 -10 -15 0 -8 5 -15
10 -15 6 0 10 -9 10 -20 0 -11 -4 -20 -10 -20 -5 0 -10 5 -10 10 0 6 -9 10
-20 10 -16 0 -20 -7 -20 -31 0 -30 -1 -31 -35 -25 l-35 7 0 -40 c0 -57 -8 -71
-41 -71 -25 0 -30 5 -35 30 -7 34 -30 40 -39 10 -3 -11 -11 -20 -16 -20 -5 0
-9 -7 -9 -15 0 -8 7 -15 15 -15 12 0 13 -9 8 -47 -10 -72 -39 -94 -63 -48 -21
40 -80 46 -80 9 0 -8 9 -14 20 -14 11 0 20 -4 20 -8 0 -9 59 -32 83 -32 9 0
17 -4 17 -9 0 -5 10 -11 23 -13 12 -2 22 -10 22 -18 0 -21 -68 -26 -88 -6 -17
18 -57 22 -57 6 0 -5 6 -10 14 -10 8 0 18 -9 21 -20 6 -18 15 -20 96 -20 54 0
89 4 89 10 0 6 -7 13 -15 16 -8 4 -15 12 -15 18 0 7 -9 22 -20 34 -20 21 -27
52 -12 52 5 0 19 9 32 20 13 11 29 20 37 20 8 0 19 14 24 30 9 24 17 30 39 30
16 0 30 -5 32 -12 2 -6 21 -11 43 -10 29 1 44 -4 61 -23 l23 -25 -59 0 c-33 0
-60 -4 -60 -9 0 -12 26 -21 61 -21 25 0 30 -5 36 -30 4 -23 11 -30 28 -30 15
0 25 7 28 21 8 28 42 21 41 -9 0 -14 5 -22 17 -22 9 0 19 -7 23 -15 3 -8 12
-15 21 -15 8 0 15 -7 15 -16 0 -13 16 -15 120 -12 166 4 156 18 178 -248 9
-115 18 -200 20 -190 6 26 22 41 55 50 22 5 27 12 27 36 0 20 6 31 20 35 11 3
20 11 20 16 0 5 9 9 20 9 11 0 20 7 20 15 0 10 -11 15 -35 15 -19 0 -35 5 -35
10 0 6 14 10 30 10 17 0 30 3 30 8 0 4 11 20 25 36 14 16 25 33 25 37 0 4 14
10 30 14 30 6 30 8 30 71 0 46 4 66 14 70 24 9 30 56 9 72 -15 11 -16 14 -3
22 13 8 12 10 -2 10 -10 0 -18 -4 -18 -10 0 -10 -36 -50 -45 -50 -18 0 -43 45
-51 90 l-9 54 -30 -28 c-26 -24 -36 -27 -73 -23 -25 3 -48 12 -56 22 -11 16
-14 16 -28 1 -23 -23 -35 -20 -68 14 -33 34 -40 36 -40 15 0 -9 -9 -15 -25
-15 -18 0 -25 5 -25 20 0 11 -4 20 -10 20 -5 0 -10 -22 -10 -50 0 -42 -3 -50
-19 -50 -19 0 -31 25 -31 68 0 25 -15 30 -24 7 -7 -19 -33 -19 -43 0 -6 10
-27 16 -61 17 -52 3 -53 4 -50 32 2 16 11 34 20 40 14 8 22 4 42 -19 l26 -30
0 51 c0 37 4 54 15 58 8 3 15 15 15 26 0 17 -6 20 -45 20 -39 0 -50 5 -78 35
-17 19 -37 35 -44 35 -6 0 -14 6 -17 13 -8 16 1 -61 10 -93 7 -24 7 -24 -19 5
-45 51 -47 54 -47 74 0 11 6 21 12 23 9 3 8 9 -5 22 -16 17 -17 16 -17 -13z"/>
<path d="M8206 10371 c-4 -6 -1 -11 7 -11 15 0 27 -29 27 -67 0 -17 -4 -20
-22 -15 -29 7 -78 55 -78 76 0 9 -4 16 -10 16 -11 0 -13 -24 -4 -69 6 -26 11
-31 35 -31 26 0 29 -4 29 -30 0 -16 -4 -30 -10 -30 -5 0 -10 4 -10 9 0 11 -66
22 -86 14 -16 -6 -20 -43 -4 -43 6 0 10 -19 10 -43 0 -29 6 -48 19 -59 14 -12
21 -35 26 -95 3 -43 11 -114 16 -158 5 -44 9 -90 9 -102 0 -16 6 -23 20 -23
21 0 23 9 20 66 -1 18 3 35 9 39 15 9 51 -4 51 -18 0 -16 55 -77 69 -77 6 0
11 12 11 26 0 17 6 28 20 31 30 8 26 43 -5 43 -16 0 -25 -6 -25 -15 0 -8 -7
-15 -15 -15 -23 0 -19 52 6 74 12 10 24 14 28 9 7 -11 66 -33 87 -33 8 0 14 9
14 20 0 13 9 22 25 26 19 5 25 13 25 35 0 24 -4 29 -25 29 -14 0 -25 -6 -26
-12 -1 -7 -2 -22 -3 -33 0 -11 -8 -20 -16 -20 -11 0 -16 13 -18 49 -4 63 18
86 83 86 33 0 45 4 45 15 0 11 -12 15 -46 15 -49 0 -68 12 -84 54 -14 37 -3
54 36 62 39 7 43 22 14 47 -11 9 -20 26 -20 37 0 29 -13 25 -56 -15 -41 -39
-42 -39 -64 -24 -11 8 -12 12 -2 16 14 6 16 43 2 43 -5 0 -10 7 -10 15 0 10
10 15 30 15 20 0 30 5 30 15 0 8 -4 15 -10 15 -5 0 -10 6 -10 14 0 17 -26 27
-66 25 -16 0 -39 2 -50 6 -12 4 -25 2 -28 -4z"/>
<path d="M7953 10320 c-3 -11 -9 -20 -14 -20 -20 0 -7 -28 16 -34 32 -8 32
-24 1 -32 -27 -6 -36 -29 -36 -91 l0 -43 55 0 c49 0 55 2 55 21 0 16 4 19 21
14 20 -7 21 -5 15 31 -15 88 -17 93 -47 106 -25 11 -29 17 -23 41 5 23 2 27
-16 27 -13 0 -24 -8 -27 -20z"/>
<path d="M3830 9800 c0 -11 -6 -20 -14 -20 -20 0 -29 -16 -21 -40 4 -14 15
-20 36 -20 41 0 37 -23 -7 -36 -32 -10 -37 -10 -41 6 -5 21 -45 34 -73 25 -15
-5 -20 1 -26 29 -4 22 -12 36 -21 36 -11 0 -13 -9 -8 -44 6 -41 5 -44 -19 -50
-17 -4 -26 -13 -26 -27 0 -19 4 -20 55 -14 47 6 55 5 55 -9 0 -14 22 -16 195
-16 107 0 195 3 195 7 0 4 -12 18 -27 30 -30 26 -81 31 -89 8 -7 -17 -34 -21
-34 -5 0 6 -7 10 -15 10 -8 0 -15 -4 -15 -10 0 -5 -7 -10 -15 -10 -8 0 -15 6
-15 14 0 8 -8 17 -17 19 -10 3 -4 5 13 6 33 1 33 -2 25 119 -1 8 -17 12 -46
12 -38 0 -45 -3 -45 -20z"/>
<path d="M4023 9813 c-15 -6 -18 -63 -3 -63 6 0 10 -7 10 -16 0 -9 9 -18 20
-21 11 -3 20 -10 20 -15 0 -5 6 -3 14 5 17 16 58 16 64 -1 2 -7 -6 -12 -17
-12 -14 0 -21 -6 -21 -20 0 -11 5 -20 10 -20 6 0 10 -7 10 -15 0 -13 28 -15
195 -15 l195 0 0 23 c0 42 -21 151 -32 164 -17 20 -37 16 -31 -7 4 -15 0 -20
-16 -20 -14 0 -21 6 -21 20 0 19 -7 20 -155 20 -127 0 -155 -3 -155 -14 0 -8
6 -17 13 -20 6 -3 -1 -3 -18 0 -16 3 -34 12 -38 20 -8 14 -22 17 -44 7z"/>
<path d="M7616 9805 c4 -8 10 -15 15 -15 14 0 10 -40 -5 -56 -25 -25 -46 -17
-46 17 0 30 -2 31 -31 25 -17 -3 -42 -6 -56 -6 -21 0 -23 -3 -17 -22 4 -13 10
-25 14 -28 5 -3 10 -14 12 -25 3 -17 -3 -20 -44 -23 -34 -2 -48 -7 -48 -18 0
-7 7 -14 15 -14 8 0 15 -4 15 -9 0 -5 -7 -16 -15 -25 -8 -8 -15 -24 -15 -35 0
-14 -6 -21 -20 -21 -24 0 -25 -6 -3 -28 16 -16 15 -17 -5 -20 -12 -2 -22 -8
-22 -13 0 -5 -6 -9 -14 -9 -11 0 -16 21 -22 80 -5 58 -10 80 -20 80 -22 0 -16
27 6 33 11 3 20 13 20 22 0 9 -9 19 -20 22 -11 3 -20 9 -20 14 0 5 -10 9 -23
9 -51 0 -63 -109 -14 -125 l22 -8 -24 -4 c-13 -3 -30 -11 -37 -18 -8 -7 -23
-11 -34 -8 -25 7 -34 -15 -21 -50 9 -22 17 -27 46 -27 31 0 35 3 35 25 0 28 7
30 33 11 19 -14 23 -36 7 -36 -5 0 -10 -7 -10 -15 0 -8 5 -15 10 -15 6 0 10
-13 10 -29 0 -26 -4 -30 -32 -33 -25 -2 -34 -8 -36 -25 -4 -28 -22 -30 -29 -4
-6 24 -19 30 -59 24 -25 -4 -33 -11 -37 -33 -4 -15 -22 -45 -42 -65 -35 -38
-39 -69 -11 -87 7 -5 5 -12 -8 -21 -17 -12 -17 -15 -2 -30 16 -16 46 -13 46 4
0 21 38 8 44 -16 6 -24 46 -37 46 -15 0 6 7 10 15 10 8 0 15 -4 15 -10 0 -5
11 -12 25 -16 29 -7 75 29 75 58 0 16 8 17 63 12 34 -4 67 -12 72 -19 6 -6 22
-15 38 -19 25 -6 39 -26 17 -26 -5 0 -10 -9 -10 -20 0 -13 -7 -20 -20 -20 -12
0 -20 -7 -20 -16 0 -20 24 -44 45 -44 8 0 19 -8 22 -17 11 -31 43 -44 43 -19
0 8 6 17 13 19 10 4 10 6 0 6 -15 1 -18 41 -3 41 6 0 13 -7 16 -15 10 -26 34
-17 41 15 6 30 33 43 33 15 0 -8 5 -15 10 -15 19 0 10 -27 -14 -39 -13 -7 -29
-24 -36 -37 -7 -13 -26 -28 -41 -33 -16 -5 -29 -14 -29 -20 0 -20 13 -41 25
-41 10 0 12 -10 8 -35 -4 -28 -2 -35 11 -35 22 0 54 34 62 67 12 46 55 72 67
41 4 -9 6 -8 6 2 1 9 -8 23 -19 33 -25 21 -16 47 16 47 17 0 24 6 24 19 0 24
31 35 75 27 43 -8 56 10 25 34 -19 14 -22 23 -17 49 8 37 27 59 45 53 14 -4
16 -42 2 -42 -5 0 -10 -5 -10 -11 0 -13 25 -39 38 -39 6 0 15 -12 21 -27 9
-24 10 -20 6 27 -3 30 -16 197 -30 370 -14 173 -28 323 -31 333 -5 15 -20 17
-129 17 -106 0 -124 -2 -119 -15z"/>
<path d="M4850 9113 c0 -69 25 -333 32 -333 4 0 8 20 8 45 0 25 5 45 10 45 6
0 10 -4 10 -10 0 -5 7 -10 16 -10 10 0 14 6 10 15 -7 20 3 45 19 45 7 0 16 -7
19 -16 5 -13 15 -15 54 -10 49 6 65 1 75 -24 3 -8 6 -1 6 15 1 41 -40 80 -74
71 -35 -9 -65 9 -65 39 0 14 -8 29 -20 35 -12 6 -20 21 -20 35 0 14 -4 25 -9
25 -5 0 -11 10 -13 23 -4 29 -58 39 -58 10z"/>
<path d="M3495 9023 c-3 -43 -9 -90 -11 -105 -5 -23 -2 -28 15 -28 27 0 27
-14 0 -38 -16 -16 -22 -39 -29 -113 -12 -121 -12 -149 -1 -149 5 0 13 9 16 20
13 40 25 18 25 -45 0 -51 -3 -65 -15 -65 -22 0 -18 -27 5 -33 23 -6 27 -37 6
-37 -23 0 -28 -17 -21 -74 6 -46 11 -55 31 -60 27 -7 32 -31 8 -40 -26 -10
-44 -7 -44 9 0 13 -38 41 -44 33 -2 -2 -6 -33 -10 -70 -7 -68 -6 -68 19 -68
22 0 25 -4 25 -37 1 -30 3 -34 10 -21 8 14 22 16 73 14 l62 -3 -3 -37 c-3 -27
0 -36 12 -36 18 0 79 -57 89 -83 4 -11 1 -20 -8 -23 -8 -4 -15 -12 -15 -20 0
-8 -6 -11 -15 -8 -18 7 -20 40 -2 47 9 4 8 8 -3 16 -24 17 -34 13 -48 -18 -11
-24 -11 -34 0 -53 18 -32 56 -68 72 -68 8 0 16 -7 20 -15 3 -9 18 -15 36 -15
23 0 33 6 40 25 8 21 16 25 53 25 29 0 50 -6 65 -20 12 -12 35 -20 55 -20 32
0 35 -3 40 -36 7 -39 47 -84 76 -84 19 0 31 -19 31 -49 0 -9 9 -23 20 -31 25
-18 26 -47 1 -55 -11 -3 -22 -12 -25 -20 -3 -8 -15 -15 -26 -15 -11 0 -20 -4
-20 -10 0 -5 -7 -10 -15 -10 -8 0 -15 5 -15 10 0 6 -13 10 -30 10 -16 0 -30
-4 -30 -10 0 -16 -27 -12 -34 5 -11 30 -33 16 -40 -25 -3 -22 -10 -40 -14 -40
-14 0 -33 -60 -30 -97 l3 -38 58 -3 c31 -2 57 -7 57 -12 0 -6 -9 -10 -19 -10
-30 0 -51 -11 -51 -26 0 -8 4 -14 9 -14 5 0 11 -9 14 -20 5 -20 14 -20 395
-20 270 0 393 3 398 11 9 14 -68 929 -78 929 -4 0 -8 -6 -8 -14 0 -7 -14 -16
-31 -20 -46 -9 -49 -8 -49 14 0 11 -4 20 -10 20 -5 0 -10 9 -10 20 0 11 5 20
10 20 18 0 10 50 -11 71 -26 26 -20 32 23 24 l34 -7 -4 -59 c-4 -55 -3 -59 17
-59 12 0 21 6 21 15 0 8 -4 15 -10 15 -5 0 -10 7 -10 15 0 23 19 18 30 -7 9
-23 9 -23 9 2 1 38 -62 762 -75 858 l-5 42 -529 0 -528 0 -7 -77z m808 -717
c3 -7 18 -16 32 -20 15 -4 34 -14 42 -21 19 -19 38 -19 58 1 20 21 24 17 18
-23 -4 -22 -9 -30 -19 -26 -8 3 -17 -3 -21 -13 -4 -11 -19 -31 -35 -46 -32
-30 -33 -34 -13 -55 14 -13 13 -17 -7 -39 -14 -14 -35 -24 -51 -24 -16 0 -36
-7 -45 -16 -12 -12 -17 -13 -20 -4 -8 23 -42 51 -71 56 -26 6 -29 3 -35 -30
-8 -41 -15 -44 -38 -17 -25 30 -32 61 -14 61 12 0 16 10 16 35 0 31 3 35 25
35 14 0 25 5 25 10 0 6 6 10 14 10 8 0 22 7 30 16 15 14 17 14 32 0 8 -9 22
-16 30 -16 8 0 14 7 14 16 0 14 1 14 16 0 26 -26 49 -16 59 27 7 26 5 27 -29
27 -25 0 -36 -4 -36 -15 0 -23 -29 -6 -36 21 -3 13 -10 24 -15 24 -5 0 -9 5
-9 10 0 6 11 10 25 10 14 0 25 5 25 10 0 15 27 12 33 -4z"/>
<path d="M5042 9034 c-24 -26 -11 -49 26 -46 25 3 32 0 32 -15 0 -10 7 -26 14
-35 14 -20 36 -24 36 -8 0 6 6 10 14 10 8 0 17 9 21 19 3 11 16 23 28 27 12 4
26 13 32 20 5 7 23 14 39 16 44 5 46 28 2 28 -20 0 -36 -4 -36 -9 0 -18 -54
-23 -66 -7 -15 22 -123 22 -142 0z"/>
<path d="M7384 8857 c-5 -7 -13 -20 -17 -29 -5 -14 -18 -18 -51 -18 -24 0 -51
-2 -58 -5 -9 -4 -19 4 -26 20 -7 15 -20 25 -33 25 -21 0 -99 -70 -99 -90 0
-16 -37 -12 -44 5 -3 8 -15 15 -26 15 -11 0 -20 -7 -20 -15 0 -9 -9 -15 -24
-15 -17 0 -26 7 -30 25 -5 21 -9 23 -19 13 -7 -7 -16 -21 -20 -30 -3 -10 -13
-18 -22 -18 -8 0 -15 -7 -15 -15 0 -10 10 -15 30 -15 20 0 30 -5 30 -15 0 -22
-49 -65 -72 -65 -18 0 -48 -21 -48 -34 0 -4 11 -4 25 0 23 6 25 3 25 -25 0
-38 6 -39 36 -6 27 29 73 34 76 8 0 -10 0 -28 -1 -41 -1 -15 6 -25 22 -31 21
-8 24 -16 23 -52 0 -26 4 -44 12 -47 9 -3 2 -14 -18 -33 -41 -39 -39 -64 5
-80 19 -7 35 -17 35 -21 0 -4 7 -8 15 -8 8 0 15 4 15 9 0 19 42 19 58 0 21
-24 38 -24 45 0 3 11 17 22 36 26 40 8 40 25 1 25 -16 0 -30 -4 -30 -10 0 -16
-37 -11 -44 6 -11 29 -6 47 19 68 27 23 26 56 -2 56 -33 0 -48 31 -46 98 1 35
4 66 6 69 11 10 57 -11 57 -26 0 -13 7 -16 34 -13 19 2 37 10 40 18 7 17 -3
44 -15 44 -5 0 -9 7 -9 15 0 8 -4 15 -10 15 -5 0 -10 -4 -10 -10 0 -15 -57
-12 -62 3 -2 6 -1 30 2 52 l5 40 22 -24 c28 -30 53 -22 53 18 0 36 36 54 55
27 7 -9 26 -16 44 -16 19 0 30 -4 26 -10 -3 -5 -19 -10 -36 -10 -24 0 -29 -4
-29 -24 0 -28 10 -33 56 -28 20 3 34 10 34 18 0 8 9 14 20 14 15 0 22 9 27 30
3 17 9 30 14 30 5 0 9 7 9 15 0 8 -4 15 -9 15 -5 0 -12 16 -15 35 -7 36 -30
46 -52 22z"/>
<path d="M5963 8803 c-7 -2 -13 -11 -13 -20 0 -11 7 -13 29 -8 31 7 51 -9 34
-26 -23 -23 -167 -9 -177 17 -3 8 -12 14 -21 14 -8 0 -15 5 -15 10 0 19 -25 9
-50 -20 -29 -36 -36 -37 -43 -9 -5 20 -11 21 -57 16 -67 -8 -85 -25 -53 -52
14 -11 30 -25 37 -31 6 -6 38 -13 70 -16 39 -3 63 -11 71 -21 15 -21 22 -21
42 -1 12 11 13 18 5 23 -20 12 -19 55 1 59 13 3 17 -3 17 -30 0 -32 26 -68 50
-68 6 0 10 -7 10 -15 0 -9 -9 -15 -25 -15 -14 0 -25 6 -25 13 0 8 -3 8 -9 -2
-11 -17 -90 -18 -101 -1 -9 15 -93 16 -98 1 -5 -15 -41 -14 -55 2 -17 17 -37
64 -37 86 0 21 -19 31 -60 31 -38 0 -60 9 -60 26 0 8 -9 14 -20 14 -13 0 -20
-7 -20 -20 0 -13 7 -20 20 -20 11 0 20 -7 20 -15 0 -11 -11 -15 -40 -15 -28 0
-40 4 -40 14 0 20 -29 28 -44 13 -7 -7 -15 -39 -19 -71 -3 -32 -7 -60 -9 -61
-2 -2 -22 -1 -46 2 -39 5 -42 8 -42 35 0 16 7 36 15 44 18 18 9 44 -16 44 -14
0 -19 -7 -19 -25 0 -14 -4 -25 -10 -25 -5 0 -10 -9 -10 -20 0 -11 3 -20 8 -20
28 0 37 -142 9 -148 -8 -2 -18 6 -22 17 -6 21 -15 25 -48 22 -9 -1 -20 6 -24
16 -4 10 -15 27 -25 37 -10 11 -18 23 -18 28 0 18 -41 48 -66 48 -24 0 -54
-20 -54 -36 0 -4 7 -12 17 -19 9 -7 14 -19 10 -29 -9 -23 -24 -20 -30 6 -4 12
-9 20 -11 17 -3 -3 21 -329 55 -725 74 -883 76 -923 58 -935 -8 -5 -141 -9
-296 -9 -267 0 -283 -1 -292 -19 -12 -21 -16 -1928 -5 -1968 4 -14 14 -23 25
-23 11 0 19 -7 19 -15 0 -8 5 -15 10 -15 6 0 10 -9 10 -20 0 -11 -4 -20 -10
-20 -15 0 -12 -58 3 -63 17 -5 47 3 47 14 0 5 9 1 20 -8 35 -30 23 -95 -21
-113 -16 -7 -29 -17 -29 -23 0 -5 -14 4 -30 22 -32 33 -50 39 -50 17 0 -28 12
-46 31 -46 13 0 19 -7 19 -24 0 -13 5 -26 12 -28 6 -2 13 -29 16 -60 4 -49 2
-57 -16 -67 -11 -6 -23 -24 -27 -41 -4 -16 -11 -30 -16 -30 -5 0 -9 -7 -9 -15
0 -27 20 -16 85 50 66 65 85 77 85 51 0 -8 4 -17 9 -20 16 -10 71 6 71 20 0 8
5 14 11 14 6 0 4 7 -5 15 -8 8 -23 15 -33 15 -10 0 -23 4 -30 8 -13 8 -40 98
-31 107 9 10 38 -7 38 -22 0 -8 9 -17 20 -20 11 -3 20 -10 20 -17 0 -6 5 -4
10 4 9 13 11 13 20 0 8 -11 10 -3 8 29 -1 28 2 46 10 49 7 2 12 15 12 28 0 20
-5 24 -30 24 -34 0 -41 22 -12 40 12 8 13 13 5 16 -19 8 -17 74 2 74 8 0 15
-4 15 -10 0 -5 7 -10 15 -10 10 0 15 -15 17 -57 3 -53 5 -58 28 -61 13 -2 29
-11 36 -20 13 -18 44 -10 44 13 0 20 44 20 65 -1 23 -23 30 -10 31 59 1 86 2
87 24 87 13 0 20 7 20 20 0 16 7 20 34 20 66 0 126 -12 126 -26 0 -8 -9 -14
-20 -14 -11 0 -20 -7 -20 -15 0 -8 -5 -15 -10 -15 -6 0 -2 -10 10 -22 11 -12
20 -25 20 -29 0 -4 10 -9 23 -13 13 -3 34 -15 47 -26 l23 -20 -31 0 c-30 0
-32 -2 -32 -36 0 -34 1 -36 27 -29 15 3 31 11 34 17 10 15 92 15 97 0 6 -19
43 -14 64 10 13 15 17 30 13 50 -4 17 -2 28 4 28 6 0 11 7 11 15 0 8 4 15 10
15 5 0 12 16 16 35 3 19 10 35 15 35 5 0 14 11 19 25 13 34 25 32 65 -11 33
-34 34 -35 54 -17 27 22 27 63 1 86 -11 9 -20 24 -20 33 0 19 40 64 58 64 6 0
12 5 12 10 0 6 7 10 15 10 10 0 15 11 15 35 0 31 3 35 25 35 47 0 115 24 121
42 8 26 -3 38 -36 38 -23 0 -30 -5 -35 -30 -6 -28 -10 -30 -50 -30 -35 0 -45
4 -50 20 -9 28 0 38 40 46 71 13 25 66 -60 68 -25 1 -36 56 -11 56 9 0 16 -4
16 -10 0 -5 9 -10 20 -10 11 0 20 5 20 10 0 6 7 10 15 10 8 0 15 -3 15 -7 0
-5 11 -20 24 -35 23 -28 46 -37 46 -18 0 6 -4 10 -10 10 -5 0 -10 11 -10 24 0
21 6 25 33 28 l32 3 0 102 0 101 -47 46 c-51 49 -56 61 -35 69 20 8 35 -5 42
-36 7 -25 35 -39 35 -17 0 6 11 10 25 10 14 0 25 -4 25 -9 0 -5 11 -12 24 -15
19 -5 25 -15 32 -58 l9 -53 3 63 c2 40 -2 69 -9 78 -9 11 -9 18 -1 26 7 7 12
43 12 82 1 396 168 689 481 847 72 36 208 80 292 94 68 11 77 29 77 155 l0
110 -174 0 c-145 0 -176 3 -187 16 -10 13 -5 107 32 542 45 536 46 552 10 552
-11 0 -14 -11 -15 -65 -1 -35 -30 -47 -39 -15 -6 24 -20 26 -41 5 -18 -19 -24
-19 -42 -1 -21 22 -17 33 16 45 17 5 30 17 30 25 0 9 7 16 15 16 8 0 15 5 15
10 0 6 9 10 20 10 28 0 25 12 -14 54 -25 26 -43 36 -65 36 -26 0 -31 4 -36 34
-6 27 -11 33 -26 29 -10 -3 -19 -12 -19 -19 0 -8 -4 -14 -10 -14 -5 0 -10 -7
-10 -15 0 -9 -9 -15 -21 -15 -21 0 -49 22 -49 38 0 10 -23 22 -40 22 -4 0 -6
-9 -3 -20 3 -11 9 -20 14 -20 5 0 9 -16 9 -36 0 -37 0 -37 -37 -31 -20 4 -40
12 -45 19 -6 10 -8 9 -8 -4 0 -17 36 -58 52 -58 14 0 9 -61 -7 -76 -8 -9 -15
-11 -15 -5 0 6 -7 11 -15 11 -9 0 -18 7 -22 16 -11 29 -62 74 -83 74 -12 0
-31 -11 -44 -25 -28 -30 -46 -32 -46 -6 0 19 -18 31 -47 31 -18 0 -43 24 -43
42 -1 23 -26 48 -49 48 -31 0 -28 38 4 46 35 9 35 49 -1 58 -16 4 -29 17 -36
36 -12 37 -26 38 -34 5 -8 -34 -24 -32 -24 4 0 35 -19 91 -31 91 -5 0 -9 5 -9
10 0 7 13 8 33 5 24 -5 39 -2 50 9 18 18 27 20 27 6 0 -19 40 -50 65 -50 14 0
25 4 25 9 0 5 9 11 21 14 17 5 19 10 13 43 -5 26 -4 35 5 30 6 -4 11 -23 11
-42 0 -19 4 -34 9 -34 5 0 12 -11 15 -25 4 -14 13 -25 21 -25 11 0 14 11 13
41 -1 30 4 46 17 55 22 17 29 119 8 139 -17 18 -17 35 2 35 8 0 15 4 15 9 0 5
14 11 31 15 19 4 33 13 36 26 3 11 9 20 14 20 5 0 9 20 9 44 0 31 -5 46 -16
50 -18 7 -43 7 -61 -1z"/>
<path d="M8274 8786 c-18 -20 19 -76 51 -76 8 0 18 -6 21 -14 3 -8 19 -18 36
-21 16 -4 32 -14 36 -23 11 -31 33 -45 76 -49 38 -5 44 -3 49 16 4 16 13 21
36 21 39 0 40 14 1 30 -16 7 -30 16 -30 21 0 15 -22 10 -35 -8 -11 -15 -14
-15 -31 5 -23 27 -34 28 -34 2 0 -23 -28 -27 -36 -6 -3 8 -18 18 -33 21 -29 6
-51 39 -51 75 0 23 -38 27 -56 6z"/>
<path d="M7676 8765 c-8 -8 -19 -15 -25 -15 -16 0 -14 -16 4 -34 31 -30 18
-41 -65 -52 -27 -4 -50 -10 -50 -14 0 -4 -20 -10 -46 -13 -27 -3 -50 -12 -58
-22 -10 -15 -21 -16 -59 -11 -31 5 -47 4 -47 -3 0 -6 6 -11 14 -11 8 0 18 -9
21 -21 5 -16 -1 -29 -28 -54 -45 -42 -56 -74 -29 -82 17 -4 19 -11 14 -74 -4
-60 -2 -69 14 -76 10 -4 29 -18 41 -31 13 -14 23 -20 23 -13 0 6 7 11 15 11
27 0 16 -20 -15 -26 -40 -9 -43 -44 -3 -44 43 0 76 45 70 95 -4 25 -1 47 7 58
14 18 66 24 66 7 0 -5 7 -10 15 -10 21 0 19 33 -4 50 -26 18 -12 46 29 55 30
7 43 35 16 35 -23 0 -26 26 -5 43 10 9 19 23 19 30 0 14 -35 47 -50 47 -11 0
-26 -48 -21 -69 1 -7 -7 -22 -18 -33 -12 -10 -21 -15 -21 -10 0 6 -16 13 -35
16 -32 6 -35 10 -34 39 0 18 3 26 6 20 10 -26 63 -3 63 26 0 6 7 11 15 11 8 0
15 9 15 20 0 16 7 20 35 20 22 0 38 6 41 15 5 12 8 12 20 0 17 -17 18 -32 2
-38 -7 -3 8 -6 34 -6 46 -1 47 0 54 33 3 19 3 48 -1 65 -6 30 -6 31 29 31 20
0 36 5 36 10 0 6 -13 10 -29 10 -16 0 -31 6 -35 15 -3 8 -10 15 -15 15 -5 0
-16 -7 -25 -15z"/>
<path d="M8300 8520 c0 -5 -10 -10 -22 -11 -25 -1 -19 -4 24 -13 21 -5 29 -14
34 -42 3 -19 12 -41 19 -47 17 -18 29 -57 16 -57 -21 0 -41 13 -41 27 0 19
-25 43 -45 43 -13 0 -15 -10 -13 -57 3 -57 4 -58 36 -63 18 -3 33 -8 32 -12 0
-5 0 -12 0 -17 0 -5 -13 -12 -30 -16 -28 -6 -44 -35 -19 -35 7 0 9 -10 5 -25
-4 -17 -1 -31 9 -42 14 -13 22 -14 60 -3 47 13 55 28 29 54 -14 15 -14 17 1
32 10 10 16 31 15 53 -3 61 -2 64 15 47 8 -8 15 -21 15 -28 0 -9 13 -12 50
-10 45 4 50 6 50 28 0 13 -4 24 -10 24 -5 0 -10 -4 -10 -10 0 -5 -9 -10 -20
-10 -11 0 -20 5 -20 10 0 6 -7 10 -16 10 -24 0 -44 25 -44 55 0 25 3 27 28 20
15 -3 29 -11 30 -16 5 -12 32 -12 32 1 0 6 15 11 33 11 17 1 24 3 15 6 -10 2
-18 11 -18 19 0 19 -30 51 -50 55 -22 3 -70 -12 -70 -22 0 -20 -44 -7 -70 21
-28 30 -50 39 -50 20z"/>
<path d="M7718 8183 c-44 -5 -53 -24 -44 -88 7 -41 6 -42 -25 -49 -62 -12 -69
-9 -69 29 0 28 -4 35 -20 35 -11 0 -20 -4 -20 -10 0 -5 -7 -10 -15 -10 -8 0
-17 -11 -21 -25 -3 -14 -13 -25 -20 -25 -8 0 -17 -13 -20 -29 -4 -17 -12 -32
-20 -35 -8 -3 -14 -15 -14 -26 0 -19 6 -20 203 -20 111 0 212 3 225 6 32 9 30
44 -3 44 -14 0 -25 5 -25 10 0 6 -16 10 -35 10 -19 0 -35 -4 -35 -10 0 -5 -20
-10 -45 -10 -34 0 -45 4 -45 16 0 24 19 54 35 54 7 0 16 6 18 13 4 9 8 8 16
-3 8 -11 30 -15 88 -15 81 0 108 13 126 58 3 9 13 17 22 17 8 0 15 7 15 15 0
8 -7 15 -15 15 -9 0 -18 7 -21 15 -9 22 -24 18 -24 -6 0 -19 -4 -21 -32 -15
-17 3 -40 15 -50 26 -19 20 -40 22 -130 13z"/>
<path d="M3396 7861 c-4 -42 -9 -109 -13 -148 -5 -61 -3 -73 9 -73 16 0 28 46
28 108 0 17 5 32 11 32 6 0 17 7 25 15 19 19 30 19 46 2 10 -11 15 -12 25 -1
20 20 15 41 -11 48 -15 4 -28 17 -34 36 -6 16 -18 30 -26 30 -9 0 -16 4 -16 9
0 5 -8 11 -19 14 -16 4 -19 -4 -25 -72z"/>
<path d="M6720 7393 c0 -10 -5 -52 -10 -93 -6 -41 -7 -77 -2 -81 4 -4 311 -9
682 -10 l675 -3 12 25 c10 20 10 41 0 100 l-13 74 -672 3 c-635 2 -672 1 -672
-15z"/>
<path d="M8440 7371 c0 -6 -18 -14 -40 -17 l-40 -7 1 -46 c0 -25 6 -111 13
-191 8 -89 10 -152 4 -162 -8 -16 -27 -18 -182 -18 -149 0 -175 -2 -180 -16
-3 -9 -6 -55 -6 -104 0 -119 5 -125 151 -161 181 -46 341 -132 448 -242 37
-39 46 -43 57 -32 8 7 14 26 14 40 0 39 38 75 78 75 32 0 33 1 27 30 -5 25 -3
30 12 30 38 0 53 35 53 120 0 69 3 82 20 92 11 7 20 21 20 30 0 21 -41 64 -70
73 -18 6 -20 15 -20 76 0 39 4 69 10 69 6 0 10 9 10 20 0 11 -4 20 -9 20 -5 0
-11 12 -13 28 -2 16 -12 31 -25 37 -13 5 -23 13 -23 17 0 5 -7 8 -15 8 -8 0
-15 -7 -15 -15 0 -26 -31 -4 -37 26 -5 24 -10 29 -35 29 -21 0 -31 6 -35 20
-3 11 -14 20 -24 20 -15 0 -19 7 -19 40 0 47 -23 75 -69 85 -17 4 -38 13 -46
22 -8 8 -15 10 -15 4z"/>
<path d="M3330 6921 c0 -5 10 -11 23 -13 21 -3 22 -7 18 -75 -2 -60 0 -74 13
-79 20 -8 21 -24 1 -24 -8 0 -15 4 -15 9 0 5 -14 12 -31 16 -17 4 -33 13 -36
21 -7 18 -30 18 -49 0 -18 -19 -18 -26 2 -26 23 0 44 -25 44 -55 0 -14 7 -28
15 -31 8 -4 15 -12 15 -20 0 -20 -40 -17 -56 4 -12 16 -13 16 -14 0 0 -9 5
-20 10 -23 17 -10 11 -25 -9 -25 -10 0 -21 7 -25 15 -3 8 -12 15 -20 15 -7 0
-16 6 -19 14 -3 7 -24 16 -47 20 -25 4 -50 16 -64 31 -27 29 -32 30 -52 11 -7
-8 -19 -17 -26 -19 -10 -4 -10 -8 2 -16 8 -5 12 -13 8 -16 -12 -12 -49 6 -58
28 -6 16 -9 5 -9 -42 -1 -56 1 -62 17 -56 29 13 126 12 139 -1 7 -7 14 -23 15
-35 3 -22 -1 -24 -52 -26 -83 -4 -97 -10 -109 -44 -13 -38 -36 -33 -36 7 0 27
-2 29 -45 31 -80 4 -160 -8 -160 -23 0 -8 4 -14 8 -14 11 0 32 -46 32 -70 0
-11 12 -24 30 -32 17 -7 30 -16 30 -19 0 -4 14 -9 30 -12 31 -7 43 -37 14 -37
-11 0 -15 -6 -11 -20 10 -38 -51 -69 -70 -36 -4 8 -20 18 -35 21 -22 6 -28 4
-28 -8 0 -9 9 -19 20 -22 11 -3 20 -11 20 -16 0 -6 11 -20 25 -33 14 -13 25
-33 25 -45 0 -18 -4 -20 -27 -15 -16 4 -29 11 -31 16 -2 4 -16 8 -32 8 -20 0
-31 -6 -35 -20 -8 -24 1 -40 21 -40 19 0 18 -29 -2 -37 -8 -3 -20 -1 -27 6 -6
6 -20 11 -30 11 -28 0 -46 29 -47 72 0 49 16 88 35 88 30 0 12 35 -20 38 -16
2 -34 9 -38 15 -5 7 -6 0 -2 -16 12 -57 -25 -97 -39 -42 -8 30 -36 60 -65 70
-31 10 -26 -15 9 -45 17 -13 30 -30 30 -36 0 -7 6 -15 13 -17 10 -4 10 -6 0
-6 -16 -1 -18 -101 -3 -101 6 0 10 -14 10 -31 0 -22 5 -32 20 -36 23 -6 27
-33 5 -33 -15 0 -16 -7 -19 -127 l-1 -48 68 -2 c56 -1 69 2 74 15 4 10 14 25
25 35 17 17 18 17 18 -18 0 -27 4 -35 18 -35 28 0 40 13 44 45 3 29 5 30 53
30 48 0 50 -2 59 -32 7 -24 16 -33 35 -35 31 -4 40 -38 17 -61 -21 -20 -20
-74 0 -94 12 -12 14 -27 10 -55 -9 -54 11 -71 85 -76 33 -2 59 -8 59 -13 0 -5
9 -9 20 -9 11 0 20 4 20 10 0 17 34 50 52 50 13 0 18 8 18 30 0 36 4 37 34 5
25 -27 36 -31 36 -14 0 33 87 61 97 32 3 -7 -2 -13 -11 -13 -27 0 -19 -39 9
-46 26 -6 84 12 97 30 5 7 8 4 8 -6 0 -10 7 -18 15 -18 8 0 15 -7 15 -15 0 -8
9 -15 20 -15 11 0 20 7 20 15 0 27 49 -2 63 -37 3 -10 13 -18 22 -18 13 0 15
76 13 708 l-3 707 -157 3 c-96 1 -158 -1 -158 -7z"/>
<path d="M3942 6917 c-10 -11 -12 -195 -12 -846 1 -719 3 -833 15 -838 16 -6
21 -33 6 -33 -5 0 -11 -9 -14 -20 -3 -13 0 -20 9 -20 8 0 14 -4 14 -8 0 -5 18
-15 40 -22 22 -7 40 -17 40 -22 0 -4 6 -8 13 -8 7 0 20 -9 30 -20 16 -19 16
-21 0 -40 -10 -11 -25 -20 -34 -20 -12 0 -16 6 -12 20 4 15 0 20 -16 20 -21 0
-25 -11 -21 -59 2 -22 -1 -23 -34 -17 -35 7 -36 6 -36 -24 0 -28 2 -30 40 -30
28 0 40 -4 40 -14 0 -8 7 -16 15 -20 8 -3 15 -12 15 -20 0 -7 7 -16 15 -20 19
-7 20 -35 1 -42 -8 -3 -17 -16 -20 -30 -6 -24 -36 -34 -36 -12 0 6 -9 0 -20
-13 -11 -13 -27 -31 -35 -41 -23 -23 -18 -295 5 -308 8 -4 26 -18 39 -29 13
-12 35 -21 48 -21 12 0 23 -4 23 -10 0 -5 9 -10 19 -10 11 0 23 -4 26 -10 3
-5 10 -10 16 -10 14 0 11 78 -3 83 -10 4 -10 6 0 6 9 1 12 257 12 1245 0 1070
-2 1245 -14 1256 -8 6 -48 14 -88 17 -58 4 -76 2 -86 -10z"/>
<path d="M7057 6923 c-4 -3 -7 -98 -7 -210 0 -250 10 -234 -170 -281 -69 -19
-132 -38 -140 -43 -11 -7 -8 -8 10 -4 35 8 63 -15 63 -53 0 -27 3 -30 19 -21
15 8 18 17 13 40 -6 25 -4 29 17 30 32 0 149 6 171 8 11 1 17 9 17 25 0 32 19
44 35 23 7 -10 16 -17 21 -17 5 0 17 -9 27 -20 9 -11 26 -20 37 -20 16 0 20
-7 20 -31 0 -28 1 -29 16 -15 20 20 34 20 34 1 0 -10 10 -15 30 -15 17 0 30 5
30 10 0 6 9 10 20 10 11 0 20 -4 20 -10 0 -5 7 -10 15 -10 8 0 15 -4 15 -10 0
-5 13 -10 29 -10 16 0 31 -6 35 -15 7 -19 26 -20 26 -1 0 8 -11 17 -25 20 -28
7 -33 31 -9 40 9 3 31 6 49 6 18 0 35 5 37 10 2 6 17 12 33 13 29 2 30 1 27
-35 -3 -34 0 -38 20 -38 22 0 24 -4 24 -54 1 -37 7 -60 18 -71 19 -20 48 -13
40 10 -3 8 -1 15 5 15 6 0 11 -4 11 -10 0 -5 8 -10 18 -10 30 0 72 -24 78 -45
4 -11 14 -25 22 -31 10 -7 13 -19 8 -37 -5 -22 -12 -27 -36 -27 -52 0 -36 -27
20 -34 31 -4 53 -13 57 -21 7 -19 23 -19 23 0 0 9 9 15 25 15 22 0 25 -4 25
-34 0 -30 4 -35 30 -41 17 -4 30 -11 30 -16 0 -5 9 -9 19 -9 11 0 26 -7 35
-15 8 -8 23 -15 33 -15 12 0 14 -3 6 -8 -6 -4 -15 -20 -18 -35 -4 -16 -14 -31
-21 -34 -8 -3 -14 -20 -14 -39 0 -34 1 -34 45 -34 38 0 45 3 45 20 0 15 -7 20
-25 20 -33 0 -32 18 1 26 19 5 22 9 12 15 -11 7 -10 11 2 19 22 15 57 12 74
-6 14 -13 16 -13 16 0 0 19 -27 46 -46 46 -8 0 -14 7 -14 16 0 23 49 66 67 60
8 -3 19 -6 24 -6 5 0 9 -7 9 -15 0 -8 5 -15 10 -15 6 0 10 -7 10 -15 0 -19 7
-19 26 -1 15 16 19 46 6 46 -5 0 -21 11 -37 24 -22 19 -26 29 -21 50 4 17 13
26 26 26 11 0 20 -4 20 -10 0 -5 7 -10 15 -10 8 0 15 5 15 10 0 6 8 10 18 10
41 1 45 17 13 47 -32 32 -45 93 -18 93 7 0 20 9 30 20 9 11 24 20 32 20 17 0
39 -46 31 -64 -3 -7 -5 -6 -5 2 -2 20 -29 14 -36 -9 -9 -28 -3 -32 62 -37 l57
-5 -36 49 c-46 63 -137 137 -213 174 -51 25 -204 73 -427 135 -85 23 -88 31
-88 275 l0 200 -333 0 c-184 0 -337 -3 -340 -7z"/>
<path d="M2418 6026 c-7 -8 -22 -26 -32 -40 -10 -14 -25 -26 -32 -26 -8 0 -14
-9 -14 -19 0 -11 -7 -26 -15 -35 -8 -8 -15 -27 -15 -43 -1 -81 -40 -99 -92
-41 -15 17 -28 26 -28 20 0 -7 -7 -12 -15 -12 -8 0 -15 6 -15 13 0 8 -3 9 -8
1 -4 -6 -25 -14 -46 -17 -22 -4 -43 -11 -46 -18 -4 -6 -23 -11 -41 -12 -31 -2
-34 0 -37 31 -3 33 -21 45 -23 15 -2 -34 2 -43 35 -76 l32 -33 28 28 c26 26
32 28 79 22 29 -4 54 -11 55 -15 2 -5 14 -9 26 -9 13 0 35 -11 50 -25 15 -14
32 -25 37 -25 27 0 99 24 99 33 0 5 9 0 20 -13 11 -13 20 -29 20 -36 0 -18 28
-44 48 -44 13 0 17 9 17 33 0 26 4 33 23 35 38 6 23 38 -16 34 -26 -2 -32 2
-32 18 0 11 5 20 10 20 6 0 10 9 10 20 0 11 -4 20 -10 20 -5 0 -10 6 -10 13 0
7 -9 20 -20 30 -19 16 -18 47 1 47 5 0 9 9 9 20 0 11 -4 20 -10 20 -5 0 -10 7
-10 15 0 8 5 15 10 15 16 0 11 37 -6 44 -21 8 -21 8 -36 -8z"/>
<path d="M4993 4586 c-7 -8 -17 -16 -24 -18 -22 -7 1 -28 32 -28 22 0 29 -5
29 -20 0 -11 7 -20 16 -20 8 0 30 -16 48 -35 38 -40 86 -49 86 -16 0 10 9 21
20 24 11 3 20 10 20 17 0 7 -9 14 -20 17 -11 3 -20 9 -20 14 0 5 -7 9 -15 9
-8 0 -15 -4 -15 -10 0 -16 -38 -12 -60 7 -11 10 -20 30 -20 45 0 25 -4 28 -32
28 -18 -1 -38 -7 -45 -14z"/>
<path d="M5313 4250 c-3 -11 -12 -20 -19 -20 -8 0 -22 -9 -31 -20 -10 -11 -23
-20 -30 -20 -7 0 -13 -6 -13 -12 0 -9 -4 -8 -10 2 -7 10 -13 11 -17 5 -5 -6
-27 -17 -50 -23 -24 -7 -43 -17 -43 -22 0 -6 -7 -10 -15 -10 -8 0 -15 -7 -15
-15 0 -8 6 -15 13 -15 7 0 27 -16 44 -35 23 -26 39 -35 62 -35 21 0 31 5 31
15 0 8 4 15 9 15 5 0 11 14 15 30 3 18 12 30 21 30 8 0 15 7 15 15 0 8 9 19
20 25 11 6 23 22 26 35 3 14 10 25 15 25 16 0 10 38 -7 44 -11 4 -18 -1 -21
-14z"/>
<path d="M5163 3673 c-7 -2 -13 -11 -13 -19 0 -10 -12 -14 -40 -14 -56 0 -82
-29 -74 -84 8 -51 21 -67 37 -45 16 21 52 32 77 24 20 -6 28 -35 10 -35 -5 0
-10 -7 -10 -15 0 -22 17 -18 23 5 3 11 12 20 21 20 9 0 16 5 16 10 0 6 -4 10
-10 10 -5 0 -10 10 -10 21 0 18 5 21 30 17 17 -3 33 -1 36 4 3 4 0 8 -5 8 -6
0 -11 9 -11 21 0 11 -6 27 -12 34 -7 8 -19 21 -26 30 -13 16 -19 17 -39 8z"/>
<path d="M4860 3662 c0 -4 -13 -13 -30 -19 -23 -9 -30 -18 -30 -37 0 -16 6
-26 15 -26 8 0 15 -4 15 -10 0 -5 -7 -10 -15 -10 -8 0 -15 -4 -15 -10 0 -5 -7
-10 -15 -10 -22 0 -18 -23 5 -38 19 -11 20 -19 14 -71 -6 -53 -4 -60 15 -70
29 -16 27 -41 -4 -41 -14 0 -25 -4 -25 -10 0 -5 -14 -10 -31 -10 -23 0 -32 -5
-36 -20 -3 -11 -16 -23 -29 -26 -13 -3 -24 -10 -24 -15 0 -5 -18 -9 -39 -9
-42 0 -51 11 -51 60 0 32 -36 50 -44 21 -3 -9 -35 -167 -71 -351 -49 -246 -71
-340 -85 -354 -17 -17 -35 -18 -249 -17 -127 1 -231 -1 -231 -4 0 -4 7 -13 15
-21 21 -21 19 -34 -5 -34 -11 0 -20 7 -20 15 0 16 -42 31 -59 21 -5 -3 -17 1
-25 10 -15 14 -17 14 -32 0 -8 -9 -22 -16 -30 -16 -16 0 -19 -26 -4 -32 5 -1
13 -25 16 -53 4 -27 10 -52 14 -55 3 -3 12 -24 18 -47 11 -35 17 -43 37 -43
18 0 24 6 27 28 3 23 8 27 41 30 48 4 49 -15 2 -54 -27 -22 -35 -36 -35 -61 0
-31 2 -33 35 -33 29 0 36 -4 41 -25 9 -35 34 -32 34 4 0 39 -9 61 -26 61 -10
0 -14 12 -14 40 0 30 4 40 16 40 9 0 18 -9 21 -20 3 -11 9 -20 13 -20 4 0 17
-9 30 -20 13 -11 29 -20 37 -20 7 0 13 -10 13 -21 0 -18 -5 -21 -30 -17 -23 3
-30 1 -30 -11 0 -23 11 -35 43 -48 15 -7 27 -19 27 -27 0 -24 26 -43 69 -50
35 -5 41 -10 41 -31 0 -17 -6 -25 -17 -25 -25 -1 -62 -31 -45 -37 7 -3 19 -11
26 -19 17 -16 36 -18 36 -4 0 6 9 10 20 10 11 0 20 -2 20 -5 0 -12 -24 -55
-32 -55 -4 0 -8 -7 -8 -15 0 -8 7 -15 15 -15 19 0 55 31 55 47 0 20 27 15 49
-8 17 -19 27 -21 70 -15 43 6 52 4 70 -16 25 -26 28 -73 5 -82 -9 -3 -49 -6
-90 -6 -66 0 -96 -11 -62 -22 9 -3 8 -10 -5 -23 -33 -32 -18 -50 38 -47 28 2
52 8 53 13 5 13 30 11 34 -3 5 -15 101 -13 106 2 2 5 10 10 18 10 19 0 18 37
-1 56 -8 9 -15 24 -15 36 0 16 5 19 28 15 15 -2 21 -2 15 0 -7 3 -13 13 -13
24 0 17 6 20 38 17 34 -3 37 -5 35 -32 -1 -17 -9 -34 -18 -38 -22 -13 -19 -22
15 -36 23 -11 37 -11 65 -2 29 10 35 16 35 41 0 16 -5 29 -11 29 -6 0 -4 7 5
15 16 16 46 20 46 6 0 -5 9 -11 20 -14 12 -3 20 -14 20 -28 0 -21 2 -22 77
-16 46 3 79 11 85 19 6 10 10 10 16 1 4 -6 20 -15 35 -18 15 -4 27 -11 27 -16
0 -5 7 -9 15 -9 8 0 15 5 15 10 0 6 7 10 15 10 9 0 20 11 25 25 5 14 14 25 20
25 5 0 12 11 16 25 3 14 11 26 18 26 22 2 41 -3 48 -14 4 -6 23 -11 42 -10 41
1 42 0 19 -23 -13 -13 -14 -19 -5 -22 6 -2 12 -15 12 -28 0 -17 6 -24 20 -24
11 0 20 5 20 10 0 17 30 11 52 -10 12 -11 27 -20 34 -20 14 0 29 -38 20 -47
-3 -4 -6 -1 -6 5 0 7 -13 12 -30 12 -34 0 -40 -15 -10 -25 15 -5 20 -15 20
-41 0 -34 5 -38 48 -34 13 1 22 -4 22 -13 0 -16 21 -27 52 -27 25 0 78 -55 78
-81 0 -11 7 -19 18 -19 9 0 23 -4 31 -9 11 -7 9 -13 -7 -29 -24 -24 -19 -58
10 -65 18 -5 19 -11 13 -74 -7 -78 1 -97 42 -98 19 0 29 -6 31 -19 4 -21 32
-54 32 -38 0 19 40 20 62 0 28 -24 60 -17 98 22 35 36 36 36 43 10 5 -19 11
-20 64 -15 69 6 113 -1 113 -20 0 -18 28 -45 45 -45 8 0 15 13 17 33 3 28 7
32 36 35 41 4 41 -11 1 -48 -42 -38 -34 -64 16 -54 43 8 48 -11 10 -44 -20
-18 -25 -31 -25 -72 0 -49 1 -50 19 -33 10 10 21 36 24 57 7 43 19 56 55 56
19 0 22 5 22 40 0 22 5 40 10 40 6 0 10 11 10 25 0 24 3 25 54 25 29 0 67 5
85 11 37 13 44 43 7 33 -18 -4 -27 -1 -35 14 -17 31 -13 48 14 73 19 18 25 34
25 67 0 36 3 42 21 42 11 0 18 4 14 10 -3 5 -3 21 1 35 5 22 11 25 50 25 24 0
44 5 44 10 0 6 -4 10 -10 10 -26 0 5 50 32 50 8 0 7 4 -4 11 -29 16 -22 39 11
39 27 0 29 3 36 55 3 30 13 61 21 69 8 8 14 18 14 22 0 16 53 54 75 54 18 0
25 -7 30 -31 4 -17 13 -33 21 -36 8 -3 14 -11 14 -19 0 -19 -29 -18 -36 1 -4
8 -18 15 -34 15 -24 0 -29 -5 -34 -35 -4 -19 -11 -35 -16 -35 -6 0 -10 -7 -10
-16 0 -11 6 -15 20 -11 15 4 20 0 20 -14 0 -10 4 -19 9 -19 5 0 16 -3 24 -6
10 -4 16 5 21 30 8 41 33 48 56 17 16 -23 30 -18 30 10 0 10 5 19 10 19 6 0
10 20 10 45 0 38 -3 45 -20 45 -15 0 -20 7 -20 25 0 14 -4 25 -10 25 -5 0 -10
7 -10 15 0 15 42 31 57 22 14 -9 40 12 27 21 -17 11 -23 37 -13 53 8 12 11 11
20 -3 5 -10 17 -18 24 -18 8 0 15 -4 15 -9 0 -5 11 -12 25 -15 14 -4 25 -11
25 -18 0 -6 8 -17 18 -24 16 -12 16 -14 -5 -33 -12 -12 -29 -21 -38 -21 -8 0
-15 -4 -15 -10 0 -13 26 -13 51 0 16 9 19 7 19 -9 0 -10 7 -21 15 -25 10 -4
15 1 15 15 0 11 7 22 15 25 20 8 60 -2 77 -20 22 -22 42 9 39 62 -2 35 2 48
20 65 15 14 24 17 27 9 4 -14 32 -16 32 -2 0 6 9 10 20 10 27 0 25 28 -2 32
-13 2 -24 11 -26 20 -3 14 6 19 37 24 25 4 41 12 41 20 0 17 41 28 69 19 12
-3 26 -15 31 -26 6 -10 16 -19 23 -19 7 0 6 4 -3 10 -11 7 -14 24 -13 60 2 39
-2 55 -17 70 -11 11 -20 25 -20 30 0 18 40 11 57 -10 13 -15 30 -20 63 -20 73
0 90 8 90 41 0 16 5 29 10 29 6 0 10 7 10 15 0 9 9 15 25 15 20 0 25 5 25 25
0 18 5 25 20 25 11 0 20 4 20 9 0 5 12 12 28 16 15 4 21 10 15 12 -7 3 -13 16
-13 29 0 29 35 33 57 7 13 -16 14 -15 8 12 -4 20 -3 25 4 16 5 -7 14 -10 20
-7 16 10 14 36 -4 42 -8 4 -15 12 -15 20 0 8 7 14 15 14 8 0 15 7 15 15 0 8
-9 15 -20 15 -12 0 -20 7 -20 16 0 9 9 18 20 21 14 4 20 14 20 34 l0 29 -561
0 c-528 0 -560 -1 -557 -17 2 -10 14 -19 27 -21 18 -3 22 -8 17 -25 -3 -12 -6
-25 -6 -29 0 -15 -71 -8 -76 7 -4 8 -16 15 -29 15 -13 0 -25 -7 -29 -15 -3 -8
-17 -15 -31 -15 -28 0 -65 -32 -65 -55 0 -12 -12 -15 -56 -14 -37 2 -59 -2
-64 -11 -7 -11 -11 -10 -25 3 -22 23 -36 21 -42 -4 -4 -12 -11 -18 -20 -15 -8
3 -17 6 -19 6 -2 0 -4 7 -4 15 0 8 -7 15 -15 15 -8 0 -15 -7 -15 -15 0 -8 -7
-15 -16 -15 -11 0 -14 -5 -10 -16 3 -9 6 -18 6 -20 0 -2 7 -4 15 -4 9 0 15 -9
15 -25 0 -14 5 -25 10 -25 6 0 10 -9 10 -20 0 -11 5 -29 12 -40 7 -10 8 -23 4
-27 -5 -4 -11 -2 -13 5 -3 6 -11 12 -19 12 -8 0 -14 5 -14 10 0 6 -7 10 -16
10 -8 0 -22 7 -30 15 -9 8 -24 15 -34 15 -10 0 -20 9 -23 20 -3 13 -14 20 -30
20 -14 0 -27 6 -29 12 -5 15 -38 -13 -38 -31 0 -14 37 -51 50 -51 6 0 10 -4
10 -10 0 -6 -18 -7 -45 -3 -31 4 -45 2 -45 -6 0 -14 36 -51 51 -51 12 0 2 -38
-15 -56 -17 -16 -36 8 -36 45 0 16 -3 36 -6 45 -7 17 -44 22 -44 6 0 -5 -7
-10 -15 -10 -8 0 -15 7 -15 15 0 10 -10 15 -30 15 -26 0 -30 -4 -36 -37 -4
-21 -13 -44 -21 -51 -7 -7 -13 -20 -13 -28 0 -21 -28 -17 -35 5 -7 24 4 71 17
71 5 0 3 7 -6 15 -16 17 -56 20 -56 5 0 -5 -16 -10 -35 -10 -19 0 -35 5 -35
10 0 6 -14 10 -31 10 -17 0 -39 5 -50 11 -19 9 -20 7 -17 -28 l3 -38 -44 3
c-49 3 -71 -10 -71 -43 0 -31 -27 -39 -47 -15 -19 21 -83 28 -83 9 0 -18 -28
-39 -44 -33 -20 8 -21 30 -1 38 8 3 15 15 15 26 0 15 7 20 29 20 16 0 31 5 33
11 2 6 25 13 51 16 50 6 60 21 32 49 -8 9 -15 27 -15 41 0 23 -3 25 -27 18
-16 -4 -47 -9 -70 -12 -24 -3 -43 -9 -43 -14 0 -5 -6 -9 -13 -9 -8 0 -24 -9
-37 -20 -13 -11 -26 -20 -30 -20 -4 0 -10 -28 -14 -62 -4 -40 -12 -65 -21 -71
-12 -6 -14 -17 -9 -43 5 -30 3 -36 -14 -41 -11 -3 -23 -11 -26 -19 -3 -8 -12
-14 -21 -14 -8 0 -15 -6 -15 -12 0 -9 -2 -10 -8 -2 -4 6 -17 14 -29 18 -41 13
-40 60 3 70 19 5 24 13 24 36 0 23 5 31 24 36 23 5 24 8 20 87 -2 56 -8 83
-18 89 -7 4 -17 19 -20 33 -4 14 -13 25 -21 25 -8 0 -15 5 -15 11 0 7 8 9 20
5 68 -21 63 -22 56 16 -5 30 -3 36 14 41 30 8 24 34 -9 42 -21 4 -33 15 -40
36 -10 30 -18 34 -45 23 -21 -8 -21 -54 -1 -54 8 0 15 -7 15 -15 0 -11 -11
-15 -40 -15 -22 0 -40 5 -40 10 0 15 -29 12 -46 -5 -8 -8 -21 -12 -29 -9 -17
7 -21 64 -5 64 15 0 12 29 -5 46 -20 20 -19 44 1 44 18 0 44 -23 44 -39 0 -20
31 -11 56 16 24 26 24 26 5 45 -11 10 -25 18 -31 18 -19 0 -10 31 16 55 15 14
22 25 15 25 -17 0 -13 18 5 22 11 2 17 18 19 57 2 29 6 55 7 57 10 9 48 -10
53 -27 8 -24 33 -25 42 -2 4 10 19 30 35 45 27 26 39 78 18 78 -5 0 -10 9 -10
20 0 11 -4 20 -10 20 -13 0 -13 33 1 47 14 14 2 53 -17 53 -8 0 -14 -4 -14
-10 0 -5 -11 -10 -25 -10 -33 0 -33 -29 1 -63 38 -38 23 -50 -52 -44 -58 4
-64 3 -64 -14 0 -11 -6 -19 -13 -19 -16 0 -37 42 -36 73 0 21 1 21 10 -3 6
-13 12 -26 14 -28 8 -9 55 53 50 66 -3 7 -5 16 -5 18 0 2 -6 4 -13 4 -8 0 -24
9 -37 20 -13 11 -35 20 -50 20 -19 0 -29 -6 -33 -20 -4 -16 -14 -20 -51 -20
-34 0 -46 4 -46 15 0 8 5 15 10 15 22 0 8 28 -17 35 -16 4 -22 10 -15 12 6 3
12 11 12 19 0 8 11 24 25 36 14 12 25 28 25 35 0 7 5 13 10 13 6 0 10 20 10
44 0 34 5 47 23 59 l22 15 -27 27 c-21 20 -32 25 -50 19 -13 -3 -26 -12 -30
-18 -5 -7 -8 -4 -8 7 0 9 -4 17 -10 17 -5 0 -10 7 -10 15 0 8 4 15 10 15 5 0
12 16 16 35 5 29 11 35 40 41 36 7 43 18 21 31 -8 4 -16 16 -20 26 -4 10 -17
17 -32 17 -30 0 -55 21 -55 44 0 9 -7 16 -15 16 -8 0 -15 -4 -15 -8z"/>
<path d="M6893 3543 c24 -6 21 -33 -4 -33 -11 0 -17 -4 -14 -10 3 -5 13 -10
21 -10 9 0 23 -7 32 -16 14 -15 16 -15 24 5 12 35 38 26 38 -13 0 -21 6 -36
15 -40 11 -4 15 -20 15 -56 0 -36 4 -50 14 -50 17 0 25 -18 18 -42 -3 -13 -14
-18 -38 -18 -27 0 -34 4 -34 20 0 13 -7 20 -20 20 -22 0 -27 -28 -11 -59 13
-23 3 -61 -15 -61 -8 0 -14 8 -14 18 0 21 -34 52 -56 52 -22 0 -51 -35 -59
-70 -3 -16 -13 -31 -21 -34 -8 -3 -14 -19 -14 -36 0 -25 4 -30 25 -30 16 0 25
-6 25 -15 0 -8 5 -15 10 -15 6 0 10 -6 10 -13 0 -15 35 -47 53 -47 32 -1 64
-50 32 -50 -8 0 -15 -4 -15 -10 0 -21 -19 -8 -29 20 -12 36 -54 42 -71 10 -6
-11 -15 -20 -21 -20 -18 0 -39 -28 -39 -51 0 -20 4 -21 42 -16 24 3 44 11 46
16 5 16 32 13 32 -3 0 -13 83 -15 590 -16 575 -1 590 0 590 19 0 10 -7 22 -16
25 -11 4 -13 13 -8 28 3 13 11 25 15 26 21 8 7 22 -22 22 -29 0 -30 2 -24 29
9 40 -4 101 -21 101 -8 0 -14 4 -14 9 0 5 -9 11 -20 14 -27 7 -15 37 15 37 13
0 30 7 39 15 8 8 25 15 38 15 28 1 69 30 51 37 -15 6 -17 33 -3 33 6 0 10 16
10 35 0 39 24 49 35 15 6 -18 8 -18 35 10 15 16 33 45 40 64 6 20 16 36 21 36
5 0 9 11 9 25 0 14 -4 25 -10 25 -5 0 -10 9 -10 19 0 23 28 34 64 25 16 -4 26
-2 26 5 0 17 -639 15 -662 -3 -23 -17 -22 -22 2 -46 22 -22 40 -26 40 -10 0 6
7 10 15 10 20 0 19 -16 -1 -24 -12 -4 -14 -14 -9 -36 5 -22 2 -35 -11 -47 -12
-13 -19 -14 -22 -5 -2 6 -10 12 -17 12 -22 0 -35 34 -35 87 0 36 -5 51 -19 60
-13 8 -109 12 -320 12 -294 1 -301 0 -301 -19 0 -11 -4 -20 -10 -20 -5 0 -10
9 -10 20 0 16 -6 20 -32 19 -18 -1 -25 -3 -15 -6z m267 -138 c6 -19 16 -35 21
-35 5 0 9 -16 9 -35 0 -42 20 -46 53 -12 12 13 30 26 40 30 26 10 24 -53 -3
-76 -24 -20 -26 -47 -5 -47 9 0 15 -9 15 -25 0 -14 -4 -25 -10 -25 -21 0 -9
-19 20 -32 17 -7 30 -16 30 -20 0 -5 6 -8 13 -8 23 0 63 -60 40 -60 -5 0 -18
-3 -30 -6 -19 -5 -22 -1 -25 28 -2 28 -7 34 -31 36 -18 2 -29 -2 -33 -12 -9
-24 -24 -19 -24 8 0 29 -43 42 -66 19 -13 -13 -17 -13 -33 6 -10 12 -28 21
-40 21 -27 0 -28 20 -1 27 14 4 20 14 20 34 0 17 6 32 14 35 18 7 26 38 15 55
-8 12 -11 11 -19 -1 -8 -12 -10 -9 -10 13 0 29 -24 38 -34 12 -9 -24 -26 -17
-26 10 0 18 5 25 20 25 15 0 20 7 20 29 0 28 10 38 37 40 6 1 17 -15 23 -34z"/>
<path d="M5887 3502 c-15 -3 -17 -10 -13 -40 7 -39 -8 -76 -21 -56 -5 7 -41
18 -80 25 -46 8 -73 18 -73 26 0 7 -9 13 -20 13 -24 0 -28 -38 -5 -46 9 -4 15
-19 15 -38 0 -31 1 -31 51 -31 38 0 53 -4 60 -17 13 -23 31 -23 52 2 9 11 23
20 32 20 8 0 19 -9 25 -20 6 -11 16 -20 22 -20 6 0 24 -13 40 -30 31 -33 48
-38 48 -15 0 8 5 15 10 15 6 0 10 14 10 30 0 17 -4 30 -9 30 -11 0 -20 80 -11
100 4 8 5 21 3 28 -7 17 -43 15 -43 -3 0 -18 -26 -20 -37 -2 -14 21 -37 34
-56 29z"/>
<path d="M4176 3124 c-3 -9 -6 -26 -6 -39 0 -18 -7 -24 -35 -29 -19 -4 -35
-11 -35 -16 0 -6 -8 -18 -17 -28 -10 -10 -25 -28 -33 -40 -9 -14 -25 -22 -45
-22 -69 0 -95 -24 -80 -71 7 -21 11 -21 114 -15 58 4 110 11 115 16 4 4 16 48
26 97 32 159 32 163 17 163 -8 0 -18 -7 -21 -16z"/>
<path d="M4630 1437 c0 -15 -32 -43 -57 -50 -16 -4 -16 -5 0 -6 23 -1 22 -23
-3 -44 -21 -18 -28 -67 -9 -67 21 0 38 -35 39 -77 0 -31 4 -43 15 -43 9 0 15
9 15 25 0 15 6 25 15 25 22 0 55 -32 55 -52 0 -10 7 -18 15 -18 9 0 15 -9 15
-25 0 -14 7 -28 15 -31 8 -4 15 -16 16 -28 0 -14 2 -16 6 -6 3 8 12 19 19 23
19 11 17 29 -3 48 -10 9 -27 29 -38 44 -32 45 -41 52 -84 59 -23 3 -41 11 -41
17 0 13 -38 49 -52 49 -4 0 -8 9 -8 20 0 16 7 20 35 20 35 0 36 1 30 33 -5 24
-2 39 9 50 18 17 21 47 6 47 -5 0 -10 -6 -10 -13z"/>
<path d="M5408 1343 c-16 -2 -28 -9 -28 -14 0 -5 -11 -9 -25 -9 -19 0 -25 -5
-25 -21 0 -24 48 -75 76 -81 15 -3 18 -11 16 -40 -2 -31 1 -37 20 -40 17 -2
24 -11 26 -30 2 -16 7 -28 11 -28 5 0 20 -11 34 -25 21 -22 31 -25 65 -19 23
3 43 13 46 20 8 21 46 18 46 -3 0 -23 -11 -38 -33 -46 -28 -11 -20 -71 11 -75
18 -3 22 1 22 26 0 18 6 32 16 36 21 8 20 8 37 -8 7 -8 38 -16 68 -18 50 -3
54 -1 57 20 3 16 10 22 29 22 36 0 95 -22 110 -40 10 -13 14 -12 32 7 22 23
29 63 11 63 -5 0 -10 7 -10 15 0 8 9 15 20 15 12 0 20 -7 20 -16 0 -20 24 -44
44 -44 20 0 20 -14 1 -34 -17 -17 -20 -36 -5 -36 6 0 10 -9 10 -20 0 -11 -4
-20 -10 -20 -5 0 -10 4 -10 9 0 5 -9 11 -20 14 -15 4 -20 0 -20 -14 0 -25 38
-59 67 -59 13 0 23 -4 23 -10 0 -5 9 -10 20 -10 11 0 20 5 20 10 0 6 16 10 35
10 19 0 35 -4 35 -10 0 -5 9 -10 20 -10 11 0 20 7 20 15 0 18 27 20 33 3 2 -7
3 -1 1 15 -2 19 1 27 11 27 8 0 16 -6 16 -12 1 -7 4 1 8 17 5 23 12 31 34 33
25 3 41 32 17 32 -5 0 -10 7 -10 15 0 19 -26 19 -34 0 -3 -8 -12 -15 -20 -15
-7 0 -16 -7 -20 -15 -3 -8 -12 -15 -20 -15 -9 0 -13 -6 -10 -14 4 -10 -10 -15
-62 -18 -40 -2 -69 -9 -72 -16 -6 -18 -42 -15 -42 4 0 11 6 13 19 9 31 -9 51
19 44 63 -3 20 -9 39 -13 42 -4 3 -13 20 -21 38 -9 20 -23 35 -39 39 -14 3
-37 19 -51 35 -21 23 -32 28 -52 22 -15 -3 -29 -16 -33 -27 -9 -29 -22 -37
-62 -37 -19 0 -35 -6 -38 -15 -3 -8 -21 -17 -40 -21 -19 -3 -34 -10 -34 -15 0
-5 -7 -9 -15 -9 -8 0 -15 5 -15 10 0 6 -16 10 -36 10 -27 0 -37 5 -41 20 -3
10 -15 22 -27 26 -11 4 -24 12 -28 18 -6 8 -8 7 -8 -1 0 -24 -30 -13 -36 12
-5 19 0 32 20 52 25 25 35 71 19 87 -5 4 -8 15 -9 24 -3 50 -4 52 -33 52 -16
0 -36 -3 -45 -6 -17 -7 -22 -44 -6 -44 6 0 10 -11 10 -25 0 -18 5 -25 20 -25
11 0 20 -4 20 -10 0 -5 -4 -10 -9 -10 -5 0 -12 -13 -16 -30 -6 -26 -11 -30
-38 -29 -18 0 -26 3 -19 6 23 9 13 49 -15 64 -16 8 -32 20 -36 26 -4 7 -12 13
-18 13 -5 0 -16 5 -23 12 -10 9 -8 16 8 32 13 13 21 16 24 8 7 -23 23 -11 20
15 -3 29 -13 33 -60 26z"/>
</g>
</svg>
