<svg xmlns="http://www.w3.org/2000/svg" viewBox="0 0 369.632 369.632">
  <path d="M144.321 226.328a26.196 26.196 0 0114.199 4.168c-4.691-7.31-12.886-12.167-22.198-12.167-14.537 0-26.364 11.827-26.364 26.364 0 9.311 4.857 17.505 12.166 22.197a26.196 26.196 0 01-4.167-14.197c-.001-14.538 11.827-26.365 26.364-26.365z" fill="#fff"/>
  <path d="M158.52 230.496a26.201 26.201 0 00-14.199-4.168c-14.537 0-26.364 11.827-26.364 26.364a26.194 26.194 0 004.167 14.197 26.2 26.2 0 0014.198 4.167c14.537 0 26.365-11.827 26.365-26.364a26.193 26.193 0 00-4.167-14.196zm-16.017 21.696H130.14a7.5 7.5 0 010-15h12.363a7.5 7.5 0 010 15z" fill="#ffa6bb"/>
  <path d="M241.309 226.328a26.196 26.196 0 0114.199 4.168c-4.691-7.31-12.887-12.167-22.199-12.167-14.537 0-26.363 11.827-26.363 26.364 0 9.311 4.857 17.505 12.166 22.197a26.197 26.197 0 01-4.168-14.197c-.001-14.538 11.827-26.365 26.365-26.365z" fill="#fff"/>
  <path d="M255.508 230.496a26.201 26.201 0 00-14.199-4.168c-14.537 0-26.365 11.827-26.365 26.364a26.194 26.194 0 004.168 14.197 26.199 26.199 0 0014.197 4.167c14.537 0 26.365-11.827 26.365-26.364a26.192 26.192 0 00-4.166-14.196zm-16.018 21.696h-12.363a7.5 7.5 0 010-15h12.363a7.5 7.5 0 017.5 7.5 7.5 7.5 0 01-7.5 7.5z" fill="#ffa6bb"/>
  <path d="M142.503 237.192H130.14a7.5 7.5 0 000 15h12.363a7.5 7.5 0 000-15z" fill="#7f3960"/>
  <path d="M119.046 282.254a41.594 41.594 0 01-12.46-8.851c7.645 46.341 39.815 81.229 78.229 81.229 1.794 0 3.569-.101 5.333-.25-33.578-2.85-61.554-32.357-71.102-72.128zM190.086 150.003a58.45 58.45 0 00-5.27-.244c-32.875 0-61.177 25.554-73.447 61.971a41.298 41.298 0 0113.146-6.683c12.553-30.89 37.036-52.595 65.571-55.044zM318.01 180.386c.139-2.171.217-4.352.217-6.543 0-41.889-25.701-78.658-64.117-99.031 5.434 6.431 9.785 13.405 12.941 20.745 29.33 20.01 48.801 50.446 50.959 84.829z" fill="#fff"/>
  <path d="M193.744 68.214c7.975 0 15.789.613 23.383 1.785 11.447 4.96 21.272 11.479 29.1 19.068-8.631-12.023-21.676-22.284-38.027-29.37a153.409 153.409 0 00-23.383-1.785c-73.562 0-133.41 52.006-133.41 115.93 0 27.69 11.184 53.893 31.297 74.602-14.465-18.796-22.369-41.022-22.369-64.3-.002-63.924 59.846-115.93 133.409-115.93z" fill="#fff"/>
  <path d="M195.814 25c25.512 0 49.031 8.396 66.812 22.19C244.24 27.552 216.016 15 184.814 15c-43.269 0-80.818 24.135-94.336 57.84 8.555-6.229 17.914-11.625 27.912-16.059C136.785 37.378 164.831 25 195.814 25z" fill="#fff"/>
  <path d="M195.814 25c-30.984 0-59.03 12.378-77.424 31.781 19.997-8.867 42.562-13.868 66.426-13.868 44.297 0 75.309 16.07 94.336 29.927-3.771-9.4-9.414-18.053-16.525-25.648C244.846 33.396 221.326 25 195.814 25z" fill="#ffa6bb"/>
  <path d="M184.816 42.913c44.297 0 75.309 16.07 94.336 29.927-3.771-9.4-9.414-18.053-16.525-25.648C244.24 27.553 216.016 15 184.814 15c-43.269 0-80.818 24.135-94.336 57.84 8.554-6.229 17.914-11.625 27.912-16.059 19.997-8.867 42.562-13.868 66.426-13.868zM267.051 95.556c29.33 20.011 48.801 50.447 50.959 84.829.139-2.171.217-4.352.217-6.543 0-41.889-25.701-78.658-64.117-99.031 5.433 6.432 9.784 13.405 12.941 20.745z" fill="none"/>
  <path d="M267.051 95.556c3.873 9.004 5.941 18.56 5.941 28.364 0 17.157-6.531 34.195-18.48 48.605 15.668 20.951 25.262 48.95 25.262 79.672 0 1.033-.012 2.062-.033 3.088 22.875-20.077 36.453-46.525 38.27-74.899-2.159-34.383-21.63-64.819-50.96-84.83zM184.816 134.759c22.622 0 43.415 9.838 59.745 26.23 8.803-11.305 13.432-23.982 13.432-37.068 0-12.34-4.176-24.278-11.768-34.854-7.826-7.588-17.652-14.106-29.098-19.067a153.409 153.409 0 00-23.383-1.785c-73.563 0-133.411 52.006-133.411 115.93 0 23.277 7.903 45.503 22.367 64.298a124.62 124.62 0 007.191 6.844 151.104 151.104 0 01-.033-3.089c.001-64.757 42.598-117.439 94.958-117.439z" fill="#ffa6bb"/>
  <path d="M257.137 208.733zM257.769 210.35zM184.816 42.913c44.297 0 75.309 16.07 94.336 29.927-3.771-9.4-9.414-18.053-16.525-25.648C244.24 27.553 216.016 15 184.814 15c-43.269 0-80.818 24.135-94.336 57.84 8.554-6.229 17.914-11.625 27.912-16.059 19.997-8.867 42.562-13.868 66.426-13.868zM263.045 273.403zM261.25 282.254zM257.133 208.722a87.906 87.906 0 010 0z" fill="none"/>
  <path d="M184.816 42.913c44.297 0 75.309 16.07 94.336 29.927-3.771-9.4-9.414-18.053-16.525-25.648C244.24 27.553 216.016 15 184.814 15c-43.269 0-80.818 24.135-94.336 57.84 8.554-6.229 17.914-11.625 27.912-16.059 19.997-8.867 42.562-13.868 66.426-13.868z" fill="none"/>
  <path d="M298.92 90.217c-2.814-24.407-15.656-46.927-36.357-63.642C241.338 9.438 213.727 0 184.814 0c-28.91 0-56.521 9.438-77.745 26.576C86.367 43.291 73.526 65.811 70.71 90.217c-21.41 22.698-34.305 51.857-34.305 83.625 0 39.945 20.17 77.027 55.392 102.028 8.881 53.446 47.214 93.762 93.018 93.762 45.805 0 84.137-40.317 93.018-93.763 35.223-25.002 55.393-62.083 55.393-102.027.001-31.768-12.896-60.927-34.306-83.625zM184.814 15c31.202 0 59.426 12.553 77.813 32.191 7.111 7.596 12.754 16.249 16.525 25.648-19.027-13.856-50.039-29.927-94.336-29.927-23.864 0-46.429 5.001-66.426 13.868-9.998 4.434-19.358 9.83-27.912 16.059C103.996 39.135 141.545 15 184.814 15zM89.892 255.286a124.295 124.295 0 01-7.191-6.844c-20.111-20.708-31.295-46.91-31.295-74.6 0-63.924 59.848-115.93 133.41-115.93 7.975 0 15.79.613 23.383 1.785 16.35 7.086 29.397 17.346 38.025 29.369 7.592 10.576 11.768 22.514 11.768 34.854 0 13.086-4.629 25.764-13.432 37.068-16.33-16.391-37.123-26.23-59.745-26.23-52.359 0-94.957 52.682-94.957 117.438.001 1.033.013 2.063.034 3.09zm72.795-10.594c0 14.537-11.828 26.364-26.365 26.364a26.203 26.203 0 01-14.198-4.167c-7.309-4.692-12.166-12.885-12.166-22.197 0-14.537 11.827-26.364 26.364-26.364 9.312 0 17.507 4.858 22.198 12.167a26.199 26.199 0 014.167 14.197zm98.563 37.562c-9.547 39.771-37.522 69.279-71.102 72.128a62.85 62.85 0 01-5.333.25c-38.414 0-70.584-34.888-78.229-81.229a41.576 41.576 0 0012.46 8.851 41.04 41.04 0 0017.275 3.802c22.809 0 41.365-18.556 41.365-41.364s-18.557-41.364-41.365-41.364c-4.103 0-8.066.601-11.808 1.719a41.306 41.306 0 00-13.146 6.682c12.271-36.417 40.572-61.971 73.447-61.971 1.79 0 3.544.088 5.272.244 35.231 3.173 57.313 37.529 65.402 54.963.633 1.363 2.631 6.34 2.773 6.764a41.14 41.14 0 00-24.955-8.402c-22.807 0-41.363 18.556-41.363 41.364s18.557 41.364 41.363 41.364c11.666 0 22.209-4.861 29.736-12.654-.245 1.501-1.446 7.416-1.792 8.853zm-1.576-37.562c0 14.537-11.826 26.364-26.365 26.364-14.537 0-26.363-11.827-26.363-26.364s11.826-26.364 26.363-26.364c14.539 0 26.365 11.827 26.365 26.364zm20.066 10.593c.022-1.026.033-2.056.033-3.088 0-30.722-9.594-58.721-25.262-79.672 11.949-14.41 18.48-31.447 18.48-48.605 0-9.804-2.068-19.36-5.941-28.364-3.156-7.34-7.508-14.313-12.941-20.745 38.416 20.373 64.117 57.142 64.117 99.031 0 2.191-.078 4.372-.217 6.543-1.816 28.374-15.394 54.822-38.269 74.9z" fill="#7f3960"/>
  <path d="M233.309 286.057c-22.807 0-41.363-18.556-41.363-41.364s18.557-41.364 41.363-41.364c9.367 0 18.014 3.134 24.955 8.402-.143-.424-2.141-5.401-2.773-6.764-8.09-17.435-30.172-51.79-65.402-54.963h-.002c-28.535 2.449-53.018 24.154-65.572 55.044a41.184 41.184 0 0111.808-1.719c22.809 0 41.365 18.556 41.365 41.364s-18.557 41.364-41.365 41.364a41.052 41.052 0 01-17.275-3.802c9.548 39.77 37.523 69.277 71.102 72.127 33.58-2.849 61.555-32.357 71.102-72.128.346-1.436 1.547-7.351 1.795-8.851-7.529 7.793-18.072 12.654-29.738 12.654zm-18.555 24.002c-6.092 10.79-17.564 17.492-29.938 17.492-12.372 0-23.844-6.703-29.937-17.492a7.5 7.5 0 0113.061-7.377c3.438 6.087 9.905 9.869 16.877 9.869 6.973 0 13.44-3.781 16.878-9.868a7.496 7.496 0 0110.217-2.843 7.5 7.5 0 012.842 10.219z" fill="#ba82aa"/>
  <path d="M211.91 299.84a7.496 7.496 0 00-10.217 2.843c-3.438 6.087-9.904 9.868-16.878 9.868-6.972 0-13.438-3.781-16.877-9.869a7.5 7.5 0 00-13.061 7.377c6.094 10.789 17.565 17.492 29.937 17.492 12.374 0 23.846-6.703 29.938-17.492a7.497 7.497 0 00-2.842-10.219zM239.49 237.192h-12.361a7.5 7.5 0 00-7.5 7.5 7.5 7.5 0 007.5 7.5h12.361a7.5 7.5 0 007.5-7.5 7.5 7.5 0 00-7.5-7.5z" fill="#7f3960"/>
</svg>
